<svg width="1924" height="1897" viewBox="0 0 1924 1897" fill="none" xmlns="http://www.w3.org/2000/svg">
<g clip-path="url(#clip0)">
<rect width="1924" height="1897" fill="white"/>
<rect y="-8.07422" width="1946.94" height="955.904" fill="#F3F3F3"/>
<g opacity="0.5">
<path d="M1897.93 848.141L1874.48 826.667L1852.07 849.137L1837.52 835.812L1859.93 813.337L1836.48 791.863L1850.39 777.917L1873.84 799.396L1896.25 776.924L1910.8 790.251L1888.39 812.721L1911.84 834.2L1897.93 848.141Z" stroke="white" stroke-width="2" stroke-miterlimit="10"/>
<path d="M1899.8 681.605L1899.53 650.524L1867.09 650.778L1866.93 631.494L1899.37 631.235L1899.1 600.155L1919.23 599.994L1919.5 631.08L1951.94 630.823L1952.1 650.11L1919.66 650.364L1919.93 681.45L1899.8 681.605Z" stroke="white" stroke-width="2" stroke-miterlimit="10"/>
<path d="M1819.03 694.423L1799.65 669.504L1773.64 688.079L1761.61 672.617L1787.62 654.036L1768.23 629.116L1784.37 617.587L1803.76 642.512L1829.77 623.935L1841.8 639.399L1815.79 657.974L1835.17 682.899L1819.03 694.423Z" stroke="white" stroke-width="2" stroke-miterlimit="10"/>
<path d="M1919.61 801.617C1925.88 795.607 1936.05 795.607 1942.32 801.617C1948.59 807.627 1948.59 817.371 1942.32 823.381C1936.05 829.391 1925.88 829.391 1919.61 823.381C1913.33 817.371 1913.33 807.627 1919.61 801.617Z" stroke="white" stroke-width="2" stroke-miterlimit="10"/>
<path d="M1734.22 719.301C1748.71 705.409 1772.22 705.409 1786.72 719.301C1801.21 733.192 1801.21 755.715 1786.72 769.606C1772.22 783.498 1748.71 783.498 1734.22 769.606C1719.72 755.715 1719.72 733.192 1734.22 719.301Z" stroke="white" stroke-width="2" stroke-miterlimit="10"/>
<path d="M1851.27 566.957C1860.88 557.746 1876.47 557.746 1886.08 566.957C1895.69 576.169 1895.69 591.103 1886.08 600.314C1876.47 609.526 1860.88 609.526 1851.27 600.315C1841.66 591.103 1841.66 576.169 1851.27 566.957Z" stroke="white" stroke-width="2" stroke-miterlimit="10"/>
<path d="M1794.27 816.319L1830 875.604L1768.12 909.833L1732.4 850.547L1794.27 816.319Z" stroke="white" stroke-width="2" stroke-miterlimit="10"/>
<path d="M1729.62 613.559L1729.62 692.565L1647.16 692.565L1647.16 613.559L1729.62 613.559Z" stroke="white" stroke-width="2" stroke-miterlimit="10"/>
<path d="M1735.89 790.515L1697.1 848.002L1637.1 810.83L1675.9 753.344L1735.89 790.515Z" stroke="white" stroke-width="2" stroke-miterlimit="10"/>
<path d="M1917.83 717.52L1879.03 775.007L1819.04 737.835L1857.83 680.349L1917.83 717.52Z" stroke="white" stroke-width="2" stroke-miterlimit="10"/>
<path d="M1770.34 328.386L1802.66 331.061L1805.46 300.093L1825.51 301.753L1822.72 332.724L1855.04 335.398L1853.31 354.616L1820.98 351.939L1818.19 382.906L1798.14 381.247L1800.93 350.279L1768.61 347.602L1770.34 328.386Z" stroke="white" stroke-width="2" stroke-miterlimit="10"/>
<path d="M1877.71 459.357L1898.23 483.43L1923.36 463.77L1936.09 478.707L1910.96 498.373L1931.48 522.446L1915.89 534.648L1895.37 510.57L1870.25 530.231L1857.51 515.292L1882.64 495.632L1862.12 471.554L1877.71 459.357Z" stroke="white" stroke-width="2" stroke-miterlimit="10"/>
<path d="M1932.31 400.906L1963.71 408.705L1971.85 378.616L1991.34 383.456L1983.2 413.548L2014.6 421.348L2009.55 440.02L1978.14 432.217L1970 462.306L1950.52 457.466L1958.66 427.377L1927.26 419.575L1932.31 400.906Z" stroke="white" stroke-width="2" stroke-miterlimit="10"/>
<path d="M1757.45 354.371C1756.49 362.82 1748.56 368.921 1739.74 367.998C1730.92 367.075 1724.55 359.477 1725.52 351.028C1726.48 342.579 1734.41 336.478 1743.23 337.401C1752.04 338.324 1758.41 345.921 1757.45 354.371Z" stroke="white" stroke-width="2" stroke-miterlimit="10"/>
<path d="M1982.19 330.624C1979.96 350.153 1961.63 364.255 1941.25 362.122C1920.87 359.988 1906.15 342.427 1908.38 322.898C1910.61 303.369 1928.93 289.267 1949.31 291.4C1969.7 293.533 1984.41 311.094 1982.19 330.624Z" stroke="white" stroke-width="2" stroke-miterlimit="10"/>
<path d="M1973.41 581.523C1971.93 594.473 1959.78 603.824 1946.27 602.409C1932.75 600.994 1922.99 589.35 1924.47 576.4C1925.94 563.45 1938.1 554.099 1951.61 555.514C1965.13 556.928 1974.89 568.573 1973.41 581.523Z" stroke="white" stroke-width="2" stroke-miterlimit="10"/>
<path d="M1871.96 291.008L1805.37 266.214L1831.24 202.404L1897.84 227.198L1871.96 291.008Z" stroke="white" stroke-width="2" stroke-miterlimit="10"/>
<path d="M1833.41 155.835L1790.17 155.667L1790.35 114.24L1833.58 114.409L1833.41 155.835Z" stroke="white" stroke-width="2" stroke-miterlimit="10"/>
<path d="M1840.19 442.17L1832.87 374.072L1903.94 367.061L1911.26 435.159L1840.19 442.17Z" stroke="white" stroke-width="2" stroke-miterlimit="10"/>
<path d="M1329.49 236.554L1356.65 219.561L1338.91 193.533L1355.76 182.99L1373.5 209.017L1400.66 192.023L1411.67 208.173L1384.51 225.168L1402.24 251.193L1385.39 261.739L1367.65 235.711L1340.49 252.706L1329.49 236.554Z" stroke="white" stroke-width="2" stroke-miterlimit="10"/>
<path d="M1547.34 365.065L1552.98 334.459L1521.04 329.042L1524.55 310.052L1556.49 315.464L1562.14 284.858L1581.97 288.216L1576.31 318.827L1608.26 324.239L1604.75 343.233L1572.81 337.817L1567.16 368.428L1547.34 365.065Z" stroke="white" stroke-width="2" stroke-miterlimit="10"/>
<path d="M1381.63 372.943L1413.54 367.346L1407.7 336.77L1427.5 333.298L1433.34 363.876L1465.25 358.279L1468.88 377.253L1436.96 382.848L1442.81 413.422L1423.01 416.896L1417.17 386.32L1385.25 391.916L1381.63 372.943Z" stroke="white" stroke-width="2" stroke-miterlimit="10"/>
<path d="M1693.01 274.221L1719.86 256.775L1701.65 231.048L1718.31 220.225L1736.52 245.951L1763.37 228.506L1774.67 244.469L1747.82 261.916L1766.03 287.64L1749.37 298.466L1731.16 272.739L1704.31 290.185L1693.01 274.221Z" stroke="white" stroke-width="2" stroke-miterlimit="10"/>
<path d="M1626.2 206.114L1640.74 167.05L1599.97 153.115L1608.99 128.878L1649.76 142.807L1664.3 103.742L1689.6 112.386L1675.06 151.456L1715.83 165.385L1706.81 189.628L1666.04 175.694L1651.5 214.764L1626.2 206.114Z" stroke="white" stroke-width="2" stroke-miterlimit="10"/>
<path d="M1622.45 370.817C1631.15 372.487 1636.79 380.596 1635.04 388.93C1633.3 397.264 1624.84 402.666 1616.14 400.997C1607.44 399.327 1601.81 391.218 1603.55 382.884C1605.29 374.55 1613.75 369.148 1622.45 370.817Z" stroke="white" stroke-width="2" stroke-miterlimit="10"/>
<path d="M1401.97 473.868C1410.67 475.538 1416.31 483.647 1414.57 491.981C1412.83 500.314 1404.36 505.717 1395.66 504.047C1386.97 502.378 1381.33 494.269 1383.07 485.935C1384.81 477.601 1393.28 472.199 1401.97 473.868Z" stroke="white" stroke-width="2" stroke-miterlimit="10"/>
<path d="M1568.47 163.081C1588.57 166.94 1601.6 185.684 1597.58 204.947C1593.55 224.209 1573.99 236.697 1553.88 232.838C1533.78 228.979 1520.75 210.235 1524.78 190.972C1528.8 171.71 1548.37 159.222 1568.47 163.081Z" stroke="white" stroke-width="2" stroke-miterlimit="10"/>
<path d="M1766.42 163.343C1779.75 165.901 1788.4 178.33 1785.73 191.103C1783.05 203.877 1770.08 212.157 1756.75 209.598C1743.42 207.039 1734.78 194.61 1737.45 181.837C1740.12 169.064 1753.09 160.784 1766.42 163.343Z" stroke="white" stroke-width="2" stroke-miterlimit="10"/>
<path d="M1457.19 435.399C1468.09 437.492 1475.16 447.656 1472.98 458.101C1470.79 468.547 1460.18 475.318 1449.28 473.225C1438.38 471.133 1431.32 460.969 1433.5 450.523C1435.68 440.078 1446.29 433.307 1457.19 435.399Z" stroke="white" stroke-width="2" stroke-miterlimit="10"/>
<path d="M1370.17 279.97C1383.5 282.529 1392.14 294.957 1389.47 307.73C1386.8 320.504 1373.83 328.784 1360.5 326.225C1347.17 323.666 1338.52 311.237 1341.2 298.464C1343.87 285.691 1356.84 277.411 1370.17 279.97Z" stroke="white" stroke-width="2" stroke-miterlimit="10"/>
<path d="M1517.5 264.762L1485.81 326.118L1421.78 295.757L1453.47 234.4L1517.5 264.762Z" stroke="white" stroke-width="2" stroke-miterlimit="10"/>
<path d="M1507.54 203.9L1436.11 204.837L1435.13 136.386L1506.57 135.449L1507.54 203.9Z" stroke="white" stroke-width="2" stroke-miterlimit="10"/>
<path d="M1671.82 308.511L1600.38 309.448L1599.4 240.997L1670.84 240.06L1671.82 308.511Z" stroke="white" stroke-width="2" stroke-miterlimit="10"/>
<path d="M1568.95 413.385L1509.49 451.34L1469.88 394.368L1529.34 356.413L1568.95 413.385Z" stroke="white" stroke-width="2" stroke-miterlimit="10"/>
<path d="M1812.26 34.1364L1783.19 20.3567L1797.57 -7.50658L1779.53 -16.0556L1765.14 11.8073L1736.07 -1.97238L1727.14 15.3169L1756.22 29.0971L1741.84 56.9573L1759.88 65.5094L1774.26 37.6461L1803.34 51.4262L1812.26 34.1364Z" stroke="white" stroke-width="2" stroke-miterlimit="10"/>
<path d="M1969.4 134.818L1934.64 121.564L1948.47 88.2591L1926.91 80.0368L1913.07 113.342L1878.32 100.089L1869.73 120.755L1904.49 134.008L1890.66 167.31L1912.23 175.536L1926.06 142.231L1960.82 155.484L1969.4 134.818Z" stroke="white" stroke-width="2" stroke-miterlimit="10"/>
<path d="M1634.54 15.6127L1603.47 6.67025L1612.8 -23.1001L1593.53 -28.6477L1584.19 1.12311L1553.12 -7.81935L1547.33 10.6538L1578.4 19.5958L1569.07 49.3636L1588.35 54.9138L1597.68 25.1434L1628.75 34.0854L1634.54 15.6127Z" stroke="white" stroke-width="2" stroke-miterlimit="10"/>
<path d="M1774.04 69.5524C1770.29 77.2542 1773.76 86.4117 1781.8 90.0062C1789.84 93.6008 1799.4 90.2712 1803.15 82.5694C1806.9 74.8676 1803.42 65.7101 1795.39 62.1155C1787.35 58.5209 1777.79 61.8506 1774.04 69.5524Z" stroke="white" stroke-width="2" stroke-miterlimit="10"/>
<path d="M1733.15 102.251C1729.4 109.952 1732.87 119.11 1740.91 122.705C1748.95 126.299 1758.51 122.97 1762.26 115.268C1766.01 107.566 1762.54 98.4083 1754.5 94.8137C1746.46 91.2192 1736.9 94.5488 1733.15 102.251Z" stroke="white" stroke-width="2" stroke-miterlimit="10"/>
<path d="M1520.53 88.1973C1514.78 100.002 1520.11 114.037 1532.43 119.547C1544.75 125.056 1559.39 119.953 1565.14 108.148C1570.89 96.3439 1565.57 82.3082 1553.25 76.7989C1540.93 71.2895 1526.28 76.3928 1520.53 88.1973Z" stroke="white" stroke-width="2" stroke-miterlimit="10"/>
<path d="M1924.81 6.25244C1920.11 15.9058 1924.47 27.3837 1934.54 31.8891C1944.62 36.3945 1956.59 32.2213 1961.3 22.5679C1966 12.9145 1961.64 1.43653 1951.57 -3.06885C1941.49 -7.57424 1929.52 -3.40093 1924.81 6.25244Z" stroke="white" stroke-width="2" stroke-miterlimit="10"/>
<path d="M1690.95 96.686L1734.08 42.1084L1677.12 0.784055L1633.99 55.3617L1690.95 96.686Z" stroke="white" stroke-width="2" stroke-miterlimit="10"/>
<path d="M1840.07 79.4567L1907.22 56.0645L1882.8 -8.27226L1815.66 15.12L1840.07 79.4567Z" stroke="white" stroke-width="2" stroke-miterlimit="10"/>
<path d="M1658.62 338.7L1701.7 335.134L1705.42 376.407L1662.34 379.974L1658.62 338.7Z" stroke="white" stroke-width="2" stroke-miterlimit="10"/>
<path d="M1744.71 456.965L1774.96 468.177L1763.26 497.169L1782.03 504.125L1793.74 475.133L1823.99 486.346L1831.26 468.356L1801 457.144L1812.7 428.155L1793.93 421.196L1782.23 450.188L1751.97 438.975L1744.71 456.965Z" stroke="white" stroke-width="2" stroke-miterlimit="10"/>
<path d="M1669.48 584.873L1686.14 566.865L1704.94 582.825L1715.27 571.651L1696.48 555.688L1713.13 537.68L1701.47 527.774L1684.81 545.786L1666.02 529.825L1655.68 541L1674.48 556.96L1657.82 574.972L1669.48 584.873Z" stroke="white" stroke-width="2" stroke-miterlimit="10"/>
<path d="M1765.39 405.002C1768.4 397.008 1764.08 388.188 1755.74 385.302C1747.39 382.416 1738.19 386.558 1735.18 394.552C1732.17 402.547 1736.49 411.367 1744.83 414.252C1753.17 417.138 1762.38 412.997 1765.39 405.002Z" stroke="white" stroke-width="2" stroke-miterlimit="10"/>
<path d="M1600 461.448C1603.77 451.428 1598.35 440.373 1587.9 436.756C1577.44 433.139 1565.9 438.33 1562.13 448.35C1558.35 458.37 1563.77 469.425 1574.23 473.042C1584.68 476.659 1596.22 471.468 1600 461.448Z" stroke="white" stroke-width="2" stroke-miterlimit="10"/>
<path d="M1818.83 533.347L1747.64 527.562L1741.6 595.774L1812.79 601.559L1818.83 533.347Z" stroke="white" stroke-width="2" stroke-miterlimit="10"/>
<path d="M1712.75 414.23L1648.08 443.326L1678.45 505.293L1743.12 476.196L1712.75 414.23Z" stroke="white" stroke-width="2" stroke-miterlimit="10"/>
<path d="M1349.57 43.4022L1349.84 74.4824L1382.28 74.2288L1382.44 93.513L1350 93.7719L1350.27 124.852L1330.14 125.012L1329.87 93.927L1297.44 94.1842L1297.27 74.8964L1329.71 74.6427L1329.44 43.5572L1349.57 43.4022Z" stroke="white" stroke-width="2" stroke-miterlimit="10"/>
<path d="M1430.34 30.5836L1449.72 55.5032L1475.74 36.928L1487.76 52.3903L1461.75 70.971L1481.14 95.8906L1465 107.42L1445.61 82.4948L1419.61 101.072L1407.57 85.6078L1433.59 67.0325L1414.2 42.1074L1430.34 30.5836Z" stroke="white" stroke-width="2" stroke-miterlimit="10"/>
<path d="M1398.1 158.05C1388.49 167.261 1372.9 167.261 1363.29 158.05C1353.68 148.838 1353.68 133.904 1363.29 124.692C1372.9 115.481 1388.49 115.481 1398.1 124.692C1407.72 133.904 1407.72 148.838 1398.1 158.05Z" stroke="white" stroke-width="2" stroke-miterlimit="10"/>
<path d="M1331.54 7.48641L1370.34 -50L1430.33 -12.8283L1391.54 44.6582L1331.54 7.48641Z" stroke="white" stroke-width="2" stroke-miterlimit="10"/>
<path d="M1271.23 821.477L1298.39 804.484L1280.66 778.456L1297.51 767.913L1315.25 793.94L1342.41 776.946L1353.42 793.096L1326.25 810.091L1343.99 836.115L1327.13 846.662L1309.4 820.634L1282.23 837.629L1271.23 821.477Z" stroke="white" stroke-width="2" stroke-miterlimit="10"/>
<path d="M1567.94 791.037L1582.48 751.973L1541.71 738.038L1550.73 713.8L1591.51 727.73L1606.05 688.665L1631.35 697.309L1616.8 736.379L1657.58 750.308L1648.55 774.551L1607.78 760.616L1593.24 799.686L1567.94 791.037Z" stroke="white" stroke-width="2" stroke-miterlimit="10"/>
<path d="M1510.21 748.004C1530.32 751.863 1543.35 770.607 1539.32 789.87C1535.29 809.132 1515.73 821.619 1495.63 817.761C1475.52 813.902 1462.49 795.158 1466.52 775.895C1470.55 756.633 1490.11 744.145 1510.21 748.004Z" stroke="white" stroke-width="2" stroke-miterlimit="10"/>
<path d="M1459.25 849.685L1427.56 911.041L1363.53 880.679L1395.21 819.323L1459.25 849.685Z" stroke="white" stroke-width="2" stroke-miterlimit="10"/>
<path d="M1449.29 788.823L1377.85 789.76L1376.87 721.309L1448.31 720.371L1449.29 788.823Z" stroke="white" stroke-width="2" stroke-miterlimit="10"/>
<path d="M1613.56 893.434L1542.12 894.371L1541.14 825.92L1612.58 824.983L1613.56 893.434Z" stroke="white" stroke-width="2" stroke-miterlimit="10"/>
<path d="M1576.28 600.535L1545.21 591.593L1554.55 561.823L1535.27 556.275L1525.93 586.046L1494.87 577.103L1489.07 595.577L1520.15 604.519L1510.81 634.286L1530.09 639.837L1539.42 610.066L1570.49 619.008L1576.28 600.535Z" stroke="white" stroke-width="2" stroke-miterlimit="10"/>
<path d="M1571.7 515.657C1563.03 533.459 1571.06 554.625 1589.64 562.934C1608.22 571.242 1630.31 563.546 1638.98 545.744C1647.65 527.942 1639.62 506.775 1621.04 498.467C1602.46 490.158 1580.37 497.855 1571.7 515.657Z" stroke="white" stroke-width="2" stroke-miterlimit="10"/>
<path d="M1462.27 673.12C1456.52 684.925 1461.85 698.96 1474.17 704.47C1486.49 709.979 1501.14 704.876 1506.89 693.071C1512.64 681.267 1507.31 667.231 1494.99 661.722C1482.67 656.212 1468.02 661.316 1462.27 673.12Z" stroke="white" stroke-width="2" stroke-miterlimit="10"/>
<path d="M1293.18 461.79L1316.63 483.264L1339.05 460.794L1353.6 474.119L1331.19 496.594L1354.64 518.068L1340.73 532.014L1317.28 510.535L1294.86 533.006L1280.31 519.68L1302.73 497.21L1279.27 475.731L1293.18 461.79Z" stroke="white" stroke-width="2" stroke-miterlimit="10"/>
<path d="M1372.08 615.505L1391.47 640.425L1417.48 621.85L1429.51 637.312L1403.5 655.893L1422.88 680.813L1406.74 692.342L1387.36 667.417L1361.35 685.994L1349.32 670.53L1375.33 651.954L1355.94 627.029L1372.08 615.505Z" stroke="white" stroke-width="2" stroke-miterlimit="10"/>
<path d="M1456.9 590.629C1442.4 604.52 1418.9 604.52 1404.4 590.629C1389.9 576.737 1389.9 554.215 1404.4 540.324C1418.9 526.432 1442.4 526.432 1456.9 540.324C1471.4 554.215 1471.4 576.737 1456.9 590.629Z" stroke="white" stroke-width="2" stroke-miterlimit="10"/>
<path d="M1339.85 742.972C1330.23 752.183 1314.65 752.183 1305.03 742.972C1295.42 733.76 1295.42 718.826 1305.03 709.614C1314.65 700.403 1330.23 700.403 1339.85 709.614C1349.46 718.826 1349.46 733.76 1339.85 742.972Z" stroke="white" stroke-width="2" stroke-miterlimit="10"/>
<path d="M1455.23 519.413L1494.02 461.927L1554.01 499.099L1515.22 556.585L1455.23 519.413Z" stroke="white" stroke-width="2" stroke-miterlimit="10"/>
<path d="M1228.86 848.141L1205.41 826.667L1183 849.137L1168.45 835.812L1190.86 813.337L1167.41 791.863L1181.32 777.917L1204.77 799.396L1227.18 776.924L1241.74 790.251L1219.32 812.721L1242.77 834.2L1228.86 848.141Z" stroke="white" stroke-width="2" stroke-miterlimit="10"/>
<path d="M1230.73 681.605L1230.46 650.524L1198.02 650.778L1197.86 631.494L1230.3 631.235L1230.03 600.155L1250.16 599.994L1250.43 631.08L1282.87 630.823L1283.03 650.11L1250.59 650.364L1250.86 681.45L1230.73 681.605Z" stroke="white" stroke-width="2" stroke-miterlimit="10"/>
<path d="M1149.96 694.423L1130.58 669.504L1104.57 688.079L1092.54 672.617L1118.55 654.036L1099.16 629.116L1115.3 617.587L1134.69 642.512L1160.7 623.935L1172.73 639.399L1146.72 657.974L1166.1 682.899L1149.96 694.423Z" stroke="white" stroke-width="2" stroke-miterlimit="10"/>
<path d="M1065.15 719.301C1079.64 705.409 1103.15 705.41 1117.65 719.301C1132.14 733.192 1132.14 755.715 1117.65 769.606C1103.15 783.498 1079.64 783.498 1065.15 769.606C1050.65 755.715 1050.65 733.192 1065.15 719.301Z" stroke="white" stroke-width="2" stroke-miterlimit="10"/>
<path d="M1182.2 566.957C1191.81 557.746 1207.4 557.746 1217.01 566.957C1226.63 576.169 1226.63 591.103 1217.01 600.314C1207.4 609.526 1191.81 609.526 1182.2 600.315C1172.59 591.103 1172.59 576.169 1182.2 566.957Z" stroke="white" stroke-width="2" stroke-miterlimit="10"/>
<path d="M1125.2 816.319L1160.93 875.604L1099.05 909.833L1063.33 850.547L1125.2 816.319Z" stroke="white" stroke-width="2" stroke-miterlimit="10"/>
<path d="M1060.55 613.559L1060.55 692.565L978.092 692.565L978.092 613.559L1060.55 613.559Z" stroke="white" stroke-width="2" stroke-miterlimit="10"/>
<path d="M1066.82 790.515L1028.03 848.002L968.031 810.83L1006.83 753.344L1066.82 790.515Z" stroke="white" stroke-width="2" stroke-miterlimit="10"/>
<path d="M1248.76 717.52L1209.97 775.007L1149.97 737.835L1188.76 680.349L1248.76 717.52Z" stroke="white" stroke-width="2" stroke-miterlimit="10"/>
<path d="M1101.27 328.386L1133.59 331.061L1136.39 300.093L1156.44 301.753L1153.65 332.724L1185.97 335.398L1184.24 354.616L1151.91 351.939L1149.12 382.906L1129.07 381.247L1131.86 350.279L1099.54 347.602L1101.27 328.386Z" stroke="white" stroke-width="2" stroke-miterlimit="10"/>
<path d="M1208.64 459.357L1229.16 483.43L1254.29 463.77L1267.02 478.707L1241.89 498.373L1262.41 522.446L1246.82 534.648L1226.3 510.57L1201.18 530.231L1188.44 515.292L1213.57 495.632L1193.05 471.554L1208.64 459.357Z" stroke="white" stroke-width="2" stroke-miterlimit="10"/>
<path d="M1263.24 400.906L1294.64 408.705L1302.78 378.616L1322.27 383.456L1314.13 413.548L1345.53 421.348L1340.48 440.02L1309.07 432.217L1300.93 462.306L1281.45 457.466L1289.59 427.377L1258.19 419.575L1263.24 400.906Z" stroke="white" stroke-width="2" stroke-miterlimit="10"/>
<path d="M1088.38 354.371C1087.42 362.82 1079.49 368.921 1070.67 367.998C1061.85 367.075 1055.48 359.477 1056.45 351.028C1057.41 342.579 1065.34 336.478 1074.16 337.401C1082.98 338.324 1089.34 345.921 1088.38 354.371Z" stroke="white" stroke-width="2" stroke-miterlimit="10"/>
<path d="M1313.12 330.624C1310.89 350.153 1292.56 364.255 1272.18 362.122C1251.8 359.988 1237.08 342.427 1239.31 322.898C1241.54 303.369 1259.86 289.267 1280.25 291.4C1300.63 293.533 1315.34 311.094 1313.12 330.624Z" stroke="white" stroke-width="2" stroke-miterlimit="10"/>
<path d="M1304.34 581.523C1302.86 594.473 1290.71 603.824 1277.2 602.409C1263.68 600.994 1253.92 589.35 1255.4 576.4C1256.88 563.45 1269.03 554.099 1282.54 555.514C1296.06 556.928 1305.82 568.573 1304.34 581.523Z" stroke="white" stroke-width="2" stroke-miterlimit="10"/>
<path d="M1202.89 291.008L1136.3 266.214L1162.17 202.404L1228.77 227.198L1202.89 291.008Z" stroke="white" stroke-width="2" stroke-miterlimit="10"/>
<path d="M1164.34 155.835L1121.1 155.667L1121.28 114.24L1164.51 114.409L1164.34 155.835Z" stroke="white" stroke-width="2" stroke-miterlimit="10"/>
<path d="M1265.28 276.099L1257.96 208.002L1329.03 200.991L1336.35 269.088L1265.28 276.099Z" stroke="white" stroke-width="2" stroke-miterlimit="10"/>
<path d="M1171.12 442.17L1163.8 374.072L1234.87 367.061L1242.19 435.159L1171.12 442.17Z" stroke="white" stroke-width="2" stroke-miterlimit="10"/>
<path d="M660.417 236.554L687.577 219.561L669.843 193.533L686.695 182.99L704.435 209.017L731.596 192.023L742.603 208.173L715.437 225.168L733.174 251.193L716.319 261.739L698.585 235.711L671.419 252.706L660.417 236.554Z" stroke="white" stroke-width="2" stroke-miterlimit="10"/>
<path d="M878.266 365.065L883.915 334.459L851.971 329.042L855.477 310.052L887.425 315.464L893.074 284.858L912.898 288.216L907.245 318.827L939.188 324.239L935.683 343.233L903.739 337.817L898.086 368.428L878.266 365.065Z" stroke="white" stroke-width="2" stroke-miterlimit="10"/>
<path d="M712.564 372.943L744.471 367.346L738.632 336.77L758.43 333.298L764.275 363.876L796.182 358.279L799.808 377.253L767.895 382.848L773.737 413.422L753.936 416.896L748.097 386.32L716.184 391.916L712.564 372.943Z" stroke="white" stroke-width="2" stroke-miterlimit="10"/>
<path d="M1023.95 274.221L1050.79 256.775L1032.59 231.048L1049.24 220.225L1067.45 245.951L1094.3 228.506L1105.6 244.469L1078.75 261.916L1096.96 287.64L1080.3 298.466L1062.09 272.739L1035.24 290.185L1023.95 274.221Z" stroke="white" stroke-width="2" stroke-miterlimit="10"/>
<path d="M957.129 206.114L971.668 167.05L930.896 153.115L939.918 128.878L980.695 142.807L995.233 103.742L1020.53 112.386L1005.99 151.456L1046.76 165.385L1037.74 189.628L996.97 175.694L982.426 214.764L957.129 206.114Z" stroke="white" stroke-width="2" stroke-miterlimit="10"/>
<path d="M953.382 370.817C962.08 372.487 967.718 380.596 965.975 388.93C964.233 397.264 955.77 402.666 947.072 400.997C938.375 399.327 932.737 391.218 934.479 382.884C936.221 374.55 944.685 369.148 953.382 370.817Z" stroke="white" stroke-width="2" stroke-miterlimit="10"/>
<path d="M732.906 473.868C741.603 475.538 747.241 483.647 745.499 491.981C743.757 500.314 735.294 505.717 726.596 504.047C717.899 502.378 712.26 494.269 714.003 485.935C715.745 477.601 724.208 472.199 732.906 473.868Z" stroke="white" stroke-width="2" stroke-miterlimit="10"/>
<path d="M628.948 170.62C649.052 174.479 662.084 193.223 658.056 212.486C654.029 231.748 634.467 244.236 614.364 240.377C594.261 236.518 581.228 217.774 585.256 198.511C589.283 179.249 608.845 166.761 628.948 170.62Z" stroke="white" stroke-width="2" stroke-miterlimit="10"/>
<path d="M899.4 163.081C919.503 166.94 932.536 185.684 928.508 204.947C924.481 224.209 904.919 236.697 884.816 232.838C864.713 228.979 851.68 210.235 855.708 190.972C859.735 171.71 879.297 159.222 899.4 163.081Z" stroke="white" stroke-width="2" stroke-miterlimit="10"/>
<path d="M1097.35 163.343C1110.68 165.901 1119.33 178.33 1116.66 191.103C1113.98 203.877 1101.01 212.157 1087.68 209.598C1074.35 207.039 1065.71 194.61 1068.38 181.837C1071.05 169.064 1084.02 160.784 1097.35 163.343Z" stroke="white" stroke-width="2" stroke-miterlimit="10"/>
<path d="M788.123 435.399C799.024 437.492 806.091 447.656 803.907 458.101C801.723 468.547 791.116 475.318 780.214 473.225C769.313 471.133 762.246 460.969 764.43 450.523C766.614 440.078 777.222 433.307 788.123 435.399Z" stroke="white" stroke-width="2" stroke-miterlimit="10"/>
<path d="M701.098 279.97C714.428 282.529 723.07 294.957 720.399 307.73C717.729 320.504 704.758 328.784 691.427 326.225C678.097 323.666 669.455 311.237 672.125 298.464C674.796 285.691 687.767 277.411 701.098 279.97Z" stroke="white" stroke-width="2" stroke-miterlimit="10"/>
<path d="M848.432 264.762L816.746 326.118L752.712 295.757L784.398 234.4L848.432 264.762Z" stroke="white" stroke-width="2" stroke-miterlimit="10"/>
<path d="M838.474 203.9L767.035 204.837L766.057 136.386L837.496 135.449L838.474 203.9Z" stroke="white" stroke-width="2" stroke-miterlimit="10"/>
<path d="M1002.75 308.511L931.308 309.448L930.329 240.997L1001.77 240.06L1002.75 308.511Z" stroke="white" stroke-width="2" stroke-miterlimit="10"/>
<path d="M899.884 413.385L840.425 451.34L800.814 394.368L860.272 356.413L899.884 413.385Z" stroke="white" stroke-width="2" stroke-miterlimit="10"/>
<path d="M693.086 391.827L633.628 429.782L594.016 372.81L653.475 334.855L693.086 391.827Z" stroke="white" stroke-width="2" stroke-miterlimit="10"/>
<path d="M1143.2 34.1364L1114.12 20.3567L1128.5 -7.50659L1110.46 -16.0556L1096.07 11.8073L1067 -1.9724L1058.07 15.3169L1087.15 29.097L1072.77 56.9573L1090.81 65.5094L1105.19 37.646L1134.28 51.4262L1143.2 34.1364Z" stroke="white" stroke-width="2" stroke-miterlimit="10"/>
<path d="M1300.33 134.818L1265.57 121.564L1279.4 88.2591L1257.84 80.0368L1244 113.342L1209.25 100.089L1200.66 120.755L1235.42 134.008L1221.59 167.31L1243.16 175.536L1256.99 142.231L1291.75 155.484L1300.33 134.818Z" stroke="white" stroke-width="2" stroke-miterlimit="10"/>
<path d="M965.467 15.6127L934.401 6.67026L943.732 -23.1001L924.456 -28.6477L915.119 1.12311L884.053 -7.81935L878.26 10.6538L909.332 19.5958L899.998 49.3636L919.277 54.9138L928.608 25.1434L959.68 34.0854L965.467 15.6127Z" stroke="white" stroke-width="2" stroke-miterlimit="10"/>
<path d="M1104.97 69.5524C1101.22 77.2542 1104.69 86.4117 1112.73 90.0062C1120.77 93.6008 1130.33 90.2712 1134.08 82.5694C1137.83 74.8676 1134.35 65.7101 1126.32 62.1155C1118.28 58.5209 1108.72 61.8506 1104.97 69.5524Z" stroke="white" stroke-width="2" stroke-miterlimit="10"/>
<path d="M1064.08 102.251C1060.33 109.952 1063.8 119.11 1071.84 122.705C1079.88 126.299 1089.44 122.97 1093.19 115.268C1096.94 107.566 1093.47 98.4083 1085.43 94.8137C1077.39 91.2192 1067.83 94.5488 1064.08 102.251Z" stroke="white" stroke-width="2" stroke-miterlimit="10"/>
<path d="M851.46 88.1973C845.711 100.002 851.036 114.037 863.356 119.547C875.676 125.056 890.324 119.953 896.074 108.148C901.823 96.3439 896.498 82.3082 884.178 76.7989C871.858 71.2895 857.21 76.3928 851.46 88.1973Z" stroke="white" stroke-width="2" stroke-miterlimit="10"/>
<path d="M1255.74 6.25244C1251.04 15.9058 1255.4 27.3837 1265.47 31.8891C1275.55 36.3945 1287.53 32.2213 1292.23 22.5679C1296.93 12.9145 1292.57 1.43653 1282.5 -3.06885C1272.42 -7.57424 1260.45 -3.40093 1255.74 6.25244Z" stroke="white" stroke-width="2" stroke-miterlimit="10"/>
<path d="M1021.88 96.686L1065.01 42.1084L1008.05 0.784055L964.921 55.3617L1021.88 96.686Z" stroke="white" stroke-width="2" stroke-miterlimit="10"/>
<path d="M1171 79.4567L1238.15 56.0645L1213.73 -8.27226L1146.59 15.12L1171 79.4567Z" stroke="white" stroke-width="2" stroke-miterlimit="10"/>
<path d="M989.552 338.7L1032.63 335.134L1036.35 376.407L993.274 379.974L989.552 338.7Z" stroke="white" stroke-width="2" stroke-miterlimit="10"/>
<path d="M1075.64 456.965L1105.89 468.177L1094.19 497.169L1112.97 504.125L1124.67 475.133L1154.93 486.346L1162.19 468.356L1131.93 457.144L1143.63 428.155L1124.86 421.196L1113.16 450.188L1082.9 438.975L1075.64 456.965Z" stroke="white" stroke-width="2" stroke-miterlimit="10"/>
<path d="M1000.41 584.873L1017.07 566.865L1035.87 582.825L1046.2 571.651L1027.41 555.688L1044.06 537.68L1032.4 527.774L1015.74 545.786L996.949 529.825L986.612 541L1005.41 556.96L988.751 574.972L1000.41 584.873Z" stroke="white" stroke-width="2" stroke-miterlimit="10"/>
<path d="M1096.32 405.002C1099.33 397.008 1095.01 388.188 1086.67 385.302C1078.32 382.416 1069.12 386.558 1066.11 394.552C1063.1 402.547 1067.42 411.367 1075.76 414.252C1084.1 417.138 1093.31 412.997 1096.32 405.002Z" stroke="white" stroke-width="2" stroke-miterlimit="10"/>
<path d="M930.927 461.448C934.701 451.428 929.284 440.373 918.826 436.756C908.369 433.139 896.832 438.33 893.057 448.35C889.282 458.37 894.699 469.425 905.157 473.042C915.614 476.659 927.152 471.468 930.927 461.448Z" stroke="white" stroke-width="2" stroke-miterlimit="10"/>
<path d="M1149.76 533.347L1078.57 527.562L1072.53 595.774L1143.72 601.559L1149.76 533.347Z" stroke="white" stroke-width="2" stroke-miterlimit="10"/>
<path d="M1043.69 414.23L979.015 443.326L1009.38 505.293L1074.05 476.196L1043.69 414.23Z" stroke="white" stroke-width="2" stroke-miterlimit="10"/>
<path d="M690.835 43.4022L691.103 74.4824L723.542 74.2288L723.707 93.513L691.266 93.7719L691.533 124.852L671.403 125.012L671.137 93.927L638.7 94.1842L638.533 74.8964L670.972 74.6427L670.707 43.5572L690.835 43.4022Z" stroke="white" stroke-width="2" stroke-miterlimit="10"/>
<path d="M761.268 30.5836L780.654 55.5032L806.665 36.928L818.693 52.3903L792.684 70.971L812.07 95.8906L795.931 107.42L776.543 82.4948L750.536 101.072L738.504 85.6078L764.515 67.0325L745.127 42.1074L761.268 30.5836Z" stroke="white" stroke-width="2" stroke-miterlimit="10"/>
<path d="M729.032 158.05C719.419 167.261 703.833 167.261 694.219 158.05C684.606 148.838 684.606 133.904 694.219 124.692C703.833 115.481 719.419 115.481 729.033 124.692C738.646 133.904 738.646 148.838 729.032 158.05Z" stroke="white" stroke-width="2" stroke-miterlimit="10"/>
<path d="M662.474 7.4864L701.268 -50L761.263 -12.8283L722.469 44.6581L662.474 7.4864Z" stroke="white" stroke-width="2" stroke-miterlimit="10"/>
<path d="M602.161 821.477L629.321 804.484L611.587 778.456L628.439 767.913L646.179 793.94L673.339 776.946L684.347 793.096L657.181 810.091L674.918 836.115L658.063 846.662L640.329 820.634L613.163 837.629L602.161 821.477Z" stroke="white" stroke-width="2" stroke-miterlimit="10"/>
<path d="M898.873 791.037L913.412 751.973L872.64 738.038L881.662 713.8L922.438 727.73L936.977 688.665L962.279 697.309L947.735 736.379L988.506 750.308L979.485 774.551L938.714 760.616L924.17 799.686L898.873 791.037Z" stroke="white" stroke-width="2" stroke-miterlimit="10"/>
<path d="M841.144 748.004C861.247 751.863 874.279 770.607 870.252 789.87C866.225 809.132 846.663 821.619 826.56 817.761C806.456 813.902 793.424 795.158 797.451 775.895C801.479 756.633 821.04 744.145 841.144 748.004Z" stroke="white" stroke-width="2" stroke-miterlimit="10"/>
<path d="M642.842 864.893C656.173 867.452 664.814 879.881 662.144 892.654C659.473 905.427 646.502 913.708 633.171 911.149C619.841 908.59 611.199 896.161 613.87 883.388C616.54 870.615 629.512 862.335 642.842 864.893Z" stroke="white" stroke-width="2" stroke-miterlimit="10"/>
<path d="M790.176 849.685L758.49 911.041L694.456 880.679L726.142 819.323L790.176 849.685Z" stroke="white" stroke-width="2" stroke-miterlimit="10"/>
<path d="M780.218 788.823L708.78 789.76L707.802 721.309L779.24 720.371L780.218 788.823Z" stroke="white" stroke-width="2" stroke-miterlimit="10"/>
<path d="M944.49 893.434L873.052 894.371L872.074 825.92L943.512 824.983L944.49 893.434Z" stroke="white" stroke-width="2" stroke-miterlimit="10"/>
<path d="M907.211 600.535L876.145 591.593L885.476 561.823L866.2 556.275L856.863 586.046L825.797 577.103L820.004 595.577L851.076 604.519L841.742 634.286L861.02 639.837L870.351 610.066L901.423 619.008L907.211 600.535Z" stroke="white" stroke-width="2" stroke-miterlimit="10"/>
<path d="M902.629 515.657C893.958 533.459 901.99 554.625 920.569 562.934C939.147 571.242 961.238 563.546 969.909 545.744C978.58 527.942 970.548 506.775 951.969 498.467C933.39 490.158 911.3 497.855 902.629 515.657Z" stroke="white" stroke-width="2" stroke-miterlimit="10"/>
<path d="M793.205 673.12C787.455 684.925 792.781 698.96 805.101 704.47C817.42 709.979 832.068 704.876 837.818 693.071C843.568 681.267 838.242 667.231 825.922 661.722C813.603 656.212 798.955 661.316 793.205 673.12Z" stroke="white" stroke-width="2" stroke-miterlimit="10"/>
<path d="M888.472 650.598C882.722 662.402 888.048 676.438 900.368 681.947C912.687 687.456 927.335 682.353 933.085 670.549C938.835 658.744 933.509 644.709 921.189 639.199C908.87 633.69 894.222 638.793 888.472 650.598Z" stroke="white" stroke-width="2" stroke-miterlimit="10"/>
<path d="M624.114 461.79L647.564 483.264L669.98 460.794L684.529 474.119L662.117 496.594L685.567 518.068L671.66 532.014L648.206 510.535L625.795 533.006L611.242 519.68L633.657 497.21L610.204 475.731L624.114 461.79Z" stroke="white" stroke-width="2" stroke-miterlimit="10"/>
<path d="M622.247 628.324L622.514 659.404L654.953 659.151L655.118 678.435L622.677 678.694L622.944 709.774L602.814 709.934L602.549 678.849L570.111 679.106L569.944 659.818L602.384 659.565L602.118 628.479L622.247 628.324Z" stroke="white" stroke-width="2" stroke-miterlimit="10"/>
<path d="M703.013 615.505L722.399 640.425L748.41 621.85L760.438 637.312L734.429 655.893L753.815 680.813L737.676 692.342L718.288 667.417L692.28 685.994L680.249 670.53L706.26 651.954L686.872 627.029L703.013 615.505Z" stroke="white" stroke-width="2" stroke-miterlimit="10"/>
<path d="M787.829 590.629C773.332 604.52 749.826 604.52 735.329 590.629C720.831 576.737 720.831 554.215 735.329 540.324C749.826 526.432 773.332 526.432 787.829 540.324C802.327 554.215 802.327 576.737 787.829 590.629Z" stroke="white" stroke-width="2" stroke-miterlimit="10"/>
<path d="M670.777 742.972C661.164 752.183 645.577 752.183 635.964 742.972C626.351 733.76 626.351 718.826 635.964 709.614C645.577 700.403 661.164 700.403 670.777 709.614C680.39 718.826 680.39 733.76 670.777 742.972Z" stroke="white" stroke-width="2" stroke-miterlimit="10"/>
<path d="M786.156 519.413L824.95 461.927L884.945 499.099L846.151 556.585L786.156 519.413Z" stroke="white" stroke-width="2" stroke-miterlimit="10"/>
<path d="M604.217 592.409L643.011 534.923L703.006 572.095L664.212 629.581L604.217 592.409Z" stroke="white" stroke-width="2" stroke-miterlimit="10"/>
<path d="M103.052 107.607L96.0706 28.8838L178.229 22.1941L185.211 100.917L103.052 107.607Z" stroke="white" stroke-width="2" stroke-miterlimit="10"/>
<path d="M98.2236 368.122C98.4368 359.625 105.798 352.903 114.666 353.107C123.534 353.311 130.55 360.365 130.336 368.862C130.123 377.359 122.762 384.081 113.894 383.877C105.026 383.673 98.0104 376.619 98.2236 368.122Z" stroke="white" stroke-width="2" stroke-miterlimit="10"/>
<path d="M535.06 450.794L509.499 469.93L529.47 494.425L513.609 506.298L493.633 481.804L468.072 500.94L455.677 485.741L481.243 466.603L461.271 442.111L477.133 430.235L497.104 454.731L522.67 435.593L535.06 450.794Z" stroke="white" stroke-width="2" stroke-miterlimit="10"/>
<path d="M306.637 340.419L303.713 371.373L336.021 374.178L334.205 393.385L301.895 390.585L298.97 421.539L278.921 419.802L281.848 388.842L249.541 386.041L251.355 366.83L283.664 369.636L286.591 338.676L306.637 340.419Z" stroke="white" stroke-width="2" stroke-miterlimit="10"/>
<path d="M471.048 319.125L439.75 327.29L448.27 357.283L428.85 362.349L420.324 332.355L389.026 340.521L383.736 321.909L415.04 313.745L406.517 283.754L425.94 278.686L434.46 308.679L465.764 300.514L471.048 319.125Z" stroke="white" stroke-width="2" stroke-miterlimit="10"/>
<path d="M169.509 442.755L144.3 462.316L164.714 486.474L149.073 498.61L128.653 474.454L103.445 494.014L90.7744 479.025L115.988 459.463L95.5725 435.308L111.216 423.169L131.63 447.327L156.844 427.764L169.509 442.755Z" stroke="white" stroke-width="2" stroke-miterlimit="10"/>
<path d="M242.103 505.197L231.069 545.301L272.926 555.878L266.078 580.76L224.217 570.189L213.183 610.293L187.208 603.733L198.247 563.624L156.391 553.052L163.238 528.164L205.094 538.741L216.133 498.632L242.103 505.197Z" stroke="white" stroke-width="2" stroke-miterlimit="10"/>
<path d="M231.282 340.782C222.468 339.824 216.134 332.201 217.133 323.756C218.133 315.311 226.088 309.241 234.902 310.199C243.716 311.157 250.05 318.78 249.051 327.225C248.051 335.67 240.096 341.74 231.282 340.782Z" stroke="white" stroke-width="2" stroke-miterlimit="10"/>
<path d="M441.861 220.213C433.047 219.255 426.712 211.632 427.712 203.187C428.712 194.742 436.667 188.672 445.481 189.63C454.294 190.588 460.629 198.21 459.629 206.656C458.63 215.101 450.674 221.17 441.861 220.213Z" stroke="white" stroke-width="2" stroke-miterlimit="10"/>
<path d="M485.072 122.132C476.259 121.174 469.924 113.551 470.924 105.106C471.923 96.6606 479.879 90.591 488.693 91.5488C497.506 92.5067 503.841 100.129 502.841 108.575C501.842 117.02 493.886 123.089 485.072 122.132Z" stroke="white" stroke-width="2" stroke-miterlimit="10"/>
<path d="M572.242 513.938C551.87 511.724 537.228 494.105 539.538 474.585C541.849 455.064 560.237 441.035 580.609 443.249C600.981 445.463 615.623 463.082 613.313 482.602C611.002 502.123 592.614 516.152 572.242 513.938Z" stroke="white" stroke-width="2" stroke-miterlimit="10"/>
<path d="M303.428 543.392C283.056 541.178 268.414 523.559 270.725 504.039C273.036 484.519 291.424 470.489 311.796 472.703C332.168 474.917 346.81 492.536 344.499 512.056C342.188 531.577 323.8 545.606 303.428 543.392Z" stroke="white" stroke-width="2" stroke-miterlimit="10"/>
<path d="M106.161 559.192C92.6527 557.724 82.9438 546.041 84.4759 533.097C86.0081 520.153 98.2012 510.85 111.71 512.318C125.219 513.786 134.928 525.47 133.395 538.413C131.863 551.357 119.67 560.66 106.161 559.192Z" stroke="white" stroke-width="2" stroke-miterlimit="10"/>
<path d="M390.241 263.024C379.194 261.824 371.255 252.27 372.508 241.685C373.761 231.099 383.732 223.492 394.779 224.692C405.826 225.893 413.766 235.447 412.513 246.032C411.26 256.617 401.288 264.225 390.241 263.024Z" stroke="white" stroke-width="2" stroke-miterlimit="10"/>
<path d="M490.689 410.835C477.18 409.367 467.471 397.683 469.003 384.74C470.535 371.796 482.728 362.493 496.237 363.961C509.746 365.429 519.455 377.112 517.923 390.056C516.39 403 504.197 412.303 490.689 410.835Z" stroke="white" stroke-width="2" stroke-miterlimit="10"/>
<path d="M345.227 437.941L371.378 374.234L437.865 399.292L411.714 462.999L345.227 437.941Z" stroke="white" stroke-width="2" stroke-miterlimit="10"/>
<path d="M360.529 497.778L431.627 491.048L438.651 559.174L367.552 565.903L360.529 497.778Z" stroke="white" stroke-width="2" stroke-miterlimit="10"/>
<path d="M187.602 406.869L258.7 400.14L265.724 468.265L194.625 474.995L187.602 406.869Z" stroke="white" stroke-width="2" stroke-miterlimit="10"/>
<path d="M280.827 294.026L336.718 251.383L381.222 304.936L325.331 347.579L280.827 294.026Z" stroke="white" stroke-width="2" stroke-miterlimit="10"/>
<path d="M488.786 298.73L544.677 256.087L589.181 309.641L533.29 352.284L488.786 298.73Z" stroke="white" stroke-width="2" stroke-miterlimit="10"/>
<path d="M71.9019 691.654L102.091 703.025L90.2248 731.955L108.956 739.01L120.828 710.08L151.017 721.451L158.383 703.5L128.189 692.128L140.058 663.201L121.323 656.144L109.457 685.074L79.2623 673.703L71.9019 691.654Z" stroke="white" stroke-width="2" stroke-miterlimit="10"/>
<path d="M250.63 695.691L282.374 702.081L275.708 732.501L295.405 736.465L302.077 706.044L333.822 712.434L337.962 693.557L306.211 687.168L312.881 656.75L293.181 652.784L286.514 683.204L254.764 676.815L250.63 695.691Z" stroke="white" stroke-width="2" stroke-miterlimit="10"/>
<path d="M106.861 653.264C109.918 645.285 105.647 636.443 97.32 633.513C88.9933 630.584 79.7646 634.677 76.7073 642.655C73.6499 650.634 77.9215 659.476 86.2482 662.406C94.575 665.335 103.804 661.242 106.861 653.264Z" stroke="white" stroke-width="2" stroke-miterlimit="10"/>
<path d="M144.714 617.365C147.771 609.387 143.499 600.544 135.173 597.615C126.846 594.685 117.617 598.778 114.56 606.757C111.502 614.735 115.774 623.578 124.101 626.507C132.428 629.437 141.656 625.344 144.714 617.365Z" stroke="white" stroke-width="2" stroke-miterlimit="10"/>
<path d="M262.696 779.893C269.763 761.452 259.89 741.013 240.643 734.241C221.397 727.47 200.066 736.931 192.999 755.372C185.932 773.814 195.806 794.253 215.052 801.024C234.298 807.796 255.629 798.335 262.696 779.893Z" stroke="white" stroke-width="2" stroke-miterlimit="10"/>
<path d="M357.813 614.118C362.499 601.889 355.952 588.336 343.189 583.846C330.427 579.356 316.283 585.629 311.597 597.858C306.911 610.087 313.458 623.64 326.22 628.13C338.982 632.62 353.127 626.347 357.813 614.118Z" stroke="white" stroke-width="2" stroke-miterlimit="10"/>
<path d="M145.582 768.424L74.4272 762.265L67.9992 830.444L139.154 836.604L145.582 768.424Z" stroke="white" stroke-width="2" stroke-miterlimit="10"/>
<path d="M194.545 808.352L156.395 866.232L216.801 902.787L254.951 844.906L194.545 808.352Z" stroke="white" stroke-width="2" stroke-miterlimit="10"/>
<path d="M187.256 619.486L149.106 677.366L209.512 713.921L247.662 656.04L187.256 619.486Z" stroke="white" stroke-width="2" stroke-miterlimit="10"/>
<path d="M198.08 375.718L155.475 382.767L148.119 341.944L190.724 334.895L198.08 375.718Z" stroke="white" stroke-width="2" stroke-miterlimit="10"/>
<path d="M165.502 131.311L150.497 150.605L130.357 136.228L121.048 148.2L141.186 162.581L126.181 181.876L138.677 190.8L153.684 171.501L173.82 185.88L183.133 173.906L162.993 159.529L178 140.23L165.502 131.311Z" stroke="white" stroke-width="2" stroke-miterlimit="10"/>
<path d="M85.8357 318.317C83.5413 326.527 88.6274 334.965 97.1959 337.163C105.764 339.361 114.57 334.488 116.865 326.278C119.159 318.068 114.073 309.63 105.505 307.431C96.9362 305.233 88.1301 310.106 85.8357 318.317Z" stroke="white" stroke-width="2" stroke-miterlimit="10"/>
<path d="M245.648 248.655C242.772 258.945 249.147 269.521 259.886 272.277C270.626 275.032 281.663 268.924 284.539 258.634C287.415 248.343 281.04 237.767 270.3 235.012C259.561 232.256 248.524 238.365 245.648 248.655Z" stroke="white" stroke-width="2" stroke-miterlimit="10"/>
<path d="M137.467 304.852L199.334 270.613L163.602 211.333L101.734 245.571L137.467 304.852Z" stroke="white" stroke-width="2" stroke-miterlimit="10"/>
<path d="M544.971 810.971L519.707 791.476L499.357 815.684L483.682 803.588L504.029 779.375L478.765 759.88L491.39 744.856L516.657 764.355L537.002 740.146L552.681 752.244L532.332 776.452L557.599 795.951L544.971 810.971Z" stroke="white" stroke-width="2" stroke-miterlimit="10"/>
<path d="M532.115 644.881L529.102 613.934L496.802 616.819L494.933 597.617L527.235 594.727L524.222 563.78L544.266 561.987L547.278 592.94L579.576 590.052L581.446 609.257L549.146 612.141L552.157 643.094L532.115 644.881Z" stroke="white" stroke-width="2" stroke-miterlimit="10"/>
<path d="M452.771 664.207L431.253 640.95L406.976 661.569L393.625 647.138L417.899 626.514L396.381 603.256L411.443 590.459L432.964 613.722L457.236 593.101L470.591 607.534L446.315 628.153L467.836 651.415L452.771 664.207Z" stroke="white" stroke-width="2" stroke-miterlimit="10"/>
<path d="M562.457 762.856C568.175 756.358 578.308 755.533 585.089 761.013C591.87 766.492 592.731 776.201 587.012 782.699C581.294 789.196 571.161 790.021 564.38 784.541C557.599 779.062 556.738 769.353 562.457 762.856Z" stroke="white" stroke-width="2" stroke-miterlimit="10"/>
<path d="M370.459 695.876C383.677 680.858 407.098 678.951 422.771 691.617C438.444 704.282 440.434 726.724 427.216 741.741C413.998 756.759 390.577 758.666 374.904 746.001C359.231 733.336 357.241 710.894 370.459 695.876Z" stroke="white" stroke-width="2" stroke-miterlimit="10"/>
<path d="M473.628 534.583C482.392 524.625 497.923 523.36 508.316 531.759C518.708 540.157 520.028 555.038 511.263 564.996C502.498 574.955 486.968 576.219 476.575 567.821C466.182 559.422 464.863 544.541 473.628 534.583Z" stroke="white" stroke-width="2" stroke-miterlimit="10"/>
<path d="M438.873 787.674L479.706 843.849L421.08 882.974L380.246 826.8L438.873 787.674Z" stroke="white" stroke-width="2" stroke-miterlimit="10"/>
<path d="M378.419 766.7L344.844 827.128L281.78 794.957L315.354 734.53L378.419 766.7Z" stroke="white" stroke-width="2" stroke-miterlimit="10"/>
<path d="M553.253 679.206L519.679 739.634L456.614 707.463L490.189 647.036L553.253 679.206Z" stroke="white" stroke-width="2" stroke-miterlimit="10"/>
<path d="M256.988 108.143L288.732 114.533L282.066 144.953L301.762 148.917L308.435 118.496L340.18 124.886L344.32 106.009L312.569 99.62L319.239 69.2018L299.539 65.2357L292.872 95.6562L261.122 89.2672L256.988 108.143Z" stroke="white" stroke-width="2" stroke-miterlimit="10"/>
<path d="M269.054 192.345C276.121 173.904 266.248 153.465 247.001 146.693C227.755 139.922 206.424 149.383 199.357 167.824C192.29 186.266 202.164 206.705 221.41 213.476C240.657 220.248 261.988 210.787 269.054 192.345Z" stroke="white" stroke-width="2" stroke-miterlimit="10"/>
<path d="M278.543 46.0446C285.61 27.603 275.736 7.16393 256.49 0.392616C237.243 -6.3787 215.912 3.08193 208.845 21.5235C201.779 39.9651 211.652 60.4043 230.898 67.1756C250.145 73.9469 271.476 64.4862 278.543 46.0446Z" stroke="white" stroke-width="2" stroke-miterlimit="10"/>
<path d="M364.171 26.5692C368.857 14.3406 362.31 0.787567 349.547 -3.70247C336.785 -8.1925 322.64 -1.91919 317.954 10.3094C313.268 22.5379 319.816 36.0911 332.578 40.5811C345.34 45.0711 359.485 38.7978 364.171 26.5692Z" stroke="white" stroke-width="2" stroke-miterlimit="10"/>
<path d="M541.113 226.951L515.849 207.456L495.5 231.664L479.825 219.568L500.172 195.355L474.907 175.861L487.533 160.836L512.8 180.336L533.145 156.127L548.824 168.224L528.475 192.432L553.742 211.932L541.113 226.951Z" stroke="white" stroke-width="2" stroke-miterlimit="10"/>
<path d="M538.474 57.3334L535.461 26.3864L503.16 29.271L501.292 10.0694L533.594 7.17941L530.581 -23.7675L550.625 -25.5605L553.636 5.39186L585.935 2.50377L587.805 21.7089L555.505 24.5934L558.516 55.5458L538.474 57.3334Z" stroke="white" stroke-width="2" stroke-miterlimit="10"/>
<path d="M459.131 76.6583L437.612 53.401L413.336 74.0199L399.985 59.5889L424.259 38.9647L402.74 15.7074L417.802 2.91011L439.323 26.1728L463.595 5.55217L476.95 19.9848L452.674 40.6037L474.195 63.8664L459.131 76.6583Z" stroke="white" stroke-width="2" stroke-miterlimit="10"/>
<path d="M376.817 108.328C390.035 93.3099 413.456 91.4029 429.129 104.068C444.802 116.733 446.792 139.175 433.574 154.193C420.356 169.21 396.935 171.118 381.262 158.452C365.589 145.787 363.599 123.345 376.817 108.328Z" stroke="white" stroke-width="2" stroke-miterlimit="10"/>
<path d="M384.777 179.152L351.203 239.579L288.138 207.408L321.713 146.981L384.777 179.152Z" stroke="white" stroke-width="2" stroke-miterlimit="10"/>
<path d="M626.577 94.7035L593.002 155.131L529.938 122.96L563.513 62.5328L626.577 94.7035Z" stroke="white" stroke-width="2" stroke-miterlimit="10"/>
<path d="M599.575 816.112L605.624 884.324L534.436 890.121L528.387 821.909L599.575 816.112Z" stroke="white" stroke-width="2" stroke-miterlimit="10"/>
</g>
<rect y="940.886" width="1946.94" height="955.904" fill="#F3F3F3"/>
<g opacity="0.5">
<path d="M1897.93 1797.1L1874.48 1775.63L1852.07 1798.1L1837.52 1784.77L1859.93 1762.3L1836.48 1740.82L1850.39 1726.88L1873.84 1748.36L1896.25 1725.88L1910.8 1739.21L1888.39 1761.68L1911.84 1783.16L1897.93 1797.1Z" stroke="white" stroke-width="2" stroke-miterlimit="10"/>
<path d="M1899.8 1630.56L1899.53 1599.48L1867.09 1599.74L1866.93 1580.45L1899.37 1580.19L1899.1 1549.11L1919.23 1548.95L1919.5 1580.04L1951.94 1579.78L1952.1 1599.07L1919.66 1599.32L1919.93 1630.41L1899.8 1630.56Z" stroke="white" stroke-width="2" stroke-miterlimit="10"/>
<path d="M1819.03 1643.38L1799.65 1618.46L1773.64 1637.04L1761.61 1621.58L1787.62 1603L1768.23 1578.08L1784.37 1566.55L1803.76 1591.47L1829.77 1572.89L1841.8 1588.36L1815.79 1606.93L1835.17 1631.86L1819.03 1643.38Z" stroke="white" stroke-width="2" stroke-miterlimit="10"/>
<path d="M1919.61 1750.58C1925.88 1744.57 1936.05 1744.57 1942.32 1750.58C1948.59 1756.59 1948.59 1766.33 1942.32 1772.34C1936.05 1778.35 1925.88 1778.35 1919.61 1772.34C1913.34 1766.33 1913.34 1756.59 1919.61 1750.58Z" stroke="white" stroke-width="2" stroke-miterlimit="10"/>
<path d="M1734.22 1668.26C1748.71 1654.37 1772.22 1654.37 1786.72 1668.26C1801.21 1682.15 1801.21 1704.67 1786.72 1718.57C1772.22 1732.46 1748.71 1732.46 1734.22 1718.57C1719.72 1704.67 1719.72 1682.15 1734.22 1668.26Z" stroke="white" stroke-width="2" stroke-miterlimit="10"/>
<path d="M1851.27 1515.92C1860.88 1506.71 1876.47 1506.71 1886.08 1515.92C1895.7 1525.13 1895.7 1540.06 1886.08 1549.27C1876.47 1558.49 1860.88 1558.49 1851.27 1549.27C1841.66 1540.06 1841.66 1525.13 1851.27 1515.92Z" stroke="white" stroke-width="2" stroke-miterlimit="10"/>
<path d="M1794.27 1765.28L1830 1824.56L1768.12 1858.79L1732.4 1799.51L1794.27 1765.28Z" stroke="white" stroke-width="2" stroke-miterlimit="10"/>
<path d="M1729.62 1562.52L1729.62 1641.53L1647.16 1641.53L1647.16 1562.52L1729.62 1562.52Z" stroke="white" stroke-width="2" stroke-miterlimit="10"/>
<path d="M1735.89 1739.48L1697.1 1796.96L1637.1 1759.79L1675.9 1702.3L1735.89 1739.48Z" stroke="white" stroke-width="2" stroke-miterlimit="10"/>
<path d="M1917.83 1666.48L1879.03 1723.97L1819.04 1686.8L1857.83 1629.31L1917.83 1666.48Z" stroke="white" stroke-width="2" stroke-miterlimit="10"/>
<path d="M1770.34 1277.35L1802.66 1280.02L1805.46 1249.05L1825.51 1250.71L1822.72 1281.68L1855.04 1284.36L1853.31 1303.58L1820.98 1300.9L1818.19 1331.87L1798.14 1330.21L1800.93 1299.24L1768.61 1296.56L1770.34 1277.35Z" stroke="white" stroke-width="2" stroke-miterlimit="10"/>
<path d="M1877.71 1408.32L1898.23 1432.39L1923.36 1412.73L1936.09 1427.67L1910.96 1447.33L1931.48 1471.41L1915.89 1483.61L1895.37 1459.53L1870.25 1479.19L1857.51 1464.25L1882.64 1444.59L1862.12 1420.51L1877.71 1408.32Z" stroke="white" stroke-width="2" stroke-miterlimit="10"/>
<path d="M1932.31 1349.87L1963.71 1357.66L1971.85 1327.58L1991.34 1332.42L1983.2 1362.51L2014.6 1370.31L2009.55 1388.98L1978.14 1381.18L1970 1411.27L1950.52 1406.43L1958.66 1376.34L1927.26 1368.53L1932.31 1349.87Z" stroke="white" stroke-width="2" stroke-miterlimit="10"/>
<path d="M1757.45 1303.33C1756.49 1311.78 1748.56 1317.88 1739.74 1316.96C1730.92 1316.03 1724.55 1308.44 1725.52 1299.99C1726.48 1291.54 1734.41 1285.44 1743.23 1286.36C1752.04 1287.28 1758.41 1294.88 1757.45 1303.33Z" stroke="white" stroke-width="2" stroke-miterlimit="10"/>
<path d="M1982.19 1279.58C1979.96 1299.11 1961.63 1313.22 1941.25 1311.08C1920.87 1308.95 1906.15 1291.39 1908.38 1271.86C1910.61 1252.33 1928.93 1238.23 1949.31 1240.36C1969.7 1242.49 1984.41 1260.05 1982.19 1279.58Z" stroke="white" stroke-width="2" stroke-miterlimit="10"/>
<path d="M1973.41 1530.48C1971.93 1543.43 1959.78 1552.78 1946.27 1551.37C1932.75 1549.95 1922.99 1538.31 1924.47 1525.36C1925.94 1512.41 1938.1 1503.06 1951.61 1504.47C1965.13 1505.89 1974.89 1517.53 1973.41 1530.48Z" stroke="white" stroke-width="2" stroke-miterlimit="10"/>
<path d="M1871.96 1239.97L1805.37 1215.17L1831.24 1151.36L1897.84 1176.16L1871.96 1239.97Z" stroke="white" stroke-width="2" stroke-miterlimit="10"/>
<path d="M1833.41 1104.8L1790.17 1104.63L1790.35 1063.2L1833.58 1063.37L1833.41 1104.8Z" stroke="white" stroke-width="2" stroke-miterlimit="10"/>
<path d="M1840.19 1391.13L1832.87 1323.03L1903.94 1316.02L1911.26 1384.12L1840.19 1391.13Z" stroke="white" stroke-width="2" stroke-miterlimit="10"/>
<path d="M1329.49 1185.51L1356.65 1168.52L1338.91 1142.49L1355.76 1131.95L1373.5 1157.98L1400.67 1140.98L1411.67 1157.13L1384.51 1174.13L1402.24 1200.15L1385.39 1210.7L1367.65 1184.67L1340.49 1201.67L1329.49 1185.51Z" stroke="white" stroke-width="2" stroke-miterlimit="10"/>
<path d="M1547.34 1314.02L1552.98 1283.42L1521.04 1278L1524.55 1259.01L1556.49 1264.42L1562.14 1233.82L1581.97 1237.18L1576.31 1267.79L1608.26 1273.2L1604.75 1292.19L1572.81 1286.78L1567.16 1317.39L1547.34 1314.02Z" stroke="white" stroke-width="2" stroke-miterlimit="10"/>
<path d="M1381.63 1321.9L1413.54 1316.31L1407.7 1285.73L1427.5 1282.26L1433.34 1312.84L1465.25 1307.24L1468.88 1326.21L1436.96 1331.81L1442.81 1362.38L1423.01 1365.86L1417.17 1335.28L1385.25 1340.88L1381.63 1321.9Z" stroke="white" stroke-width="2" stroke-miterlimit="10"/>
<path d="M1693.01 1223.18L1719.86 1205.74L1701.65 1180.01L1718.31 1169.18L1736.52 1194.91L1763.37 1177.47L1774.67 1193.43L1747.82 1210.88L1766.03 1236.6L1749.37 1247.43L1731.16 1221.7L1704.31 1239.15L1693.01 1223.18Z" stroke="white" stroke-width="2" stroke-miterlimit="10"/>
<path d="M1626.2 1155.07L1640.74 1116.01L1599.97 1102.08L1608.99 1077.84L1649.76 1091.77L1664.3 1052.7L1689.6 1061.35L1675.06 1100.42L1715.83 1114.35L1706.81 1138.59L1666.04 1124.65L1651.5 1163.72L1626.2 1155.07Z" stroke="white" stroke-width="2" stroke-miterlimit="10"/>
<path d="M1622.45 1319.78C1631.15 1321.45 1636.79 1329.56 1635.04 1337.89C1633.3 1346.22 1624.84 1351.63 1616.14 1349.96C1607.44 1348.29 1601.81 1340.18 1603.55 1331.84C1605.29 1323.51 1613.75 1318.11 1622.45 1319.78Z" stroke="white" stroke-width="2" stroke-miterlimit="10"/>
<path d="M1401.97 1422.83C1410.67 1424.5 1416.31 1432.61 1414.57 1440.94C1412.83 1449.27 1404.36 1454.68 1395.67 1453.01C1386.97 1451.34 1381.33 1443.23 1383.07 1434.89C1384.81 1426.56 1393.28 1421.16 1401.97 1422.83Z" stroke="white" stroke-width="2" stroke-miterlimit="10"/>
<path d="M1568.47 1112.04C1588.57 1115.9 1601.6 1134.64 1597.58 1153.91C1593.55 1173.17 1573.99 1185.66 1553.88 1181.8C1533.78 1177.94 1520.75 1159.2 1524.78 1139.93C1528.8 1120.67 1548.37 1108.18 1568.47 1112.04Z" stroke="white" stroke-width="2" stroke-miterlimit="10"/>
<path d="M1766.42 1112.3C1779.75 1114.86 1788.4 1127.29 1785.73 1140.06C1783.05 1152.84 1770.08 1161.12 1756.75 1158.56C1743.42 1156 1734.78 1143.57 1737.45 1130.8C1740.12 1118.02 1753.09 1109.74 1766.42 1112.3Z" stroke="white" stroke-width="2" stroke-miterlimit="10"/>
<path d="M1457.19 1384.36C1468.09 1386.45 1475.16 1396.62 1472.98 1407.06C1470.79 1417.51 1460.19 1424.28 1449.28 1422.19C1438.38 1420.09 1431.32 1409.93 1433.5 1399.48C1435.68 1389.04 1446.29 1382.27 1457.19 1384.36Z" stroke="white" stroke-width="2" stroke-miterlimit="10"/>
<path d="M1370.17 1228.93C1383.5 1231.49 1392.14 1243.92 1389.47 1256.69C1386.8 1269.46 1373.83 1277.74 1360.5 1275.19C1347.17 1272.63 1338.52 1260.2 1341.2 1247.43C1343.87 1234.65 1356.84 1226.37 1370.17 1228.93Z" stroke="white" stroke-width="2" stroke-miterlimit="10"/>
<path d="M1517.5 1213.72L1485.82 1275.08L1421.78 1244.72L1453.47 1183.36L1517.5 1213.72Z" stroke="white" stroke-width="2" stroke-miterlimit="10"/>
<path d="M1507.54 1152.86L1436.11 1153.8L1435.13 1085.35L1506.57 1084.41L1507.54 1152.86Z" stroke="white" stroke-width="2" stroke-miterlimit="10"/>
<path d="M1671.82 1257.47L1600.38 1258.41L1599.4 1189.96L1670.84 1189.02L1671.82 1257.47Z" stroke="white" stroke-width="2" stroke-miterlimit="10"/>
<path d="M1568.95 1362.34L1509.49 1400.3L1469.88 1343.33L1529.34 1305.37L1568.95 1362.34Z" stroke="white" stroke-width="2" stroke-miterlimit="10"/>
<path d="M1812.27 983.096L1783.19 969.317L1797.57 941.453L1779.53 932.904L1765.14 960.767L1736.07 946.988L1727.14 964.277L1756.22 978.057L1741.84 1005.92L1759.88 1014.47L1774.26 986.606L1803.34 1000.39L1812.27 983.096Z" stroke="white" stroke-width="2" stroke-miterlimit="10"/>
<path d="M1969.4 1083.78L1934.64 1070.52L1948.47 1037.22L1926.91 1029L1913.07 1062.3L1878.32 1049.05L1869.73 1069.71L1904.49 1082.97L1890.66 1116.27L1912.23 1124.5L1926.06 1091.19L1960.82 1104.44L1969.4 1083.78Z" stroke="white" stroke-width="2" stroke-miterlimit="10"/>
<path d="M1634.54 964.573L1603.47 955.63L1612.8 925.86L1593.53 920.312L1584.19 950.083L1553.12 941.141L1547.33 959.614L1578.4 968.556L1569.07 998.324L1588.35 1003.87L1597.68 974.103L1628.75 983.045L1634.54 964.573Z" stroke="white" stroke-width="2" stroke-miterlimit="10"/>
<path d="M1774.04 1018.51C1770.29 1026.21 1773.76 1035.37 1781.8 1038.97C1789.84 1042.56 1799.4 1039.23 1803.15 1031.53C1806.9 1023.83 1803.42 1014.67 1795.39 1011.08C1787.35 1007.48 1777.79 1010.81 1774.04 1018.51Z" stroke="white" stroke-width="2" stroke-miterlimit="10"/>
<path d="M1733.15 1051.21C1729.4 1058.91 1732.87 1068.07 1740.91 1071.66C1748.95 1075.26 1758.51 1071.93 1762.26 1064.23C1766.01 1056.53 1762.54 1047.37 1754.5 1043.77C1746.46 1040.18 1736.9 1043.51 1733.15 1051.21Z" stroke="white" stroke-width="2" stroke-miterlimit="10"/>
<path d="M1520.53 1037.16C1514.78 1048.96 1520.11 1063 1532.43 1068.51C1544.75 1074.02 1559.39 1068.91 1565.14 1057.11C1570.89 1045.3 1565.57 1031.27 1553.25 1025.76C1540.93 1020.25 1526.28 1025.35 1520.53 1037.16Z" stroke="white" stroke-width="2" stroke-miterlimit="10"/>
<path d="M1924.81 955.212C1920.11 964.866 1924.47 976.344 1934.54 980.849C1944.62 985.354 1956.59 981.181 1961.3 971.528C1966 961.874 1961.64 950.396 1951.57 945.891C1941.49 941.386 1929.52 945.559 1924.81 955.212Z" stroke="white" stroke-width="2" stroke-miterlimit="10"/>
<path d="M1690.95 1045.65L1734.08 991.068L1677.12 949.744L1633.99 1004.32L1690.95 1045.65Z" stroke="white" stroke-width="2" stroke-miterlimit="10"/>
<path d="M1840.07 1028.42L1907.22 1005.02L1882.8 940.688L1815.66 964.08L1840.07 1028.42Z" stroke="white" stroke-width="2" stroke-miterlimit="10"/>
<path d="M1658.62 1287.66L1701.7 1284.09L1705.42 1325.37L1662.34 1328.93L1658.62 1287.66Z" stroke="white" stroke-width="2" stroke-miterlimit="10"/>
<path d="M1744.71 1405.93L1774.96 1417.14L1763.26 1446.13L1782.04 1453.09L1793.74 1424.09L1823.99 1435.31L1831.26 1417.32L1801 1406.1L1812.7 1377.11L1793.93 1370.16L1782.23 1399.15L1751.97 1387.94L1744.71 1405.93Z" stroke="white" stroke-width="2" stroke-miterlimit="10"/>
<path d="M1669.48 1533.83L1686.14 1515.83L1704.94 1531.79L1715.27 1520.61L1696.48 1504.65L1713.13 1486.64L1701.47 1476.73L1684.81 1494.75L1666.02 1478.79L1655.68 1489.96L1674.48 1505.92L1657.82 1523.93L1669.48 1533.83Z" stroke="white" stroke-width="2" stroke-miterlimit="10"/>
<path d="M1765.39 1353.96C1768.4 1345.97 1764.08 1337.15 1755.74 1334.26C1747.39 1331.38 1738.19 1335.52 1735.18 1343.51C1732.17 1351.51 1736.49 1360.33 1744.83 1363.21C1753.17 1366.1 1762.38 1361.96 1765.39 1353.96Z" stroke="white" stroke-width="2" stroke-miterlimit="10"/>
<path d="M1600 1410.41C1603.77 1400.39 1598.35 1389.33 1587.9 1385.72C1577.44 1382.1 1565.9 1387.29 1562.13 1397.31C1558.35 1407.33 1563.77 1418.39 1574.23 1422C1584.68 1425.62 1596.22 1420.43 1600 1410.41Z" stroke="white" stroke-width="2" stroke-miterlimit="10"/>
<path d="M1818.83 1482.31L1747.64 1476.52L1741.6 1544.73L1812.79 1550.52L1818.83 1482.31Z" stroke="white" stroke-width="2" stroke-miterlimit="10"/>
<path d="M1712.75 1363.19L1648.08 1392.29L1678.45 1454.25L1743.12 1425.16L1712.75 1363.19Z" stroke="white" stroke-width="2" stroke-miterlimit="10"/>
<path d="M1349.57 992.362L1349.84 1023.44L1382.28 1023.19L1382.44 1042.47L1350 1042.73L1350.27 1073.81L1330.14 1073.97L1329.87 1042.89L1297.44 1043.14L1297.27 1023.86L1329.71 1023.6L1329.44 992.517L1349.57 992.362Z" stroke="white" stroke-width="2" stroke-miterlimit="10"/>
<path d="M1430.34 979.544L1449.72 1004.46L1475.74 985.888L1487.76 1001.35L1461.75 1019.93L1481.14 1044.85L1465 1056.38L1445.61 1031.45L1419.61 1050.03L1407.57 1034.57L1433.59 1015.99L1414.2 991.067L1430.34 979.544Z" stroke="white" stroke-width="2" stroke-miterlimit="10"/>
<path d="M1398.1 1107.01C1388.49 1116.22 1372.9 1116.22 1363.29 1107.01C1353.68 1097.8 1353.68 1082.86 1363.29 1073.65C1372.9 1064.44 1388.49 1064.44 1398.1 1073.65C1407.72 1082.86 1407.72 1097.8 1398.1 1107.01Z" stroke="white" stroke-width="2" stroke-miterlimit="10"/>
<path d="M1331.54 956.446L1370.34 898.96L1430.33 936.132L1391.54 993.618L1331.54 956.446Z" stroke="white" stroke-width="2" stroke-miterlimit="10"/>
<path d="M1271.23 1770.44L1298.39 1753.44L1280.66 1727.42L1297.51 1716.87L1315.25 1742.9L1342.41 1725.91L1353.42 1742.06L1326.25 1759.05L1343.99 1785.08L1327.13 1795.62L1309.4 1769.59L1282.23 1786.59L1271.23 1770.44Z" stroke="white" stroke-width="2" stroke-miterlimit="10"/>
<path d="M1567.94 1740L1582.48 1700.93L1541.71 1687L1550.73 1662.76L1591.51 1676.69L1606.05 1637.63L1631.35 1646.27L1616.8 1685.34L1657.58 1699.27L1648.55 1723.51L1607.78 1709.58L1593.24 1748.65L1567.94 1740Z" stroke="white" stroke-width="2" stroke-miterlimit="10"/>
<path d="M1510.21 1696.96C1530.32 1700.82 1543.35 1719.57 1539.32 1738.83C1535.29 1758.09 1515.73 1770.58 1495.63 1766.72C1475.53 1762.86 1462.49 1744.12 1466.52 1724.86C1470.55 1705.59 1490.11 1693.11 1510.21 1696.96Z" stroke="white" stroke-width="2" stroke-miterlimit="10"/>
<path d="M1459.25 1798.64L1427.56 1860L1363.53 1829.64L1395.21 1768.28L1459.25 1798.64Z" stroke="white" stroke-width="2" stroke-miterlimit="10"/>
<path d="M1449.29 1737.78L1377.85 1738.72L1376.87 1670.27L1448.31 1669.33L1449.29 1737.78Z" stroke="white" stroke-width="2" stroke-miterlimit="10"/>
<path d="M1613.56 1842.39L1542.12 1843.33L1541.14 1774.88L1612.58 1773.94L1613.56 1842.39Z" stroke="white" stroke-width="2" stroke-miterlimit="10"/>
<path d="M1576.28 1549.5L1545.21 1540.55L1554.55 1510.78L1535.27 1505.23L1525.93 1535.01L1494.87 1526.06L1489.07 1544.54L1520.15 1553.48L1510.81 1583.25L1530.09 1588.8L1539.42 1559.03L1570.49 1567.97L1576.28 1549.5Z" stroke="white" stroke-width="2" stroke-miterlimit="10"/>
<path d="M1571.7 1464.62C1563.03 1482.42 1571.06 1503.59 1589.64 1511.89C1608.22 1520.2 1630.31 1512.51 1638.98 1494.7C1647.65 1476.9 1639.62 1455.74 1621.04 1447.43C1602.46 1439.12 1580.37 1446.81 1571.7 1464.62Z" stroke="white" stroke-width="2" stroke-miterlimit="10"/>
<path d="M1462.27 1622.08C1456.52 1633.88 1461.85 1647.92 1474.17 1653.43C1486.49 1658.94 1501.14 1653.84 1506.89 1642.03C1512.64 1630.23 1507.31 1616.19 1494.99 1610.68C1482.67 1605.17 1468.02 1610.28 1462.27 1622.08Z" stroke="white" stroke-width="2" stroke-miterlimit="10"/>
<path d="M1293.18 1410.75L1316.63 1432.22L1339.05 1409.75L1353.6 1423.08L1331.19 1445.55L1354.64 1467.03L1340.73 1480.97L1317.28 1459.49L1294.86 1481.97L1280.31 1468.64L1302.73 1446.17L1279.27 1424.69L1293.18 1410.75Z" stroke="white" stroke-width="2" stroke-miterlimit="10"/>
<path d="M1372.08 1564.47L1391.47 1589.39L1417.48 1570.81L1429.51 1586.27L1403.5 1604.85L1422.88 1629.77L1406.74 1641.3L1387.36 1616.38L1361.35 1634.95L1349.32 1619.49L1375.33 1600.91L1355.94 1575.99L1372.08 1564.47Z" stroke="white" stroke-width="2" stroke-miterlimit="10"/>
<path d="M1456.9 1539.59C1442.4 1553.48 1418.9 1553.48 1404.4 1539.59C1389.9 1525.7 1389.9 1503.17 1404.4 1489.28C1418.9 1475.39 1442.4 1475.39 1456.9 1489.28C1471.4 1503.17 1471.4 1525.7 1456.9 1539.59Z" stroke="white" stroke-width="2" stroke-miterlimit="10"/>
<path d="M1339.85 1691.93C1330.23 1701.14 1314.65 1701.14 1305.03 1691.93C1295.42 1682.72 1295.42 1667.79 1305.03 1658.57C1314.65 1649.36 1330.23 1649.36 1339.85 1658.57C1349.46 1667.79 1349.46 1682.72 1339.85 1691.93Z" stroke="white" stroke-width="2" stroke-miterlimit="10"/>
<path d="M1455.23 1468.37L1494.02 1410.89L1554.01 1448.06L1515.22 1505.55L1455.23 1468.37Z" stroke="white" stroke-width="2" stroke-miterlimit="10"/>
<path d="M1228.86 1797.1L1205.41 1775.63L1183 1798.1L1168.45 1784.77L1190.86 1762.3L1167.41 1740.82L1181.32 1726.88L1204.77 1748.36L1227.18 1725.88L1241.74 1739.21L1219.32 1761.68L1242.77 1783.16L1228.86 1797.1Z" stroke="white" stroke-width="2" stroke-miterlimit="10"/>
<path d="M1230.73 1630.56L1230.46 1599.48L1198.02 1599.74L1197.86 1580.45L1230.3 1580.19L1230.03 1549.11L1250.16 1548.95L1250.43 1580.04L1282.87 1579.78L1283.03 1599.07L1250.59 1599.32L1250.86 1630.41L1230.73 1630.56Z" stroke="white" stroke-width="2" stroke-miterlimit="10"/>
<path d="M1149.96 1643.38L1130.58 1618.46L1104.57 1637.04L1092.54 1621.58L1118.55 1603L1099.16 1578.08L1115.3 1566.55L1134.69 1591.47L1160.7 1572.89L1172.73 1588.36L1146.72 1606.93L1166.1 1631.86L1149.96 1643.38Z" stroke="white" stroke-width="2" stroke-miterlimit="10"/>
<path d="M1065.15 1668.26C1079.64 1654.37 1103.15 1654.37 1117.65 1668.26C1132.14 1682.15 1132.14 1704.67 1117.65 1718.57C1103.15 1732.46 1079.64 1732.46 1065.15 1718.57C1050.65 1704.67 1050.65 1682.15 1065.15 1668.26Z" stroke="white" stroke-width="2" stroke-miterlimit="10"/>
<path d="M1182.2 1515.92C1191.81 1506.71 1207.4 1506.71 1217.01 1515.92C1226.63 1525.13 1226.63 1540.06 1217.01 1549.27C1207.4 1558.49 1191.81 1558.49 1182.2 1549.27C1172.59 1540.06 1172.59 1525.13 1182.2 1515.92Z" stroke="white" stroke-width="2" stroke-miterlimit="10"/>
<path d="M1125.2 1765.28L1160.93 1824.56L1099.05 1858.79L1063.33 1799.51L1125.2 1765.28Z" stroke="white" stroke-width="2" stroke-miterlimit="10"/>
<path d="M1060.55 1562.52L1060.55 1641.53L978.092 1641.53L978.092 1562.52L1060.55 1562.52Z" stroke="white" stroke-width="2" stroke-miterlimit="10"/>
<path d="M1066.82 1739.48L1028.03 1796.96L968.032 1759.79L1006.83 1702.3L1066.82 1739.48Z" stroke="white" stroke-width="2" stroke-miterlimit="10"/>
<path d="M1248.76 1666.48L1209.97 1723.97L1149.97 1686.8L1188.76 1629.31L1248.76 1666.48Z" stroke="white" stroke-width="2" stroke-miterlimit="10"/>
<path d="M1101.27 1277.35L1133.59 1280.02L1136.39 1249.05L1156.44 1250.71L1153.65 1281.68L1185.97 1284.36L1184.24 1303.58L1151.91 1300.9L1149.12 1331.87L1129.07 1330.21L1131.86 1299.24L1099.54 1296.56L1101.27 1277.35Z" stroke="white" stroke-width="2" stroke-miterlimit="10"/>
<path d="M1208.64 1408.32L1229.16 1432.39L1254.29 1412.73L1267.02 1427.67L1241.89 1447.33L1262.41 1471.41L1246.82 1483.61L1226.3 1459.53L1201.18 1479.19L1188.44 1464.25L1213.57 1444.59L1193.05 1420.51L1208.64 1408.32Z" stroke="white" stroke-width="2" stroke-miterlimit="10"/>
<path d="M1263.24 1349.87L1294.64 1357.66L1302.78 1327.58L1322.27 1332.42L1314.13 1362.51L1345.53 1370.31L1340.48 1388.98L1309.07 1381.18L1300.93 1411.27L1281.45 1406.43L1289.59 1376.34L1258.19 1368.53L1263.24 1349.87Z" stroke="white" stroke-width="2" stroke-miterlimit="10"/>
<path d="M1088.38 1303.33C1087.42 1311.78 1079.49 1317.88 1070.67 1316.96C1061.85 1316.03 1055.48 1308.44 1056.45 1299.99C1057.41 1291.54 1065.34 1285.44 1074.16 1286.36C1082.98 1287.28 1089.34 1294.88 1088.38 1303.33Z" stroke="white" stroke-width="2" stroke-miterlimit="10"/>
<path d="M1313.12 1279.58C1310.89 1299.11 1292.56 1313.22 1272.18 1311.08C1251.8 1308.95 1237.08 1291.39 1239.31 1271.86C1241.54 1252.33 1259.86 1238.23 1280.25 1240.36C1300.63 1242.49 1315.34 1260.05 1313.12 1279.58Z" stroke="white" stroke-width="2" stroke-miterlimit="10"/>
<path d="M1304.34 1530.48C1302.86 1543.43 1290.71 1552.78 1277.2 1551.37C1263.68 1549.95 1253.92 1538.31 1255.4 1525.36C1256.88 1512.41 1269.03 1503.06 1282.54 1504.47C1296.06 1505.89 1305.82 1517.53 1304.34 1530.48Z" stroke="white" stroke-width="2" stroke-miterlimit="10"/>
<path d="M1202.89 1239.97L1136.3 1215.17L1162.18 1151.36L1228.77 1176.16L1202.89 1239.97Z" stroke="white" stroke-width="2" stroke-miterlimit="10"/>
<path d="M1164.34 1104.8L1121.1 1104.63L1121.28 1063.2L1164.51 1063.37L1164.34 1104.8Z" stroke="white" stroke-width="2" stroke-miterlimit="10"/>
<path d="M1265.28 1225.06L1257.96 1156.96L1329.03 1149.95L1336.35 1218.05L1265.28 1225.06Z" stroke="white" stroke-width="2" stroke-miterlimit="10"/>
<path d="M1171.12 1391.13L1163.8 1323.03L1234.87 1316.02L1242.19 1384.12L1171.12 1391.13Z" stroke="white" stroke-width="2" stroke-miterlimit="10"/>
<path d="M660.417 1185.51L687.577 1168.52L669.843 1142.49L686.696 1131.95L704.436 1157.98L731.596 1140.98L742.603 1157.13L715.438 1174.13L733.174 1200.15L716.32 1210.7L698.585 1184.67L671.419 1201.67L660.417 1185.51Z" stroke="white" stroke-width="2" stroke-miterlimit="10"/>
<path d="M878.266 1314.02L883.915 1283.42L851.971 1278L855.477 1259.01L887.425 1264.42L893.074 1233.82L912.898 1237.18L907.245 1267.79L939.188 1273.2L935.683 1292.19L903.739 1286.78L898.086 1317.39L878.266 1314.02Z" stroke="white" stroke-width="2" stroke-miterlimit="10"/>
<path d="M712.564 1321.9L744.471 1316.31L738.633 1285.73L758.43 1282.26L764.275 1312.84L796.182 1307.24L799.809 1326.21L767.895 1331.81L773.738 1362.38L753.937 1365.86L748.098 1335.28L716.184 1340.88L712.564 1321.9Z" stroke="white" stroke-width="2" stroke-miterlimit="10"/>
<path d="M1023.95 1223.18L1050.79 1205.74L1032.59 1180.01L1049.24 1169.18L1067.45 1194.91L1094.3 1177.47L1105.6 1193.43L1078.75 1210.88L1096.96 1236.6L1080.3 1247.43L1062.09 1221.7L1035.24 1239.15L1023.95 1223.18Z" stroke="white" stroke-width="2" stroke-miterlimit="10"/>
<path d="M957.129 1155.07L971.668 1116.01L930.896 1102.08L939.918 1077.84L980.695 1091.77L995.233 1052.7L1020.53 1061.35L1005.99 1100.42L1046.76 1114.35L1037.74 1138.59L996.97 1124.65L982.426 1163.72L957.129 1155.07Z" stroke="white" stroke-width="2" stroke-miterlimit="10"/>
<path d="M953.382 1319.78C962.08 1321.45 967.718 1329.56 965.975 1337.89C964.233 1346.22 955.77 1351.63 947.072 1349.96C938.375 1348.29 932.737 1340.18 934.479 1331.84C936.221 1323.51 944.685 1318.11 953.382 1319.78Z" stroke="white" stroke-width="2" stroke-miterlimit="10"/>
<path d="M732.906 1422.83C741.603 1424.5 747.242 1432.61 745.499 1440.94C743.757 1449.27 735.294 1454.68 726.596 1453.01C717.899 1451.34 712.261 1443.23 714.003 1434.89C715.745 1426.56 724.209 1421.16 732.906 1422.83Z" stroke="white" stroke-width="2" stroke-miterlimit="10"/>
<path d="M628.948 1119.58C649.052 1123.44 662.084 1142.18 658.057 1161.45C654.029 1180.71 634.468 1193.2 614.364 1189.34C594.261 1185.48 581.229 1166.73 585.256 1147.47C589.283 1128.21 608.845 1115.72 628.948 1119.58Z" stroke="white" stroke-width="2" stroke-miterlimit="10"/>
<path d="M899.4 1112.04C919.504 1115.9 932.536 1134.64 928.509 1153.91C924.481 1173.17 904.92 1185.66 884.816 1181.8C864.713 1177.94 851.681 1159.2 855.708 1139.93C859.735 1120.67 879.297 1108.18 899.4 1112.04Z" stroke="white" stroke-width="2" stroke-miterlimit="10"/>
<path d="M1097.35 1112.3C1110.68 1114.86 1119.33 1127.29 1116.66 1140.06C1113.99 1152.84 1101.01 1161.12 1087.68 1158.56C1074.35 1156 1065.71 1143.57 1068.38 1130.8C1071.05 1118.02 1084.02 1109.74 1097.35 1112.3Z" stroke="white" stroke-width="2" stroke-miterlimit="10"/>
<path d="M788.123 1384.36C799.024 1386.45 806.091 1396.62 803.907 1407.06C801.723 1417.51 791.116 1424.28 780.214 1422.19C769.313 1420.09 762.246 1409.93 764.43 1399.48C766.614 1389.04 777.222 1382.27 788.123 1384.36Z" stroke="white" stroke-width="2" stroke-miterlimit="10"/>
<path d="M701.098 1228.93C714.428 1231.49 723.07 1243.92 720.399 1256.69C717.729 1269.46 704.758 1277.74 691.427 1275.19C678.097 1272.63 669.455 1260.2 672.125 1247.43C674.796 1234.65 687.767 1226.37 701.098 1228.93Z" stroke="white" stroke-width="2" stroke-miterlimit="10"/>
<path d="M848.432 1213.72L816.746 1275.08L752.712 1244.72L784.398 1183.36L848.432 1213.72Z" stroke="white" stroke-width="2" stroke-miterlimit="10"/>
<path d="M838.474 1152.86L767.036 1153.8L766.057 1085.35L837.496 1084.41L838.474 1152.86Z" stroke="white" stroke-width="2" stroke-miterlimit="10"/>
<path d="M1002.75 1257.47L931.308 1258.41L930.33 1189.96L1001.77 1189.02L1002.75 1257.47Z" stroke="white" stroke-width="2" stroke-miterlimit="10"/>
<path d="M899.884 1362.34L840.425 1400.3L800.814 1343.33L860.272 1305.37L899.884 1362.34Z" stroke="white" stroke-width="2" stroke-miterlimit="10"/>
<path d="M693.087 1340.79L633.628 1378.74L594.016 1321.77L653.475 1283.82L693.087 1340.79Z" stroke="white" stroke-width="2" stroke-miterlimit="10"/>
<path d="M1143.2 983.096L1114.12 969.317L1128.5 941.453L1110.46 932.904L1096.07 960.767L1067 946.988L1058.07 964.277L1087.15 978.057L1072.77 1005.92L1090.81 1014.47L1105.19 986.606L1134.28 1000.39L1143.2 983.096Z" stroke="white" stroke-width="2" stroke-miterlimit="10"/>
<path d="M1300.33 1083.78L1265.57 1070.52L1279.4 1037.22L1257.84 1029L1244 1062.3L1209.25 1049.05L1200.66 1069.71L1235.42 1082.97L1221.59 1116.27L1243.16 1124.5L1256.99 1091.19L1291.75 1104.44L1300.33 1083.78Z" stroke="white" stroke-width="2" stroke-miterlimit="10"/>
<path d="M965.467 964.573L934.401 955.63L943.732 925.86L924.456 920.312L915.119 950.083L884.053 941.141L878.26 959.614L909.332 968.556L899.998 998.324L919.277 1003.87L928.608 974.103L959.68 983.045L965.467 964.573Z" stroke="white" stroke-width="2" stroke-miterlimit="10"/>
<path d="M1104.97 1018.51C1101.22 1026.21 1104.69 1035.37 1112.73 1038.97C1120.77 1042.56 1130.33 1039.23 1134.08 1031.53C1137.83 1023.83 1134.35 1014.67 1126.32 1011.08C1118.28 1007.48 1108.72 1010.81 1104.97 1018.51Z" stroke="white" stroke-width="2" stroke-miterlimit="10"/>
<path d="M1064.08 1051.21C1060.33 1058.91 1063.8 1068.07 1071.84 1071.66C1079.88 1075.26 1089.44 1071.93 1093.19 1064.23C1096.94 1056.53 1093.47 1047.37 1085.43 1043.77C1077.39 1040.18 1067.83 1043.51 1064.08 1051.21Z" stroke="white" stroke-width="2" stroke-miterlimit="10"/>
<path d="M851.461 1037.16C845.711 1048.96 851.037 1063 863.356 1068.51C875.676 1074.02 890.324 1068.91 896.074 1057.11C901.824 1045.3 896.498 1031.27 884.178 1025.76C871.859 1020.25 857.21 1025.35 851.461 1037.16Z" stroke="white" stroke-width="2" stroke-miterlimit="10"/>
<path d="M1255.74 955.212C1251.04 964.866 1255.4 976.344 1265.47 980.849C1275.55 985.354 1287.53 981.181 1292.23 971.528C1296.93 961.874 1292.57 950.396 1282.5 945.891C1272.42 941.386 1260.45 945.559 1255.74 955.212Z" stroke="white" stroke-width="2" stroke-miterlimit="10"/>
<path d="M1021.88 1045.65L1065.01 991.068L1008.05 949.744L964.921 1004.32L1021.88 1045.65Z" stroke="white" stroke-width="2" stroke-miterlimit="10"/>
<path d="M1171 1028.42L1238.15 1005.02L1213.73 940.688L1146.59 964.08L1171 1028.42Z" stroke="white" stroke-width="2" stroke-miterlimit="10"/>
<path d="M989.552 1287.66L1032.63 1284.09L1036.35 1325.37L993.274 1328.93L989.552 1287.66Z" stroke="white" stroke-width="2" stroke-miterlimit="10"/>
<path d="M1075.64 1405.93L1105.89 1417.14L1094.19 1446.13L1112.97 1453.09L1124.67 1424.09L1154.93 1435.31L1162.19 1417.32L1131.93 1406.1L1143.63 1377.11L1124.86 1370.16L1113.16 1399.15L1082.9 1387.94L1075.64 1405.93Z" stroke="white" stroke-width="2" stroke-miterlimit="10"/>
<path d="M1000.41 1533.83L1017.07 1515.83L1035.87 1531.79L1046.2 1520.61L1027.41 1504.65L1044.06 1486.64L1032.4 1476.73L1015.74 1494.75L996.949 1478.79L986.612 1489.96L1005.41 1505.92L988.751 1523.93L1000.41 1533.83Z" stroke="white" stroke-width="2" stroke-miterlimit="10"/>
<path d="M1096.32 1353.96C1099.33 1345.97 1095.01 1337.15 1086.67 1334.26C1078.32 1331.38 1069.12 1335.52 1066.11 1343.51C1063.1 1351.51 1067.42 1360.33 1075.76 1363.21C1084.1 1366.1 1093.31 1361.96 1096.32 1353.96Z" stroke="white" stroke-width="2" stroke-miterlimit="10"/>
<path d="M930.927 1410.41C934.702 1400.39 929.284 1389.33 918.827 1385.72C908.369 1382.1 896.832 1387.29 893.057 1397.31C889.282 1407.33 894.7 1418.39 905.157 1422C915.615 1425.62 927.152 1420.43 930.927 1410.41Z" stroke="white" stroke-width="2" stroke-miterlimit="10"/>
<path d="M1149.76 1482.31L1078.57 1476.52L1072.53 1544.73L1143.72 1550.52L1149.76 1482.31Z" stroke="white" stroke-width="2" stroke-miterlimit="10"/>
<path d="M1043.69 1363.19L979.015 1392.29L1009.38 1454.25L1074.05 1425.16L1043.69 1363.19Z" stroke="white" stroke-width="2" stroke-miterlimit="10"/>
<path d="M690.836 992.362L691.103 1023.44L723.542 1023.19L723.707 1042.47L691.266 1042.73L691.533 1073.81L671.403 1073.97L671.138 1042.89L638.7 1043.14L638.533 1023.86L670.973 1023.6L670.708 992.517L690.836 992.362Z" stroke="white" stroke-width="2" stroke-miterlimit="10"/>
<path d="M761.268 979.544L780.654 1004.46L806.665 985.888L818.693 1001.35L792.684 1019.93L812.07 1044.85L795.931 1056.38L776.543 1031.45L750.536 1050.03L738.504 1034.57L764.515 1015.99L745.127 991.067L761.268 979.544Z" stroke="white" stroke-width="2" stroke-miterlimit="10"/>
<path d="M729.033 1107.01C719.419 1116.22 703.833 1116.22 694.22 1107.01C684.606 1097.8 684.606 1082.86 694.22 1073.65C703.833 1064.44 719.419 1064.44 729.033 1073.65C738.646 1082.86 738.646 1097.8 729.033 1107.01Z" stroke="white" stroke-width="2" stroke-miterlimit="10"/>
<path d="M662.474 956.446L701.268 898.96L761.263 936.132L722.469 993.618L662.474 956.446Z" stroke="white" stroke-width="2" stroke-miterlimit="10"/>
<path d="M602.161 1770.44L629.321 1753.44L611.587 1727.42L628.439 1716.87L646.179 1742.9L673.339 1725.91L684.347 1742.06L657.181 1759.05L674.918 1785.08L658.063 1795.62L640.329 1769.59L613.163 1786.59L602.161 1770.44Z" stroke="white" stroke-width="2" stroke-miterlimit="10"/>
<path d="M898.874 1740L913.412 1700.93L872.641 1687L881.662 1662.76L922.439 1676.69L936.977 1637.63L962.279 1646.27L947.736 1685.34L988.506 1699.27L979.485 1723.51L938.714 1709.58L924.17 1748.65L898.874 1740Z" stroke="white" stroke-width="2" stroke-miterlimit="10"/>
<path d="M841.144 1696.96C861.247 1700.82 874.279 1719.57 870.252 1738.83C866.225 1758.09 846.663 1770.58 826.56 1766.72C806.456 1762.86 793.424 1744.12 797.451 1724.86C801.479 1705.59 821.04 1693.11 841.144 1696.96Z" stroke="white" stroke-width="2" stroke-miterlimit="10"/>
<path d="M642.842 1813.85C656.173 1816.41 664.815 1828.84 662.144 1841.61C659.474 1854.39 646.502 1862.67 633.172 1860.11C619.841 1857.55 611.2 1845.12 613.87 1832.35C616.541 1819.57 629.512 1811.29 642.842 1813.85Z" stroke="white" stroke-width="2" stroke-miterlimit="10"/>
<path d="M790.176 1798.64L758.49 1860L694.456 1829.64L726.142 1768.28L790.176 1798.64Z" stroke="white" stroke-width="2" stroke-miterlimit="10"/>
<path d="M780.218 1737.78L708.78 1738.72L707.802 1670.27L779.24 1669.33L780.218 1737.78Z" stroke="white" stroke-width="2" stroke-miterlimit="10"/>
<path d="M944.49 1842.39L873.052 1843.33L872.074 1774.88L943.512 1773.94L944.49 1842.39Z" stroke="white" stroke-width="2" stroke-miterlimit="10"/>
<path d="M907.211 1549.5L876.145 1540.55L885.476 1510.78L866.2 1505.23L856.863 1535.01L825.797 1526.06L820.004 1544.54L851.076 1553.48L841.742 1583.25L861.021 1588.8L870.352 1559.03L901.424 1567.97L907.211 1549.5Z" stroke="white" stroke-width="2" stroke-miterlimit="10"/>
<path d="M902.629 1464.62C893.958 1482.42 901.99 1503.59 920.569 1511.89C939.147 1520.2 961.238 1512.51 969.909 1494.7C978.58 1476.9 970.548 1455.74 951.969 1447.43C933.39 1439.12 911.3 1446.81 902.629 1464.62Z" stroke="white" stroke-width="2" stroke-miterlimit="10"/>
<path d="M793.205 1622.08C787.455 1633.88 792.781 1647.92 805.101 1653.43C817.42 1658.94 832.069 1653.84 837.818 1642.03C843.568 1630.23 838.242 1616.19 825.923 1610.68C813.603 1605.17 798.955 1610.28 793.205 1622.08Z" stroke="white" stroke-width="2" stroke-miterlimit="10"/>
<path d="M888.472 1599.56C882.722 1611.36 888.048 1625.4 900.368 1630.91C912.687 1636.42 927.335 1631.31 933.085 1619.51C938.835 1607.7 933.509 1593.67 921.189 1588.16C908.87 1582.65 894.222 1587.75 888.472 1599.56Z" stroke="white" stroke-width="2" stroke-miterlimit="10"/>
<path d="M624.114 1410.75L647.565 1432.22L669.98 1409.75L684.53 1423.08L662.117 1445.55L685.567 1467.03L671.66 1480.97L648.207 1459.49L625.795 1481.97L611.242 1468.64L633.657 1446.17L610.204 1424.69L624.114 1410.75Z" stroke="white" stroke-width="2" stroke-miterlimit="10"/>
<path d="M622.247 1577.28L622.514 1608.36L654.954 1608.11L655.118 1627.39L622.677 1627.65L622.944 1658.73L602.814 1658.89L602.549 1627.81L570.111 1628.07L569.945 1608.78L602.384 1608.52L602.119 1577.44L622.247 1577.28Z" stroke="white" stroke-width="2" stroke-miterlimit="10"/>
<path d="M703.013 1564.47L722.399 1589.39L748.41 1570.81L760.438 1586.27L734.429 1604.85L753.815 1629.77L737.676 1641.3L718.288 1616.38L692.28 1634.95L680.249 1619.49L706.26 1600.91L686.872 1575.99L703.013 1564.47Z" stroke="white" stroke-width="2" stroke-miterlimit="10"/>
<path d="M787.83 1539.59C773.332 1553.48 749.827 1553.48 735.329 1539.59C720.831 1525.7 720.831 1503.17 735.329 1489.28C749.827 1475.39 773.332 1475.39 787.83 1489.28C802.327 1503.17 802.327 1525.7 787.83 1539.59Z" stroke="white" stroke-width="2" stroke-miterlimit="10"/>
<path d="M670.777 1691.93C661.164 1701.14 645.577 1701.14 635.964 1691.93C626.351 1682.72 626.351 1667.79 635.964 1658.57C645.577 1649.36 661.164 1649.36 670.777 1658.57C680.39 1667.79 680.39 1682.72 670.777 1691.93Z" stroke="white" stroke-width="2" stroke-miterlimit="10"/>
<path d="M786.156 1468.37L824.95 1410.89L884.945 1448.06L846.151 1505.55L786.156 1468.37Z" stroke="white" stroke-width="2" stroke-miterlimit="10"/>
<path d="M604.217 1541.37L643.011 1483.88L703.006 1521.05L664.212 1578.54L604.217 1541.37Z" stroke="white" stroke-width="2" stroke-miterlimit="10"/>
<path d="M103.052 1056.57L96.0708 977.844L178.229 971.154L185.211 1049.88L103.052 1056.57Z" stroke="white" stroke-width="2" stroke-miterlimit="10"/>
<path d="M98.2236 1317.08C98.4368 1308.59 105.798 1301.86 114.666 1302.07C123.534 1302.27 130.55 1309.33 130.336 1317.82C130.123 1326.32 122.762 1333.04 113.894 1332.84C105.026 1332.63 98.0104 1325.58 98.2236 1317.08Z" stroke="white" stroke-width="2" stroke-miterlimit="10"/>
<path d="M535.06 1399.75L509.499 1418.89L529.47 1443.39L513.609 1455.26L493.633 1430.76L468.072 1449.9L455.677 1434.7L481.243 1415.56L461.271 1391.07L477.133 1379.2L497.104 1403.69L522.67 1384.55L535.06 1399.75Z" stroke="white" stroke-width="2" stroke-miterlimit="10"/>
<path d="M306.638 1289.38L303.713 1320.33L336.021 1323.14L334.205 1342.34L301.895 1339.54L298.97 1370.5L278.921 1368.76L281.848 1337.8L249.541 1335L251.356 1315.79L283.664 1318.6L286.591 1287.64L306.638 1289.38Z" stroke="white" stroke-width="2" stroke-miterlimit="10"/>
<path d="M471.048 1268.09L439.75 1276.25L448.27 1306.24L428.85 1311.31L420.324 1281.32L389.026 1289.48L383.736 1270.87L415.04 1262.7L406.517 1232.71L425.94 1227.65L434.46 1257.64L465.764 1249.47L471.048 1268.09Z" stroke="white" stroke-width="2" stroke-miterlimit="10"/>
<path d="M169.509 1391.72L144.3 1411.28L164.714 1435.43L149.073 1447.57L128.653 1423.41L103.445 1442.97L90.7746 1427.99L115.989 1408.42L95.5728 1384.27L111.216 1372.13L131.63 1396.29L156.844 1376.72L169.509 1391.72Z" stroke="white" stroke-width="2" stroke-miterlimit="10"/>
<path d="M242.103 1454.16L231.069 1494.26L272.926 1504.84L266.078 1529.72L224.217 1519.15L213.183 1559.25L187.208 1552.69L198.247 1512.58L156.391 1502.01L163.238 1477.12L205.094 1487.7L216.133 1447.59L242.103 1454.16Z" stroke="white" stroke-width="2" stroke-miterlimit="10"/>
<path d="M231.282 1289.74C222.468 1288.78 216.134 1281.16 217.134 1272.72C218.133 1264.27 226.089 1258.2 234.902 1259.16C243.716 1260.12 250.051 1267.74 249.051 1276.18C248.051 1284.63 240.096 1290.7 231.282 1289.74Z" stroke="white" stroke-width="2" stroke-miterlimit="10"/>
<path d="M441.861 1169.17C433.047 1168.21 426.712 1160.59 427.712 1152.15C428.712 1143.7 436.667 1137.63 445.481 1138.59C454.295 1139.55 460.629 1147.17 459.63 1155.62C458.63 1164.06 450.675 1170.13 441.861 1169.17Z" stroke="white" stroke-width="2" stroke-miterlimit="10"/>
<path d="M485.073 1071.09C476.259 1070.13 469.924 1062.51 470.924 1054.07C471.924 1045.62 479.879 1039.55 488.693 1040.51C497.507 1041.47 503.841 1049.09 502.842 1057.53C501.842 1065.98 493.886 1072.05 485.073 1071.09Z" stroke="white" stroke-width="2" stroke-miterlimit="10"/>
<path d="M572.242 1462.9C551.87 1460.68 537.228 1443.06 539.538 1423.54C541.849 1404.02 560.237 1389.99 580.609 1392.21C600.981 1394.42 615.623 1412.04 613.313 1431.56C611.002 1451.08 592.614 1465.11 572.242 1462.9Z" stroke="white" stroke-width="2" stroke-miterlimit="10"/>
<path d="M303.428 1492.35C283.056 1490.14 268.415 1472.52 270.725 1453C273.036 1433.48 291.424 1419.45 311.796 1421.66C332.168 1423.88 346.81 1441.5 344.499 1461.02C342.189 1480.54 323.801 1494.57 303.428 1492.35Z" stroke="white" stroke-width="2" stroke-miterlimit="10"/>
<path d="M106.162 1508.15C92.6529 1506.68 82.944 1495 84.4762 1482.06C86.0084 1469.11 98.2014 1459.81 111.71 1461.28C125.219 1462.75 134.928 1474.43 133.396 1487.37C131.863 1500.32 119.67 1509.62 106.162 1508.15Z" stroke="white" stroke-width="2" stroke-miterlimit="10"/>
<path d="M390.242 1211.98C379.195 1210.78 371.255 1201.23 372.508 1190.64C373.761 1180.06 383.732 1172.45 394.779 1173.65C405.826 1174.85 413.766 1184.41 412.513 1194.99C411.26 1205.58 401.289 1213.19 390.242 1211.98Z" stroke="white" stroke-width="2" stroke-miterlimit="10"/>
<path d="M490.689 1359.79C477.18 1358.33 467.471 1346.64 469.003 1333.7C470.535 1320.76 482.729 1311.45 496.237 1312.92C509.746 1314.39 519.455 1326.07 517.923 1339.02C516.391 1351.96 504.197 1361.26 490.689 1359.79Z" stroke="white" stroke-width="2" stroke-miterlimit="10"/>
<path d="M345.227 1386.9L371.378 1323.19L437.865 1348.25L411.714 1411.96L345.227 1386.9Z" stroke="white" stroke-width="2" stroke-miterlimit="10"/>
<path d="M360.529 1446.74L431.628 1440.01L438.651 1508.13L367.552 1514.86L360.529 1446.74Z" stroke="white" stroke-width="2" stroke-miterlimit="10"/>
<path d="M187.602 1355.83L258.701 1349.1L265.724 1417.23L194.625 1423.96L187.602 1355.83Z" stroke="white" stroke-width="2" stroke-miterlimit="10"/>
<path d="M280.827 1242.99L336.718 1200.34L381.222 1253.9L325.331 1296.54L280.827 1242.99Z" stroke="white" stroke-width="2" stroke-miterlimit="10"/>
<path d="M488.786 1247.69L544.677 1205.05L589.181 1258.6L533.29 1301.24L488.786 1247.69Z" stroke="white" stroke-width="2" stroke-miterlimit="10"/>
<path d="M71.9021 1640.61L102.091 1651.99L90.2251 1680.92L108.957 1687.97L120.828 1659.04L151.017 1670.41L158.384 1652.46L128.189 1641.09L140.058 1612.16L121.323 1605.1L109.457 1634.03L79.2625 1622.66L71.9021 1640.61Z" stroke="white" stroke-width="2" stroke-miterlimit="10"/>
<path d="M250.63 1644.65L282.374 1651.04L275.708 1681.46L295.405 1685.43L302.077 1655L333.822 1661.39L337.962 1642.52L306.211 1636.13L312.881 1605.71L293.181 1601.74L286.514 1632.16L254.764 1625.78L250.63 1644.65Z" stroke="white" stroke-width="2" stroke-miterlimit="10"/>
<path d="M106.861 1602.22C109.918 1594.25 105.647 1585.4 97.32 1582.47C88.9933 1579.54 79.7646 1583.64 76.7073 1591.62C73.6499 1599.59 77.9215 1608.44 86.2482 1611.37C94.575 1614.3 103.804 1610.2 106.861 1602.22Z" stroke="white" stroke-width="2" stroke-miterlimit="10"/>
<path d="M144.714 1566.33C147.771 1558.35 143.499 1549.5 135.173 1546.57C126.846 1543.65 117.617 1547.74 114.56 1555.72C111.503 1563.7 115.774 1572.54 124.101 1575.47C132.428 1578.4 141.656 1574.3 144.714 1566.33Z" stroke="white" stroke-width="2" stroke-miterlimit="10"/>
<path d="M262.697 1728.85C269.763 1710.41 259.89 1689.97 240.643 1683.2C221.397 1676.43 200.066 1685.89 192.999 1704.33C185.932 1722.77 195.806 1743.21 215.052 1749.98C234.299 1756.76 255.63 1747.29 262.697 1728.85Z" stroke="white" stroke-width="2" stroke-miterlimit="10"/>
<path d="M357.813 1563.08C362.499 1550.85 355.952 1537.3 343.189 1532.81C330.427 1528.32 316.283 1534.59 311.597 1546.82C306.911 1559.05 313.458 1572.6 326.22 1577.09C338.982 1581.58 353.127 1575.31 357.813 1563.08Z" stroke="white" stroke-width="2" stroke-miterlimit="10"/>
<path d="M145.583 1717.38L74.4275 1711.22L67.9994 1779.4L139.155 1785.56L145.583 1717.38Z" stroke="white" stroke-width="2" stroke-miterlimit="10"/>
<path d="M194.545 1757.31L156.395 1815.19L216.801 1851.75L254.951 1793.87L194.545 1757.31Z" stroke="white" stroke-width="2" stroke-miterlimit="10"/>
<path d="M187.256 1568.45L149.106 1626.33L209.513 1662.88L247.663 1605L187.256 1568.45Z" stroke="white" stroke-width="2" stroke-miterlimit="10"/>
<path d="M198.08 1324.68L155.476 1331.73L148.12 1290.9L190.724 1283.86L198.08 1324.68Z" stroke="white" stroke-width="2" stroke-miterlimit="10"/>
<path d="M165.502 1080.27L150.497 1099.57L130.358 1085.19L121.048 1097.16L141.186 1111.54L126.181 1130.84L138.677 1139.76L153.684 1120.46L173.821 1134.84L183.133 1122.87L162.993 1108.49L178 1089.19L165.502 1080.27Z" stroke="white" stroke-width="2" stroke-miterlimit="10"/>
<path d="M85.8357 1267.28C83.5413 1275.49 88.6274 1283.92 97.1959 1286.12C105.764 1288.32 114.57 1283.45 116.865 1275.24C119.159 1267.03 114.073 1258.59 105.505 1256.39C96.9362 1254.19 88.1301 1259.07 85.8357 1267.28Z" stroke="white" stroke-width="2" stroke-miterlimit="10"/>
<path d="M245.648 1197.61C242.772 1207.91 249.147 1218.48 259.887 1221.24C270.626 1223.99 281.664 1217.88 284.539 1207.59C287.415 1197.3 281.04 1186.73 270.301 1183.97C259.561 1181.22 248.524 1187.32 245.648 1197.61Z" stroke="white" stroke-width="2" stroke-miterlimit="10"/>
<path d="M137.467 1253.81L199.334 1219.57L163.602 1160.29L101.735 1194.53L137.467 1253.81Z" stroke="white" stroke-width="2" stroke-miterlimit="10"/>
<path d="M544.971 1759.93L519.707 1740.44L499.357 1764.64L483.682 1752.55L504.029 1728.33L478.765 1708.84L491.39 1693.82L516.657 1713.32L537.002 1689.11L552.681 1701.2L532.332 1725.41L557.599 1744.91L544.971 1759.93Z" stroke="white" stroke-width="2" stroke-miterlimit="10"/>
<path d="M532.115 1593.84L529.102 1562.89L496.802 1565.78L494.934 1546.58L527.236 1543.69L524.223 1512.74L544.267 1510.95L547.278 1541.9L579.576 1539.01L581.447 1558.22L549.146 1561.1L552.157 1592.05L532.115 1593.84Z" stroke="white" stroke-width="2" stroke-miterlimit="10"/>
<path d="M452.771 1613.17L431.253 1589.91L406.976 1610.53L393.625 1596.1L417.899 1575.47L396.381 1552.22L411.443 1539.42L432.964 1562.68L457.236 1542.06L470.591 1556.49L446.315 1577.11L467.836 1600.38L452.771 1613.17Z" stroke="white" stroke-width="2" stroke-miterlimit="10"/>
<path d="M562.457 1711.82C568.175 1705.32 578.308 1704.49 585.089 1709.97C591.87 1715.45 592.731 1725.16 587.012 1731.66C581.294 1738.16 571.161 1738.98 564.38 1733.5C557.599 1728.02 556.738 1718.31 562.457 1711.82Z" stroke="white" stroke-width="2" stroke-miterlimit="10"/>
<path d="M370.459 1644.84C383.677 1629.82 407.098 1627.91 422.771 1640.58C438.444 1653.24 440.434 1675.68 427.216 1690.7C413.998 1705.72 390.577 1707.63 374.904 1694.96C359.231 1682.3 357.241 1659.85 370.459 1644.84Z" stroke="white" stroke-width="2" stroke-miterlimit="10"/>
<path d="M473.628 1483.54C482.393 1473.58 497.923 1472.32 508.316 1480.72C518.709 1489.12 520.028 1504 511.264 1513.96C502.499 1523.91 486.968 1525.18 476.575 1516.78C466.183 1508.38 464.863 1493.5 473.628 1483.54Z" stroke="white" stroke-width="2" stroke-miterlimit="10"/>
<path d="M438.873 1736.63L479.706 1792.81L421.08 1831.93L380.247 1775.76L438.873 1736.63Z" stroke="white" stroke-width="2" stroke-miterlimit="10"/>
<path d="M378.419 1715.66L344.844 1776.09L281.78 1743.92L315.354 1683.49L378.419 1715.66Z" stroke="white" stroke-width="2" stroke-miterlimit="10"/>
<path d="M553.253 1628.17L519.679 1688.59L456.614 1656.42L490.189 1596L553.253 1628.17Z" stroke="white" stroke-width="2" stroke-miterlimit="10"/>
<path d="M256.988 1057.1L288.733 1063.49L282.066 1093.91L301.763 1097.88L308.435 1067.46L340.18 1073.85L344.32 1054.97L312.569 1048.58L319.239 1018.16L299.539 1014.2L292.873 1044.62L261.122 1038.23L256.988 1057.1Z" stroke="white" stroke-width="2" stroke-miterlimit="10"/>
<path d="M269.055 1141.31C276.122 1122.86 266.248 1102.42 247.002 1095.65C227.755 1088.88 206.424 1098.34 199.357 1116.78C192.291 1135.23 202.164 1155.67 221.41 1162.44C240.657 1169.21 261.988 1159.75 269.055 1141.31Z" stroke="white" stroke-width="2" stroke-miterlimit="10"/>
<path d="M278.543 995.005C285.61 976.563 275.736 956.124 256.49 949.353C237.244 942.581 215.912 952.042 208.846 970.483C201.779 988.925 211.652 1009.36 230.899 1016.14C250.145 1022.91 271.476 1013.45 278.543 995.005Z" stroke="white" stroke-width="2" stroke-miterlimit="10"/>
<path d="M364.171 975.529C368.857 963.301 362.31 949.748 349.548 945.257C336.785 940.767 322.641 947.041 317.955 959.269C313.269 971.498 319.816 985.051 332.578 989.541C345.34 994.031 359.485 987.758 364.171 975.529Z" stroke="white" stroke-width="2" stroke-miterlimit="10"/>
<path d="M541.114 1175.91L515.85 1156.42L495.5 1180.62L479.826 1168.53L500.172 1144.32L474.908 1124.82L487.533 1109.8L512.8 1129.3L533.145 1105.09L548.824 1117.18L528.475 1141.39L553.742 1160.89L541.114 1175.91Z" stroke="white" stroke-width="2" stroke-miterlimit="10"/>
<path d="M538.474 1006.29L535.461 975.346L503.161 978.231L501.292 959.029L533.594 956.139L530.581 925.192L550.625 923.399L553.636 954.352L585.935 951.464L587.805 970.669L555.505 973.553L558.516 1004.51L538.474 1006.29Z" stroke="white" stroke-width="2" stroke-miterlimit="10"/>
<path d="M459.131 1025.62L437.612 1002.36L413.336 1022.98L399.985 1008.55L424.259 987.925L402.74 964.667L417.802 951.87L439.323 975.133L463.595 954.512L476.95 968.945L452.674 989.564L474.195 1012.83L459.131 1025.62Z" stroke="white" stroke-width="2" stroke-miterlimit="10"/>
<path d="M376.817 1057.29C390.035 1042.27 413.456 1040.36 429.129 1053.03C444.802 1065.69 446.793 1088.13 433.575 1103.15C420.356 1118.17 396.936 1120.08 381.262 1107.41C365.589 1094.75 363.599 1072.31 376.817 1057.29Z" stroke="white" stroke-width="2" stroke-miterlimit="10"/>
<path d="M384.778 1128.11L351.203 1188.54L288.138 1156.37L321.713 1095.94L384.778 1128.11Z" stroke="white" stroke-width="2" stroke-miterlimit="10"/>
<path d="M626.577 1043.66L593.003 1104.09L529.938 1071.92L563.513 1011.49L626.577 1043.66Z" stroke="white" stroke-width="2" stroke-miterlimit="10"/>
<path d="M599.575 1765.07L605.624 1833.28L534.436 1839.08L528.387 1770.87L599.575 1765.07Z" stroke="white" stroke-width="2" stroke-miterlimit="10"/>
</g>
</g>
<defs>
<clipPath id="clip0">
<rect width="1924" height="1897" fill="white"/>
</clipPath>
</defs>
</svg>
