<svg width="1440" height="1302" viewBox="0 0 1440 1302" fill="none" xmlns="http://www.w3.org/2000/svg">
<path d="M1391.13 1301.58C1393.41 1301.58 1395.25 1300.07 1395.25 1298.2C1395.25 1296.33 1393.41 1294.82 1391.13 1294.82C1388.85 1294.82 1387 1296.33 1387 1298.2C1387 1300.07 1388.85 1301.58 1391.13 1301.58Z" fill="#29CF30"/>
<path d="M0.148225 55.0127H-2V56.9682H0.148225V55.0127Z" fill="#29CF30"/>
<path d="M12.226 55.0078H10.0778V56.9633H12.226V55.0078Z" fill="#29CF30"/>
<path d="M24.3044 55.002H22.1562V56.9574H24.3044V55.002Z" fill="#29CF30"/>
<path d="M36.3822 54.9971H34.234V56.9526H36.3822V54.9971Z" fill="#29CF30"/>
<path d="M48.4601 54.9873H46.3118V56.9428H48.4601V54.9873Z" fill="#29CF30"/>
<path d="M60.5379 54.9805H58.3896V56.936H60.5379V54.9805Z" fill="#29CF30"/>
<path d="M0.153962 65.7305H-1.99426V67.686H0.153962V65.7305Z" fill="#29CF30"/>
<path d="M12.2318 65.7246H10.0836V67.6801H12.2318V65.7246Z" fill="#29CF30"/>
<path d="M24.3102 65.7148H22.1619V67.6703H24.3102V65.7148Z" fill="#29CF30"/>
<path d="M36.388 65.709H34.2397V67.6645H36.388V65.709Z" fill="#29CF30"/>
<path d="M48.4658 65.7041H46.3176V67.6596H48.4658V65.7041Z" fill="#29CF30"/>
<path d="M60.5436 65.6982H58.3954V67.6537H60.5436V65.6982Z" fill="#29CF30"/>
<path d="M0.160187 76.4434H-1.98804V78.3989H0.160187V76.4434Z" fill="#29CF30"/>
<path d="M12.238 76.4375H10.0898V78.393H12.238V76.4375Z" fill="#29CF30"/>
<path d="M24.3159 76.4326H22.1677V78.3881H24.3159V76.4326Z" fill="#29CF30"/>
<path d="M36.3937 76.4268H34.2455V78.3823H36.3937V76.4268Z" fill="#29CF30"/>
<path d="M48.4715 76.4219H46.3233V78.3774H48.4715V76.4219Z" fill="#29CF30"/>
<path d="M60.5499 76.4111H58.4017V78.3666H60.5499V76.4111Z" fill="#29CF30"/>
<path d="M0.165925 87.1611H-1.9823V89.1166H0.165925V87.1611Z" fill="#29CF30"/>
<path d="M12.2437 87.1553H10.0955V89.1108H12.2437V87.1553Z" fill="#29CF30"/>
<path d="M24.3216 87.1504H22.1734V89.1059H24.3216V87.1504Z" fill="#29CF30"/>
<path d="M36.3999 87.1396H34.2517V89.0952H36.3999V87.1396Z" fill="#29CF30"/>
<path d="M48.4778 87.1348H46.3295V89.0903H48.4778V87.1348Z" fill="#29CF30"/>
<path d="M60.5557 87.1289H58.4074V89.0844H60.5557V87.1289Z" fill="#29CF30"/>
<path d="M0.171662 97.8789H-1.97656V99.8344H0.171662V97.8789Z" fill="#29CF30"/>
<path d="M12.2495 97.8682H10.1013V99.8237H12.2495V97.8682Z" fill="#29CF30"/>
<path d="M24.3273 97.8633H22.1791V99.8188H24.3273V97.8633Z" fill="#29CF30"/>
<path d="M36.4057 97.8574H34.2574V99.8129H36.4057V97.8574Z" fill="#29CF30"/>
<path d="M48.4835 97.8525H46.3353V99.808H48.4835V97.8525Z" fill="#29CF30"/>
<path d="M60.5613 97.8477H58.4131V99.8032H60.5613V97.8477Z" fill="#29CF30"/>
<path d="M0.177399 108.592H-1.97083V110.547H0.177399V108.592Z" fill="#29CF30"/>
<path d="M12.2552 108.587H10.107V110.542H12.2552V108.587Z" fill="#29CF30"/>
<path d="M24.3336 108.581H22.1854V110.537H24.3336V108.581Z" fill="#29CF30"/>
<path d="M36.4114 108.576H34.2632V110.532H36.4114V108.576Z" fill="#29CF30"/>
<path d="M48.4892 108.57H46.341V110.526H48.4892V108.57Z" fill="#29CF30"/>
<path d="M60.567 108.56H58.4188V110.515H60.567V108.56Z" fill="#29CF30"/>
<path d="M1385.44 1069.83C1390.86 1064.89 1390.86 1056.9 1385.44 1051.96C1380.02 1047.03 1371.23 1047.03 1365.81 1051.96C1360.39 1056.9 1360.39 1064.89 1365.81 1069.83C1371.23 1074.76 1380.02 1074.76 1385.44 1069.83Z" stroke="#29CF30" stroke-width="1.3615" stroke-miterlimit="10"/>
<path d="M31 1002C28.7909 1002 27 1000.21 27 998C27 995.791 28.7909 994 31 994C33.2092 994 35 995.791 35 998C35 1000.21 33.2092 1002 31 1002Z" fill="#29CF30"/>
<circle r="54.5" transform="matrix(-1 0 0 1 75 1057)" stroke="#29CF30"/>
<path d="M-8.00464 550.596H32.646V599.262H81.7793V639.527H32.646V688.193H-8.00464V550.596Z" fill="#29CF30"/>
<path d="M1448.95 826.224L1444.77 813.887L1457.21 809.756L1454.63 802.102L1442.17 806.244L1438 793.906L1430.27 796.476L1434.46 808.813L1422 812.944L1424.59 820.598L1437.04 816.456L1441.22 828.794L1448.95 826.224Z" fill="#29CF30"/>
<path d="M1000.94 232.619L996.766 220.292L1009.21 216.151L1006.62 208.508L994.172 212.638L989.991 200.312L982.263 202.881L986.445 215.207L974 219.349L976.594 227.003L989.039 222.861L993.22 235.188L1000.94 232.619Z" fill="#29CF30"/>
<path d="M1234.16 94.1092L1234.16 94.1093L1237.52 97.9216L1260.24 75.7861L1256.86 71.951L1234.16 94.1092ZM1234.16 94.1092C1223.07 81.5484 1208.24 74.0289 1192.42 72.9293C1176.59 71.8297 1161.66 77.288 1150.37 88.2886C1139.08 99.2757 1132.79 114.509 1132.65 131.156C1132.5 147.803 1138.53 163.888 1149.62 176.437L1153 180.272L1130.28 202.418L1126.92 198.606L1126.92 198.606C1109.88 179.309 1100.6 154.575 1100.83 128.956L1100.83 128.956M1234.16 94.1092L1100.83 128.956M1100.83 128.956C1100.86 124.374 1101.2 119.872 1101.84 115.455C1104.75 95.1823 1113.84 76.9086 1128.09 63.0098C1145.44 46.0996 1168.4 37.7126 1192.72 39.4037C1217.03 41.0925 1239.82 52.6546 1256.86 71.9508L1100.83 128.956Z" stroke="#29CF30"/>
<path d="M61.0992 826.71L51.9271 817.387L61.3291 808.313L55.6485 802.534L46.2465 811.609L37.0744 802.296L31.2406 807.933L40.4127 817.246L30.9998 826.32L36.6913 832.099L46.0933 823.024L55.2544 832.337L61.0992 826.71Z" fill="white"/>
<path d="M406.813 49.0142C401.393 43.6459 401.393 34.942 406.813 29.5736C412.233 24.2052 421.02 24.2052 426.44 29.5736C431.86 34.942 431.86 43.6459 426.44 49.0143C421.02 54.3827 412.233 54.3826 406.813 49.0142Z" stroke="#29CF30" stroke-width="1.3615" stroke-miterlimit="10"/>
<path d="M909.71 119.8C913.976 113.389 912.289 104.866 905.942 100.765C899.595 96.6641 890.991 98.537 886.725 104.949C882.458 111.36 884.145 119.882 890.492 123.983C896.839 128.085 905.443 126.212 909.71 119.8Z" stroke="#29CF30" stroke-width="1.3615" stroke-miterlimit="10"/>
<path d="M172.108 1058.04C177.095 1052.28 176.419 1043.6 170.598 1038.66C164.777 1033.72 156.016 1034.39 151.029 1040.16C146.042 1045.92 146.718 1054.6 152.539 1059.54C158.36 1064.48 167.121 1063.81 172.108 1058.04Z" stroke="white" stroke-width="1.3615" stroke-miterlimit="10"/>
<path d="M520.127 16.1412C517.848 16.1412 516.001 14.3113 516.001 12.054C516.001 9.79669 517.848 7.9668 520.127 7.9668C522.406 7.9668 524.254 9.79669 524.254 12.054C524.254 14.3113 522.406 16.1412 520.127 16.1412Z" fill="#29CF30"/>
<path d="M948.624 8.88307C950.855 8.39734 952.31 6.21189 951.872 4.00172C951.435 1.79154 949.271 0.393603 947.04 0.879329C944.809 1.36505 943.354 3.55049 943.792 5.76067C944.229 7.97084 946.393 9.3688 948.624 8.88307Z" fill="#29CF30"/>
<path d="M1380.13 693.01C1382.41 693.01 1384.25 691.18 1384.25 688.923C1384.25 686.666 1382.41 684.836 1380.13 684.836C1377.85 684.836 1376 686.666 1376 688.923C1376 691.18 1377.85 693.01 1380.13 693.01Z" fill="#29CF30"/>
<path d="M1303.25 369.061C1303.25 371.316 1301.4 373.148 1299.13 373.148C1296.85 373.148 1295 371.316 1295 369.061C1295 366.806 1296.85 364.974 1299.13 364.974C1301.4 364.974 1303.25 366.806 1303.25 369.061Z" fill="#29CF30"/>
<path d="M70.7492 714.736C73.0281 714.736 74.8755 712.906 74.8755 710.649C74.8755 708.391 73.0281 706.562 70.7492 706.562C68.4702 706.562 66.6228 708.391 66.6228 710.649C66.6228 712.906 68.4702 714.736 70.7492 714.736Z" fill="#29CF30"/>
</svg>
