<svg width="1431" height="1092" viewBox="0 0 1431 1092" fill="none" xmlns="http://www.w3.org/2000/svg">
<path d="M0.148225 68.0127H-2V69.9682H0.148225V68.0127Z" fill="#29CF30"/>
<path d="M12.2259 68.0078H10.0776V69.9633H12.2259V68.0078Z" fill="#29CF30"/>
<path d="M24.3045 68.002H22.1562V69.9574H24.3045V68.002Z" fill="#29CF30"/>
<path d="M36.3821 67.9971H34.2339V69.9526H36.3821V67.9971Z" fill="#29CF30"/>
<path d="M48.4602 67.9873H46.312V69.9428H48.4602V67.9873Z" fill="#29CF30"/>
<path d="M60.5379 67.9805H58.3896V69.936H60.5379V67.9805Z" fill="#29CF30"/>
<path d="M0.154084 78.7305H-1.99414V80.686H0.154084V78.7305Z" fill="#29CF30"/>
<path d="M12.2317 78.7246H10.0835V80.6801H12.2317V78.7246Z" fill="#29CF30"/>
<path d="M24.3103 78.7148H22.1621V80.6703H24.3103V78.7148Z" fill="#29CF30"/>
<path d="M36.388 78.709H34.2397V80.6645H36.388V78.709Z" fill="#29CF30"/>
<path d="M48.4656 78.7041H46.3174V80.6596H48.4656V78.7041Z" fill="#29CF30"/>
<path d="M60.5437 78.6982H58.3955V80.6537H60.5437V78.6982Z" fill="#29CF30"/>
<path d="M0.160432 89.4434H-1.98779V91.3989H0.160432V89.4434Z" fill="#29CF30"/>
<path d="M12.2381 89.4375H10.0898V91.393H12.2381V89.4375Z" fill="#29CF30"/>
<path d="M24.3157 89.4326H22.1675V91.3881H24.3157V89.4326Z" fill="#29CF30"/>
<path d="M36.3938 89.4268H34.2456V91.3823H36.3938V89.4268Z" fill="#29CF30"/>
<path d="M48.4715 89.4219H46.3232V91.3774H48.4715V89.4219Z" fill="#29CF30"/>
<path d="M60.5501 89.4111H58.4019V91.3666H60.5501V89.4111Z" fill="#29CF30"/>
<path d="M0.165803 100.161H-1.98242V102.117H0.165803V100.161Z" fill="#29CF30"/>
<path d="M12.2439 100.155H10.0957V102.111H12.2439V100.155Z" fill="#29CF30"/>
<path d="M24.3216 100.15H22.1733V102.106H24.3216V100.15Z" fill="#29CF30"/>
<path d="M36.4002 100.14H34.252V102.095H36.4002V100.14Z" fill="#29CF30"/>
<path d="M48.4778 100.135H46.3296V102.09H48.4778V100.135Z" fill="#29CF30"/>
<path d="M60.5555 100.129H58.4072V102.084H60.5555V100.129Z" fill="#29CF30"/>
<path d="M0.171662 110.879H-1.97656V112.834H0.171662V110.879Z" fill="#29CF30"/>
<path d="M12.2493 110.868H10.1011V112.824H12.2493V110.868Z" fill="#29CF30"/>
<path d="M24.3275 110.863H22.1792V112.819H24.3275V110.863Z" fill="#29CF30"/>
<path d="M36.4056 110.857H34.2573V112.813H36.4056V110.857Z" fill="#29CF30"/>
<path d="M48.4837 110.853H46.3354V112.808H48.4837V110.853Z" fill="#29CF30"/>
<path d="M60.5613 110.848H58.4131V112.803H60.5613V110.848Z" fill="#29CF30"/>
<path d="M0.177521 121.592H-1.9707V123.547H0.177521V121.592Z" fill="#29CF30"/>
<path d="M12.2552 121.587H10.1069V123.542H12.2552V121.587Z" fill="#29CF30"/>
<path d="M24.3338 121.581H22.1855V123.537H24.3338V121.581Z" fill="#29CF30"/>
<path d="M36.4114 121.576H34.2632V123.532H36.4114V121.576Z" fill="#29CF30"/>
<path d="M48.489 121.57H46.3408V123.526H48.489V121.57Z" fill="#29CF30"/>
<path d="M60.5672 121.56H58.4189V123.515H60.5672V121.56Z" fill="#29CF30"/>
<path d="M1385.44 1082.83C1390.86 1077.89 1390.86 1069.9 1385.44 1064.96C1380.02 1060.03 1371.23 1060.03 1365.81 1064.96C1360.39 1069.9 1360.39 1077.89 1365.81 1082.83C1371.23 1087.76 1380.02 1087.76 1385.44 1082.83Z" stroke="#29CF30" stroke-width="1.3615" stroke-miterlimit="10"/>
<path d="M36.8737 1022.23C34.5948 1022.23 32.7473 1020.72 32.7473 1018.85C32.7473 1016.98 34.5948 1015.47 36.8737 1015.47C39.1526 1015.47 41 1016.98 41 1018.85C41 1020.72 39.1526 1022.23 36.8737 1022.23Z" fill="#29CF30"/>
<circle r="54.5" transform="matrix(-1 0 0 1 79 296)" stroke="#29CF30"/>
<path d="M1421.95 806.682L1417.77 794.5L1430.21 790.422L1427.63 782.864L1415.17 786.953L1411 774.771L1403.28 777.309L1407.46 789.49L1395 793.569L1397.59 801.126L1410.04 797.037L1414.22 809.219L1421.95 806.682Z" fill="#29CF30"/>
<path d="M61.1004 816.279L51.9283 807.074L61.3303 798.114L55.6497 792.408L46.2477 801.368L37.0756 792.173L31.2418 797.739L40.4139 806.934L31.001 815.894L36.6925 821.6L46.0945 812.64L55.2557 821.835L61.1004 816.279Z" fill="white"/>
<path d="M406.814 48.3955C401.394 43.0948 401.394 34.5008 406.814 29.2002C412.234 23.8995 421.021 23.8995 426.441 29.2002C431.861 34.5008 431.861 43.0949 426.441 48.3955C421.021 53.6962 412.234 53.6962 406.814 48.3955Z" stroke="#29CF30" stroke-width="1.3615" stroke-miterlimit="10"/>
<path d="M909.711 118.288C913.977 111.957 912.291 103.542 905.944 99.4929C899.597 95.4434 890.993 97.2927 886.726 103.623C882.46 109.954 884.146 118.369 890.493 122.418C896.84 126.468 905.444 124.618 909.711 118.288Z" stroke="#29CF30" stroke-width="1.3615" stroke-miterlimit="10"/>
<path d="M172.109 1044.69C177.096 1039 176.42 1030.43 170.599 1025.55C164.778 1020.68 156.017 1021.34 151.03 1027.03C146.044 1032.72 146.72 1041.29 152.54 1046.17C158.361 1051.05 167.122 1050.39 172.109 1044.69Z" stroke="white" stroke-width="1.3615" stroke-miterlimit="10"/>
<path d="M520.129 15.9374C517.85 15.9374 516.002 14.1306 516.002 11.9018C516.002 9.67302 517.85 7.86621 520.129 7.86621C522.407 7.86621 524.255 9.67302 524.255 11.9018C524.255 14.1306 522.407 15.9374 520.129 15.9374Z" fill="#29CF30"/>
<path d="M948.625 8.77072C950.857 8.29112 952.311 6.13324 951.873 3.95096C951.436 1.76867 949.273 0.388368 947.041 0.867965C944.81 1.34756 943.356 3.50543 943.793 5.68771C944.23 7.87 946.394 9.25031 948.625 8.77072Z" fill="#29CF30"/>
<path d="M1380.13 684.266C1382.41 684.266 1384.25 682.459 1384.25 680.23C1384.25 678.001 1382.41 676.194 1380.13 676.194C1377.85 676.194 1376 678.001 1376 680.23C1376 682.459 1377.85 684.266 1380.13 684.266Z" fill="#29CF30"/>
<path d="M1303.25 364.404C1303.25 366.63 1301.4 368.439 1299.13 368.439C1296.85 368.439 1295 366.63 1295 364.404C1295 362.177 1296.85 360.368 1299.13 360.368C1301.4 360.368 1303.25 362.177 1303.25 364.404Z" fill="#29CF30"/>
<path d="M63.1273 520.012C65.4063 520.012 67.2537 518.205 67.2537 515.976C67.2537 513.747 65.4063 511.94 63.1273 511.94C60.8484 511.94 59.001 513.747 59.001 515.976C59.001 518.205 60.8484 520.012 63.1273 520.012Z" fill="#29CF30"/>
</svg>
