<svg width="15" height="72" viewBox="0 0 15 72" fill="none" xmlns="http://www.w3.org/2000/svg">
<path d="M1.84457 0.599997H13.2091L11.2983 48.7737H3.65486L1.84457 0.599997ZM7.57714 71.6034C5.69981 71.6034 4.12419 71 2.85029 69.7931C1.57638 68.5192 0.939429 66.9771 0.939429 65.1669C0.939429 63.3566 1.57638 61.848 2.85029 60.6411C4.12419 59.3672 5.69981 58.7303 7.57714 58.7303C9.45448 58.7303 10.9966 59.3672 12.2034 60.6411C13.4103 61.848 14.0137 63.3566 14.0137 65.1669C14.0137 66.9771 13.3768 68.5192 12.1029 69.7931C10.896 71 9.38743 71.6034 7.57714 71.6034Z" fill="#29CF30"/>
</svg>
