<svg width="9" height="9" viewBox="0 0 9 9" fill="none" xmlns="http://www.w3.org/2000/svg">
<rect x="0.5" y="1.31836" width="7.18182" height="7.18182" rx="1.5" stroke="#6F6F6F"/>
<rect x="0.818359" y="1.63672" width="6.54545" height="0.818182" fill="#6F6F6F"/>
<rect x="0.818359" y="1.63672" width="6.54545" height="0.818182" fill="#6F6F6F"/>
<rect x="0.818359" y="1.63672" width="6.54545" height="0.818182" fill="#6F6F6F"/>
<rect x="1.63623" width="0.818182" height="1.63636" rx="0.409091" fill="#6F6F6F"/>
<rect x="1.63623" width="0.818182" height="1.63636" rx="0.409091" fill="#6F6F6F"/>
<rect x="1.63623" width="0.818182" height="1.63636" rx="0.409091" fill="#6F6F6F"/>
<rect x="5.72705" width="0.818182" height="1.63636" rx="0.409091" fill="#6F6F6F"/>
<rect x="5.72705" width="0.818182" height="1.63636" rx="0.409091" fill="#6F6F6F"/>
<rect x="5.72705" width="0.818182" height="1.63636" rx="0.409091" fill="#6F6F6F"/>
<rect x="1.63623" y="3.27246" width="1.63636" height="1.63636" rx="0.5" fill="#6F6F6F"/>
<rect x="1.63623" y="3.27246" width="1.63636" height="1.63636" rx="0.5" fill="#6F6F6F"/>
<rect x="1.63623" y="3.27246" width="1.63636" height="1.63636" rx="0.5" fill="#6F6F6F"/>
<rect x="4.90918" y="3.27246" width="1.63636" height="1.63636" rx="0.5" fill="#6F6F6F"/>
<rect x="4.90918" y="3.27246" width="1.63636" height="1.63636" rx="0.5" fill="#6F6F6F"/>
<rect x="4.90918" y="3.27246" width="1.63636" height="1.63636" rx="0.5" fill="#6F6F6F"/>
<rect x="1.63623" y="5.72754" width="1.63636" height="1.63636" rx="0.5" fill="#6F6F6F"/>
<rect x="1.63623" y="5.72754" width="1.63636" height="1.63636" rx="0.5" fill="#6F6F6F"/>
<rect x="1.63623" y="5.72754" width="1.63636" height="1.63636" rx="0.5" fill="#6F6F6F"/>
<rect x="4.90918" y="5.72754" width="1.63636" height="1.63636" rx="0.5" fill="#6F6F6F"/>
<rect x="4.90918" y="5.72754" width="1.63636" height="1.63636" rx="0.5" fill="#6F6F6F"/>
<rect x="4.90918" y="5.72754" width="1.63636" height="1.63636" rx="0.5" fill="#6F6F6F"/>
</svg>
