<svg width="110" height="54" viewBox="0 0 110 54" fill="none" xmlns="http://www.w3.org/2000/svg">
<path d="M49.8451 20.5023V20.1088C49.8451 19.8333 49.9828 19.6956 50.2583 19.6956H51.9309C52.2064 19.6956 52.3441 19.8333 52.3441 20.1088V20.2662C52.3441 20.7647 52.4425 21.1058 52.6393 21.2895C52.8361 21.4731 53.1968 21.5649 53.7216 21.5649H54.6464C55.158 21.5649 55.5122 21.4666 55.709 21.2698C55.9189 21.073 56.0239 20.7057 56.0239 20.1678V19.9317C56.0239 19.5513 55.8664 19.2627 55.5516 19.0659C55.2499 18.856 54.8694 18.7314 54.4103 18.692C53.9511 18.6526 53.4526 18.5805 52.9148 18.4755C52.39 18.3575 51.8981 18.2132 51.439 18.0426C50.9798 17.859 50.5928 17.5113 50.278 16.9997C49.9763 16.475 49.8254 15.8059 49.8254 14.9926V14.3039C49.8254 13.2806 50.114 12.487 50.6912 11.9229C51.2684 11.3588 52.0686 11.0767 53.0919 11.0767H55.0597C56.096 11.0767 56.9028 11.3588 57.48 11.9229C58.0572 12.487 58.3458 13.2806 58.3458 14.3039V14.6777C58.3458 14.9532 58.2081 15.091 57.9326 15.091H56.26C55.9845 15.091 55.8468 14.9532 55.8468 14.6777V14.5597C55.8468 14.0481 55.7484 13.7004 55.5516 13.5168C55.3548 13.3331 54.9941 13.2413 54.4693 13.2413H53.7019C53.164 13.2413 52.7967 13.3462 52.5999 13.5561C52.4163 13.7529 52.3245 14.1465 52.3245 14.7368V15.1107C52.3245 15.7272 52.8623 16.0814 53.938 16.1733C55.0531 16.2651 56.0435 16.4881 56.9094 16.8423C57.3685 17.0391 57.7489 17.3933 58.0507 17.9049C58.3655 18.4034 58.5229 19.0462 58.5229 19.8333V20.5023C58.5229 21.5256 58.2343 22.3193 57.6571 22.8834C57.0799 23.4474 56.2797 23.7295 55.2564 23.7295H53.1116C52.0883 23.7295 51.2881 23.4474 50.7109 22.8834C50.1337 22.3193 49.8451 21.5256 49.8451 20.5023ZM63.05 26.4057H61.3774C61.1019 26.4057 60.9642 26.2745 60.9642 26.0121V14.1071C60.9642 13.8316 61.1019 13.6939 61.3774 13.6939H63.05C63.3255 13.6939 63.4633 13.8316 63.4633 14.1071V14.7565H63.542C63.6863 14.4023 63.9421 14.1399 64.3094 13.9694C64.6767 13.7857 65.0637 13.6939 65.4704 13.6939H66.2772C67.2873 13.6939 68.0482 13.9694 68.5598 14.5203C69.0845 15.0713 69.3469 15.865 69.3469 16.9013V20.522C69.3469 21.5584 69.0845 22.3521 68.5598 22.903C68.0482 23.454 67.2873 23.7295 66.2772 23.7295H65.4704C65.0637 23.7295 64.6767 23.6442 64.3094 23.4737C63.9421 23.29 63.6863 23.0211 63.542 22.6669H63.4633V26.0121C63.4633 26.2745 63.3255 26.4057 63.05 26.4057ZM64.821 21.5649H65.6868C66.1066 21.5649 66.4018 21.4797 66.5723 21.3091C66.756 21.1255 66.8478 20.8238 66.8478 20.404V17.0194C66.8478 16.5996 66.756 16.3044 66.5723 16.1339C66.4018 15.9502 66.1066 15.8584 65.6868 15.8584H64.821C63.9159 15.8584 63.4633 16.3569 63.4633 17.3539V20.0694C63.4633 21.0664 63.9159 21.5649 64.821 21.5649ZM76.5168 23.7295H74.7655C73.7291 23.7295 72.9289 23.454 72.3648 22.903C71.8007 22.3521 71.5187 21.5584 71.5187 20.522V16.9013C71.5187 15.865 71.8007 15.0713 72.3648 14.5203C72.9289 13.9694 73.7291 13.6939 74.7655 13.6939H76.5168C77.54 13.6939 78.3337 13.9759 78.8978 14.54C79.475 15.091 79.7636 15.8781 79.7636 16.9013V20.522C79.7636 21.5453 79.475 22.3389 78.8978 22.903C78.3337 23.454 77.54 23.7295 76.5168 23.7295ZM75.1394 21.5846H76.1429C76.5627 21.5846 76.8579 21.4994 77.0284 21.3288C77.2121 21.1583 77.3039 20.8631 77.3039 20.4433V16.98C77.3039 16.5602 77.2121 16.2651 77.0284 16.0945C76.8579 15.924 76.5627 15.8387 76.1429 15.8387H75.1394C74.7196 15.8387 74.4244 15.924 74.2539 16.0945C74.0833 16.2651 73.9981 16.5602 73.9981 16.98V20.4433C73.9981 20.8631 74.0833 21.1583 74.2539 21.3288C74.4244 21.4994 74.7196 21.5846 75.1394 21.5846ZM84.2066 23.7295H82.534C82.2585 23.7295 82.1208 23.5917 82.1208 23.3163V14.1071C82.1208 13.8316 82.2585 13.6939 82.534 13.6939H84.2066C84.4821 13.6939 84.6199 13.8316 84.6199 14.1071V14.7761H84.6986C84.8429 14.4219 85.0987 14.153 85.466 13.9694C85.8333 13.7857 86.2203 13.6939 86.627 13.6939H87.3354C87.5978 13.6939 87.7289 13.8316 87.7289 14.1071V15.4649C87.7289 15.6223 87.6962 15.7338 87.6306 15.7994C87.5781 15.8519 87.4797 15.8715 87.3354 15.8584H85.9776C85.0725 15.8584 84.6199 16.37 84.6199 17.3933V23.3163C84.6199 23.5917 84.4821 23.7295 84.2066 23.7295ZM89.5911 15.8584H88.804C88.6466 15.8584 88.5351 15.8322 88.4695 15.7797C88.417 15.7272 88.3908 15.6223 88.3908 15.4649V14.1071C88.3908 13.8316 88.5285 13.6939 88.804 13.6939H89.5911C89.7354 13.6939 89.8076 13.6217 89.8076 13.4774V11.608C89.8076 11.3325 89.9519 11.1948 90.2405 11.1948H91.8934C92.1689 11.1948 92.3066 11.3325 92.3066 11.608V13.4774C92.3066 13.6217 92.3853 13.6939 92.5428 13.6939H94.0776C94.3531 13.6939 94.4909 13.8316 94.4909 14.1071V15.4649C94.4909 15.6092 94.4581 15.7141 94.3925 15.7797C94.34 15.8322 94.235 15.8584 94.0776 15.8584H92.5428C92.3853 15.8584 92.3066 15.9306 92.3066 16.0749V20.4236C92.3066 20.8303 92.3985 21.1255 92.5821 21.3091C92.7658 21.4797 93.0675 21.5649 93.4873 21.5649H94.2744C94.5499 21.5649 94.6876 21.7027 94.6876 21.9782V23.3359C94.6876 23.4802 94.6548 23.5852 94.5892 23.6508C94.5368 23.7033 94.4318 23.7295 94.2744 23.7295H93.0741C92.0377 23.7295 91.2309 23.454 90.6537 22.903C90.0896 22.3521 89.8076 21.5649 89.8076 20.5417V16.0749C89.8076 15.9306 89.7354 15.8584 89.5911 15.8584Z" fill="#121212"/>
<path d="M50.5623 41.3696H48.6732C48.4371 41.3696 48.3584 41.2319 48.4371 40.9564L51.5462 29.1301C51.638 28.8546 51.8348 28.7169 52.1365 28.7169H54.7537C55.0816 28.7169 55.2784 28.8546 55.344 29.1301L58.4531 40.9564C58.5318 41.2319 58.4531 41.3696 58.2169 41.3696H56.3279C56.1836 41.3696 56.0852 41.3434 56.0327 41.2909C55.9802 41.2253 55.9409 41.1138 55.9146 40.9564L55.3637 38.7918H51.5265L50.9755 40.9564C50.9493 41.1138 50.9034 41.2253 50.8378 41.2909C50.7853 41.3434 50.6935 41.3696 50.5623 41.3696ZM53.4156 31.0979L51.9988 36.7847H54.9111L53.4943 31.0979H53.4156ZM64.1919 41.3696H60.4531C60.1907 41.3696 60.0596 41.2319 60.0596 40.9564V39.697C60.0596 39.5527 60.0858 39.4543 60.1383 39.4019C60.1907 39.3363 60.2957 39.3035 60.4531 39.3035H63.7393C64.3821 39.3035 64.7035 39.1067 64.7035 38.7131V38.6148C64.7035 38.2999 64.4346 37.9982 63.8967 37.7096L61.9486 36.6273C61.2796 36.2862 60.7876 35.9189 60.4728 35.5254C60.1579 35.1318 60.0005 34.6267 60.0005 34.0102C60.0005 33.0919 60.2432 32.4163 60.7286 31.9834C61.214 31.5505 61.9749 31.334 63.0112 31.334H66.2974C66.5598 31.334 66.6909 31.4717 66.6909 31.7472V33.0263C66.6909 33.1706 66.6647 33.2755 66.6122 33.3411C66.5598 33.3936 66.4548 33.4198 66.2974 33.4198H63.5622C62.9194 33.4198 62.598 33.5838 62.598 33.9118V34.0102C62.598 34.2988 62.88 34.5939 63.4441 34.8957L65.4316 36.0763C66.1137 36.4436 66.5926 36.8241 66.868 37.2176C67.1435 37.5981 67.2813 38.1031 67.2813 38.7328C67.2813 40.4907 66.2515 41.3696 64.1919 41.3696ZM73.2136 41.3696H69.4749C69.2125 41.3696 69.0813 41.2319 69.0813 40.9564V39.697C69.0813 39.5527 69.1076 39.4543 69.16 39.4019C69.2125 39.3363 69.3175 39.3035 69.4749 39.3035H72.7611C73.4039 39.3035 73.7253 39.1067 73.7253 38.7131V38.6148C73.7253 38.2999 73.4563 37.9982 72.9185 37.7096L70.9704 36.6273C70.3013 36.2862 69.8094 35.9189 69.4946 35.5254C69.1797 35.1318 69.0223 34.6267 69.0223 34.0102C69.0223 33.0919 69.265 32.4163 69.7504 31.9834C70.2357 31.5505 70.9966 31.334 72.033 31.334H75.3192C75.5815 31.334 75.7127 31.4717 75.7127 31.7472V33.0263C75.7127 33.1706 75.6865 33.2755 75.634 33.3411C75.5815 33.3936 75.4766 33.4198 75.3192 33.4198H72.584C71.9411 33.4198 71.6197 33.5838 71.6197 33.9118V34.0102C71.6197 34.2988 71.9018 34.5939 72.4659 34.8957L74.4533 36.0763C75.1355 36.4436 75.6143 36.8241 75.8898 37.2176C76.1653 37.5981 76.303 38.1031 76.303 38.7328C76.303 40.4907 75.2732 41.3696 73.2136 41.3696ZM78.536 29.6417V27.9298C78.536 27.6674 78.6672 27.5362 78.9296 27.5362H80.6415C80.9039 27.5362 81.0351 27.6608 81.0351 27.9101V29.6417C81.0351 29.9041 80.9039 30.0353 80.6415 30.0353H78.9296C78.6672 30.0353 78.536 29.9041 78.536 29.6417ZM78.536 40.9564V31.7472C78.536 31.4717 78.6672 31.334 78.9296 31.334H80.6218C80.8973 31.334 81.0351 31.4717 81.0351 31.7472V40.9564C81.0351 41.1269 81.0023 41.2384 80.9367 41.2909C80.8842 41.3434 80.7858 41.3696 80.6415 41.3696H78.9492C78.6737 41.3696 78.536 41.2319 78.536 40.9564ZM87.4907 41.3696H83.752C83.4896 41.3696 83.3584 41.2319 83.3584 40.9564V39.697C83.3584 39.5527 83.3847 39.4543 83.4371 39.4019C83.4896 39.3363 83.5945 39.3035 83.752 39.3035H87.0381C87.681 39.3035 88.0024 39.1067 88.0024 38.7131V38.6148C88.0024 38.2999 87.7334 37.9982 87.1956 37.7096L85.2475 36.6273C84.5784 36.2862 84.0865 35.9189 83.7716 35.5254C83.4568 35.1318 83.2994 34.6267 83.2994 34.0102C83.2994 33.0919 83.5421 32.4163 84.0275 31.9834C84.5128 31.5505 85.2737 31.334 86.3101 31.334H89.5962C89.8586 31.334 89.9898 31.4717 89.9898 31.7472V33.0263C89.9898 33.1706 89.9636 33.2755 89.9111 33.3411C89.8586 33.3936 89.7537 33.4198 89.5962 33.4198H86.861C86.2182 33.4198 85.8968 33.5838 85.8968 33.9118V34.0102C85.8968 34.2988 86.1789 34.5939 86.743 34.8957L88.7304 36.0763C89.4126 36.4436 89.8914 36.8241 90.1669 37.2176C90.4424 37.5981 90.5801 38.1031 90.5801 38.7328C90.5801 40.4907 89.5503 41.3696 87.4907 41.3696ZM92.9312 33.4985H92.1441C91.9866 33.4985 91.8751 33.4723 91.8095 33.4198C91.7571 33.3674 91.7308 33.2624 91.7308 33.105V31.7472C91.7308 31.4717 91.8686 31.334 92.1441 31.334H92.9312C93.0755 31.334 93.1476 31.2618 93.1476 31.1175V29.2482C93.1476 28.9727 93.2919 28.8349 93.5805 28.8349H95.2335C95.5089 28.8349 95.6467 28.9727 95.6467 29.2482V31.1175C95.6467 31.2618 95.7254 31.334 95.8828 31.334H97.4177C97.6932 31.334 97.8309 31.4717 97.8309 31.7472V33.105C97.8309 33.2493 97.7981 33.3542 97.7325 33.4198C97.68 33.4723 97.5751 33.4985 97.4177 33.4985H95.8828C95.7254 33.4985 95.6467 33.5707 95.6467 33.715V38.0638C95.6467 38.4704 95.7385 38.7656 95.9222 38.9493C96.1058 39.1198 96.4076 39.2051 96.8273 39.2051H97.6145C97.8899 39.2051 98.0277 39.3428 98.0277 39.6183V40.9761C98.0277 41.1204 97.9949 41.2253 97.9293 41.2909C97.8768 41.3434 97.7719 41.3696 97.6145 41.3696H96.4141C95.3778 41.3696 94.571 41.0941 93.9938 40.5432C93.4297 39.9922 93.1476 39.2051 93.1476 38.1818V33.715C93.1476 33.5707 93.0755 33.4985 92.9312 33.4985Z" fill="#121212"/>
<path d="M29.9902 40.2764L29.9902 27.094L0.000382622 13.9117L0.000382046 27.094L29.9902 40.2764Z" fill="#29CF30"/>
<path d="M29.9902 0.729492L29.9902 13.9118L0.000380317 27.0942L0.000380894 13.9118L29.9902 0.729492Z" fill="url(#paint0_linear)"/>
<path d="M29.9902 27.0942L29.9902 40.2766L0.000380317 53.4589L0.000380894 40.2766L29.9902 27.0942Z" fill="url(#paint1_linear)"/>
<line x1="40.4999" y1="7.47647" x2="40.4999" y2="46.2294" stroke="#121212" stroke-width="0.952941" stroke-linecap="round"/>
<defs>
<linearGradient id="paint0_linear" x1="29.9902" y1="13.9118" x2="0.000380894" y2="13.9118" gradientUnits="userSpaceOnUse">
<stop stop-color="#2AD031"/>
<stop offset="1" stop-color="#45FF4C"/>
</linearGradient>
<linearGradient id="paint1_linear" x1="29.9902" y1="40.2766" x2="0.000380894" y2="40.2766" gradientUnits="userSpaceOnUse">
<stop stop-color="#45FF4C"/>
<stop offset="1" stop-color="#2AD031"/>
</linearGradient>
</defs>
</svg>
