<svg width="217" height="259" viewBox="0 0 217 259" fill="none" xmlns="http://www.w3.org/2000/svg">
<path d="M103.028 152.061H99V155.802H103.028V152.061Z" fill="#75D548"/>
<path d="M125.673 152.052H121.646V155.793H125.673V152.052Z" fill="#75D548"/>
<path d="M148.319 152.041H144.292V155.782H148.319V152.041Z" fill="#75D548"/>
<path d="M170.965 152.032H166.937V155.774H170.965V152.032Z" fill="#75D548"/>
<path d="M193.611 152.011H189.583V155.752H193.611V152.011Z" fill="#75D548"/>
<path d="M216.256 152H212.229V155.741H216.256V152Z" fill="#75D548"/>
<path d="M103.039 172.567H99.0107V176.309H103.039V172.567Z" fill="#75D548"/>
<path d="M125.685 172.558H121.657V176.299H125.685V172.558Z" fill="#75D548"/>
<path d="M148.33 172.537H144.302V176.278H148.33V172.537Z" fill="#75D548"/>
<path d="M170.976 172.527H166.948V176.269H170.976V172.527Z" fill="#75D548"/>
<path d="M193.622 172.517H189.594V176.258H193.622V172.517Z" fill="#75D548"/>
<path d="M216.267 172.506H212.239V176.247H216.267V172.506Z" fill="#75D548"/>
<path d="M103.05 193.063H99.022V196.805H103.05V193.063Z" fill="#75D548"/>
<path d="M125.695 193.054H121.667V196.795H125.695V193.054Z" fill="#75D548"/>
<path d="M148.341 193.043H144.313V196.784H148.341V193.043Z" fill="#75D548"/>
<path d="M170.987 193.033H166.959V196.775H170.987V193.033Z" fill="#75D548"/>
<path d="M193.632 193.023H189.604V196.765H193.632V193.023Z" fill="#75D548"/>
<path d="M216.278 193.003H212.25V196.744H216.278V193.003Z" fill="#75D548"/>
<path d="M103.061 213.57H99.0327V217.312H103.061V213.57Z" fill="#75D548"/>
<path d="M125.707 213.561H121.679V217.302H125.707V213.561Z" fill="#75D548"/>
<path d="M148.352 213.55H144.324V217.291H148.352V213.55Z" fill="#75D548"/>
<path d="M170.998 213.529H166.97V217.271H170.998V213.529Z" fill="#75D548"/>
<path d="M193.644 213.52H189.616V217.261H193.644V213.52Z" fill="#75D548"/>
<path d="M216.29 213.509H212.262V217.25H216.29V213.509Z" fill="#75D548"/>
<path d="M103.083 234.076H99.0547V237.818H103.083V234.076Z" fill="#75D548"/>
<path d="M125.728 234.057H121.7V237.798H125.728V234.057Z" fill="#75D548"/>
<path d="M148.374 234.046H144.346V237.787H148.374V234.046Z" fill="#75D548"/>
<path d="M171.02 234.036H166.992V237.777H171.02V234.036Z" fill="#75D548"/>
<path d="M193.666 234.025H189.638V237.767H193.666V234.025Z" fill="#75D548"/>
<path d="M216.311 234.016H212.283V237.757H216.311V234.016Z" fill="#75D548"/>
<path d="M103.093 254.573H99.0654V258.315H103.093V254.573Z" fill="#75D548"/>
<path d="M125.739 254.562H121.711V258.304H125.739V254.562Z" fill="#75D548"/>
<path d="M148.385 254.553H144.357V258.294H148.385V254.553Z" fill="#75D548"/>
<path d="M171.031 254.542H167.003V258.283H171.031V254.542Z" fill="#75D548"/>
<path d="M193.676 254.522H189.648V258.264H193.676V254.522Z" fill="#75D548"/>
<path d="M216.322 254.512H212.294V258.253H216.322V254.512Z" fill="#75D548"/>
<line x1="5.5" y1="-6.55671e-08" x2="5.50001" y2="258" stroke="#F3F3F3" stroke-width="3"/>
<rect y="151" width="11" height="62" rx="5.5" fill="#F3F3F3"/>
</svg>
