<svg width="86" height="87" viewBox="0 0 86 87" fill="none" xmlns="http://www.w3.org/2000/svg">
<path d="M42.3528 77.0527L40.0267 66.1864L41.4927 65.85L41.493 65.8499C47.3847 64.4947 52.4394 60.9626 55.7263 55.9137C59.0132 50.8645 60.1423 44.8928 58.9007 39.1036C57.6646 33.3133 54.1993 28.3935 49.1534 25.2565C44.1073 22.1195 38.0808 21.1415 32.1918 22.4993L32.1921 22.4992L42.3528 77.0527ZM42.3528 77.0527L43.7998 76.7207L42.3528 77.0527ZM30.7447 22.8314L28.4157 11.9625L29.8818 11.626L29.8821 11.6259C38.7289 9.58906 47.7684 11.0583 55.338 15.7646L55.3386 15.765C56.6935 16.6045 57.9681 17.5309 59.1647 18.5358C64.6549 23.1463 68.4279 29.3979 69.9598 36.538C71.8209 45.2297 70.1287 54.198 65.1854 61.7909C60.2446 69.3808 52.6471 74.6835 43.8001 76.7206L30.7447 22.8314ZM30.7447 22.8314L32.1916 22.4993L30.7447 22.8314Z" stroke="#29CF30"/>
<path d="M81.915 82.3343C83.4314 80.0726 82.8319 77.0665 80.576 75.6198C78.3201 74.1732 75.2621 74.8339 73.7457 77.0955C72.2293 79.3571 72.8288 82.3632 75.0847 83.8098C77.3406 85.2565 80.3986 84.5959 81.915 82.3343Z" stroke="#29CF30" stroke-miterlimit="10"/>
<path d="M11.59 28.492C12.2208 28.3557 12.6319 27.7426 12.5083 27.1225C12.3846 26.5024 11.773 26.1101 11.1422 26.2464C10.5113 26.3827 10.1002 26.9959 10.2239 27.616C10.3476 28.2361 10.9592 28.6283 11.59 28.492Z" fill="#29CF30"/>
</svg>
