<svg width="13" height="13" viewBox="0 0 13 13" fill="none" xmlns="http://www.w3.org/2000/svg">
<path d="M8.85277 5.71513C8.65751 5.91039 8.65751 6.22697 8.85277 6.42223C9.04804 6.6175 9.36462 6.6175 9.55988 6.42223L8.85277 5.71513ZM6.52554 4.39934L9.30702 1.61786L8.59991 0.910756L5.81843 3.69223L6.52554 4.39934ZM11.1285 3.43937L8.85277 5.71513L9.55988 6.42223L11.8356 4.14648L11.1285 3.43937ZM6.52554 6.72657C5.88289 6.08393 5.88289 5.04199 6.52554 4.39934L5.81843 3.69223C4.78526 4.72541 4.78526 6.40051 5.81843 7.43368L6.52554 6.72657ZM11.1285 1.61786C11.6315 2.12086 11.6315 2.93638 11.1285 3.43937L11.8356 4.14648C12.7292 3.25296 12.7292 1.80428 11.8356 0.910755L11.1285 1.61786ZM11.8356 0.910755C10.9421 0.0172341 9.49343 0.0172362 8.59991 0.910756L9.30702 1.61786C9.81001 1.11487 10.6255 1.11487 11.1285 1.61786L11.8356 0.910755Z" fill="#29CF30"/>
<path d="M4.5027 6.42257C4.69796 6.22731 4.69796 5.91072 4.5027 5.71546C4.30743 5.5202 3.99085 5.5202 3.79559 5.71546L4.5027 6.42257ZM6.82993 7.73836L4.04845 10.5198L4.75556 11.2269L7.53704 8.44546L6.82993 7.73836ZM2.22694 8.69832L4.5027 6.42257L3.79559 5.71546L1.51983 7.99122L2.22694 8.69832ZM6.82993 5.41112C7.47258 6.05377 7.47258 7.09571 6.82993 7.73836L7.53704 8.44546C8.57021 7.41229 8.57021 5.73719 7.53704 4.70402L6.82993 5.41112ZM2.22694 10.5198C1.72394 10.0168 1.72394 9.20132 2.22694 8.69832L1.51983 7.99122C0.626313 8.88474 0.626313 10.3334 1.51983 11.2269L2.22694 10.5198ZM1.51983 11.2269C2.41335 12.1205 3.86204 12.1205 4.75556 11.2269L4.04845 10.5198C3.54545 11.0228 2.72994 11.0228 2.22694 10.5198L1.51983 11.2269Z" fill="#29CF30"/>
</svg>
