<svg width="110" height="53" viewBox="0 0 110 53" fill="none" xmlns="http://www.w3.org/2000/svg">
<path d="M49.8451 19.7729V19.3793C49.8451 19.1038 49.9828 18.9661 50.2583 18.9661H51.9309C52.2064 18.9661 52.3441 19.1038 52.3441 19.3793V19.5367C52.3441 20.0352 52.4425 20.3763 52.6393 20.56C52.8361 20.7436 53.1968 20.8355 53.7216 20.8355H54.6464C55.158 20.8355 55.5122 20.7371 55.709 20.5403C55.9189 20.3435 56.0239 19.9762 56.0239 19.4383V19.2022C56.0239 18.8218 55.8664 18.5332 55.5516 18.3364C55.2499 18.1265 54.8694 18.0019 54.4103 17.9625C53.9511 17.9232 53.4526 17.851 52.9148 17.7461C52.39 17.628 51.8981 17.4837 51.439 17.3131C50.9798 17.1295 50.5928 16.7818 50.278 16.2702C49.9763 15.7455 49.8254 15.0764 49.8254 14.2631V13.5744C49.8254 12.5511 50.114 11.7575 50.6912 11.1934C51.2684 10.6293 52.0686 10.3472 53.0919 10.3472H55.0597C56.096 10.3472 56.9028 10.6293 57.48 11.1934C58.0572 11.7575 58.3458 12.5511 58.3458 13.5744V13.9483C58.3458 14.2237 58.2081 14.3615 57.9326 14.3615H56.26C55.9845 14.3615 55.8468 14.2237 55.8468 13.9483V13.8302C55.8468 13.3186 55.7484 12.9709 55.5516 12.7873C55.3548 12.6036 54.9941 12.5118 54.4693 12.5118H53.7019C53.164 12.5118 52.7967 12.6167 52.5999 12.8266C52.4163 13.0234 52.3245 13.417 52.3245 14.0073V14.3812C52.3245 14.9977 52.8623 15.3519 53.938 15.4438C55.0531 15.5356 56.0435 15.7586 56.9094 16.1128C57.3685 16.3096 57.7489 16.6638 58.0507 17.1754C58.3655 17.6739 58.5229 18.3167 58.5229 19.1038V19.7729C58.5229 20.7961 58.2343 21.5898 57.6571 22.1539C57.0799 22.718 56.2797 23 55.2564 23H53.1116C52.0883 23 51.2881 22.718 50.7109 22.1539C50.1337 21.5898 49.8451 20.7961 49.8451 19.7729ZM63.05 25.6762H61.3774C61.1019 25.6762 60.9642 25.545 60.9642 25.2826V13.3776C60.9642 13.1021 61.1019 12.9644 61.3774 12.9644H63.05C63.3255 12.9644 63.4633 13.1021 63.4633 13.3776V14.027H63.542C63.6863 13.6728 63.9421 13.4104 64.3094 13.2399C64.6767 13.0562 65.0637 12.9644 65.4704 12.9644H66.2772C67.2873 12.9644 68.0482 13.2399 68.5598 13.7908C69.0845 14.3418 69.3469 15.1355 69.3469 16.1718V19.7925C69.3469 20.8289 69.0845 21.6226 68.5598 22.1735C68.0482 22.7245 67.2873 23 66.2772 23H65.4704C65.0637 23 64.6767 22.9147 64.3094 22.7442C63.9421 22.5605 63.6863 22.2916 63.542 21.9374H63.4633V25.2826C63.4633 25.545 63.3255 25.6762 63.05 25.6762ZM64.821 20.8355H65.6868C66.1066 20.8355 66.4018 20.7502 66.5723 20.5796C66.756 20.396 66.8478 20.0943 66.8478 19.6745V16.2899C66.8478 15.8701 66.756 15.5749 66.5723 15.4044C66.4018 15.2207 66.1066 15.1289 65.6868 15.1289H64.821C63.9159 15.1289 63.4633 15.6274 63.4633 16.6244V19.3399C63.4633 20.337 63.9159 20.8355 64.821 20.8355ZM76.5168 23H74.7655C73.7291 23 72.9289 22.7245 72.3648 22.1735C71.8007 21.6226 71.5187 20.8289 71.5187 19.7925V16.1718C71.5187 15.1355 71.8007 14.3418 72.3648 13.7908C72.9289 13.2399 73.7291 12.9644 74.7655 12.9644H76.5168C77.54 12.9644 78.3337 13.2464 78.8978 13.8105C79.475 14.3615 79.7636 15.1486 79.7636 16.1718V19.7925C79.7636 20.8158 79.475 21.6094 78.8978 22.1735C78.3337 22.7245 77.54 23 76.5168 23ZM75.1394 20.8551H76.1429C76.5627 20.8551 76.8579 20.7699 77.0284 20.5993C77.2121 20.4288 77.3039 20.1336 77.3039 19.7138V16.2505C77.3039 15.8308 77.2121 15.5356 77.0284 15.3651C76.8579 15.1945 76.5627 15.1092 76.1429 15.1092H75.1394C74.7196 15.1092 74.4244 15.1945 74.2539 15.3651C74.0833 15.5356 73.9981 15.8308 73.9981 16.2505V19.7138C73.9981 20.1336 74.0833 20.4288 74.2539 20.5993C74.4244 20.7699 74.7196 20.8551 75.1394 20.8551ZM84.2066 23H82.534C82.2585 23 82.1208 22.8623 82.1208 22.5868V13.3776C82.1208 13.1021 82.2585 12.9644 82.534 12.9644H84.2066C84.4821 12.9644 84.6199 13.1021 84.6199 13.3776V14.0466H84.6986C84.8429 13.6924 85.0987 13.4235 85.466 13.2399C85.8333 13.0562 86.2203 12.9644 86.627 12.9644H87.3354C87.5978 12.9644 87.7289 13.1021 87.7289 13.3776V14.7354C87.7289 14.8928 87.6962 15.0043 87.6306 15.0699C87.5781 15.1224 87.4797 15.142 87.3354 15.1289H85.9776C85.0725 15.1289 84.6199 15.6405 84.6199 16.6638V22.5868C84.6199 22.8623 84.4821 23 84.2066 23ZM89.5911 15.1289H88.804C88.6466 15.1289 88.5351 15.1027 88.4695 15.0502C88.417 14.9977 88.3908 14.8928 88.3908 14.7354V13.3776C88.3908 13.1021 88.5285 12.9644 88.804 12.9644H89.5911C89.7354 12.9644 89.8076 12.8922 89.8076 12.7479V10.8785C89.8076 10.603 89.9519 10.4653 90.2405 10.4653H91.8934C92.1689 10.4653 92.3066 10.603 92.3066 10.8785V12.7479C92.3066 12.8922 92.3853 12.9644 92.5428 12.9644H94.0776C94.3531 12.9644 94.4909 13.1021 94.4909 13.3776V14.7354C94.4909 14.8797 94.4581 14.9846 94.3925 15.0502C94.34 15.1027 94.235 15.1289 94.0776 15.1289H92.5428C92.3853 15.1289 92.3066 15.2011 92.3066 15.3454V19.6941C92.3066 20.1008 92.3985 20.396 92.5821 20.5796C92.7658 20.7502 93.0675 20.8355 93.4873 20.8355H94.2744C94.5499 20.8355 94.6876 20.9732 94.6876 21.2487V22.6064C94.6876 22.7507 94.6548 22.8557 94.5892 22.9213C94.5368 22.9738 94.4318 23 94.2744 23H93.0741C92.0377 23 91.2309 22.7245 90.6537 22.1735C90.0896 21.6226 89.8076 20.8355 89.8076 19.8122V15.3454C89.8076 15.2011 89.7354 15.1289 89.5911 15.1289Z" fill="white"/>
<path d="M50.5623 40.6396H48.6732C48.4371 40.6396 48.3584 40.5019 48.4371 40.2264L51.5462 28.4001C51.638 28.1246 51.8348 27.9869 52.1365 27.9869H54.7537C55.0816 27.9869 55.2784 28.1246 55.344 28.4001L58.4531 40.2264C58.5318 40.5019 58.4531 40.6396 58.2169 40.6396H56.3279C56.1836 40.6396 56.0852 40.6134 56.0327 40.5609C55.9802 40.4953 55.9409 40.3838 55.9146 40.2264L55.3637 38.0619H51.5265L50.9755 40.2264C50.9493 40.3838 50.9034 40.4953 50.8378 40.5609C50.7853 40.6134 50.6935 40.6396 50.5623 40.6396ZM53.4156 30.3679L51.9988 36.0547H54.9111L53.4943 30.3679H53.4156ZM64.1919 40.6396H60.4531C60.1907 40.6396 60.0596 40.5019 60.0596 40.2264V38.967C60.0596 38.8227 60.0858 38.7244 60.1383 38.6719C60.1907 38.6063 60.2957 38.5735 60.4531 38.5735H63.7393C64.3821 38.5735 64.7035 38.3767 64.7035 37.9832V37.8848C64.7035 37.5699 64.4346 37.2682 63.8967 36.9796L61.9486 35.8973C61.2796 35.5562 60.7876 35.1889 60.4728 34.7954C60.1579 34.4018 60.0005 33.8968 60.0005 33.2802C60.0005 32.3619 60.2432 31.6863 60.7286 31.2534C61.214 30.8205 61.9749 30.604 63.0112 30.604H66.2974C66.5598 30.604 66.6909 30.7418 66.6909 31.0173V32.2963C66.6909 32.4406 66.6647 32.5456 66.6122 32.6111C66.5598 32.6636 66.4548 32.6899 66.2974 32.6899H63.5622C62.9194 32.6899 62.598 32.8538 62.598 33.1818V33.2802C62.598 33.5688 62.88 33.864 63.4441 34.1657L65.4316 35.3463C66.1137 35.7137 66.5926 36.0941 66.868 36.4877C67.1435 36.8681 67.2813 37.3731 67.2813 38.0028C67.2813 39.7607 66.2515 40.6396 64.1919 40.6396ZM73.2136 40.6396H69.4749C69.2125 40.6396 69.0813 40.5019 69.0813 40.2264V38.967C69.0813 38.8227 69.1076 38.7244 69.16 38.6719C69.2125 38.6063 69.3175 38.5735 69.4749 38.5735H72.7611C73.4039 38.5735 73.7253 38.3767 73.7253 37.9832V37.8848C73.7253 37.5699 73.4563 37.2682 72.9185 36.9796L70.9704 35.8973C70.3013 35.5562 69.8094 35.1889 69.4946 34.7954C69.1797 34.4018 69.0223 33.8968 69.0223 33.2802C69.0223 32.3619 69.265 31.6863 69.7504 31.2534C70.2357 30.8205 70.9966 30.604 72.033 30.604H75.3192C75.5815 30.604 75.7127 30.7418 75.7127 31.0173V32.2963C75.7127 32.4406 75.6865 32.5456 75.634 32.6111C75.5815 32.6636 75.4766 32.6899 75.3192 32.6899H72.584C71.9411 32.6899 71.6197 32.8538 71.6197 33.1818V33.2802C71.6197 33.5688 71.9018 33.864 72.4659 34.1657L74.4533 35.3463C75.1355 35.7137 75.6143 36.0941 75.8898 36.4877C76.1653 36.8681 76.303 37.3731 76.303 38.0028C76.303 39.7607 75.2732 40.6396 73.2136 40.6396ZM78.536 28.9117V27.1998C78.536 26.9374 78.6672 26.8062 78.9296 26.8062H80.6415C80.9039 26.8062 81.0351 26.9308 81.0351 27.1801V28.9117C81.0351 29.1741 80.9039 29.3053 80.6415 29.3053H78.9296C78.6672 29.3053 78.536 29.1741 78.536 28.9117ZM78.536 40.2264V31.0173C78.536 30.7418 78.6672 30.604 78.9296 30.604H80.6218C80.8973 30.604 81.0351 30.7418 81.0351 31.0173V40.2264C81.0351 40.397 81.0023 40.5085 80.9367 40.5609C80.8842 40.6134 80.7858 40.6396 80.6415 40.6396H78.9492C78.6737 40.6396 78.536 40.5019 78.536 40.2264ZM87.4907 40.6396H83.752C83.4896 40.6396 83.3584 40.5019 83.3584 40.2264V38.967C83.3584 38.8227 83.3847 38.7244 83.4371 38.6719C83.4896 38.6063 83.5945 38.5735 83.752 38.5735H87.0381C87.681 38.5735 88.0024 38.3767 88.0024 37.9832V37.8848C88.0024 37.5699 87.7334 37.2682 87.1956 36.9796L85.2475 35.8973C84.5784 35.5562 84.0865 35.1889 83.7716 34.7954C83.4568 34.4018 83.2994 33.8968 83.2994 33.2802C83.2994 32.3619 83.5421 31.6863 84.0275 31.2534C84.5128 30.8205 85.2737 30.604 86.3101 30.604H89.5962C89.8586 30.604 89.9898 30.7418 89.9898 31.0173V32.2963C89.9898 32.4406 89.9636 32.5456 89.9111 32.6111C89.8586 32.6636 89.7537 32.6899 89.5962 32.6899H86.861C86.2182 32.6899 85.8968 32.8538 85.8968 33.1818V33.2802C85.8968 33.5688 86.1789 33.864 86.743 34.1657L88.7304 35.3463C89.4126 35.7137 89.8914 36.0941 90.1669 36.4877C90.4424 36.8681 90.5801 37.3731 90.5801 38.0028C90.5801 39.7607 89.5503 40.6396 87.4907 40.6396ZM92.9312 32.7686H92.1441C91.9866 32.7686 91.8751 32.7423 91.8095 32.6899C91.7571 32.6374 91.7308 32.5324 91.7308 32.375V31.0173C91.7308 30.7418 91.8686 30.604 92.1441 30.604H92.9312C93.0755 30.604 93.1476 30.5319 93.1476 30.3876V28.5182C93.1476 28.2427 93.2919 28.105 93.5805 28.105H95.2335C95.5089 28.105 95.6467 28.2427 95.6467 28.5182V30.3876C95.6467 30.5319 95.7254 30.604 95.8828 30.604H97.4177C97.6932 30.604 97.8309 30.7418 97.8309 31.0173V32.375C97.8309 32.5193 97.7981 32.6243 97.7325 32.6899C97.68 32.7423 97.5751 32.7686 97.4177 32.7686H95.8828C95.7254 32.7686 95.6467 32.8407 95.6467 32.985V37.3338C95.6467 37.7405 95.7385 38.0356 95.9222 38.2193C96.1058 38.3898 96.4076 38.4751 96.8273 38.4751H97.6145C97.8899 38.4751 98.0277 38.6128 98.0277 38.8883V40.2461C98.0277 40.3904 97.9949 40.4953 97.9293 40.5609C97.8768 40.6134 97.7719 40.6396 97.6145 40.6396H96.4141C95.3778 40.6396 94.571 40.3642 93.9938 39.8132C93.4297 39.2622 93.1476 38.4751 93.1476 37.4519V32.985C93.1476 32.8407 93.0755 32.7686 92.9312 32.7686Z" fill="white"/>
<path d="M29.9902 39.5469L29.9902 26.3645L0.000382622 13.1822L0.000382046 26.3645L29.9902 39.5469Z" fill="#29CF30"/>
<path d="M29.9902 0L29.9902 13.1824L0.000380317 26.3647L0.000380894 13.1824L29.9902 0Z" fill="url(#paint0_linear)"/>
<path d="M29.9902 26.3643L29.9902 39.5466L0.000380317 52.729L0.000380894 39.5466L29.9902 26.3643Z" fill="url(#paint1_linear)"/>
<line x1="40.4999" y1="6.74698" x2="40.4999" y2="45.4999" stroke="white" stroke-width="0.952941" stroke-linecap="round"/>
<defs>
<linearGradient id="paint0_linear" x1="29.9902" y1="13.1824" x2="0.000380894" y2="13.1824" gradientUnits="userSpaceOnUse">
<stop stop-color="#29CF30"/>
<stop offset="1" stop-color="#45FF4C"/>
</linearGradient>
<linearGradient id="paint1_linear" x1="29.9902" y1="39.5466" x2="0.000380894" y2="39.5466" gradientUnits="userSpaceOnUse">
<stop stop-color="#45FF4C"/>
<stop offset="1" stop-color="#29CF30"/>
</linearGradient>
</defs>
</svg>
