<svg width="1440" height="1027" viewBox="0 0 1440 1027" fill="none" xmlns="http://www.w3.org/2000/svg">
<path d="M1440.23 620.278H1399.58V665.917H1350.45V703.677H1399.58V749.315H1440.23V620.278Z" fill="#29CF30"/>
<path d="M1371.95 617.187L1367.77 605.617L1380.21 601.744L1377.63 594.566L1365.17 598.45L1361 586.88L1353.27 589.289L1357.46 600.859L1345 604.733L1347.59 611.911L1360.04 608.027L1364.22 619.597L1371.95 617.187Z" fill="#29CF30"/>
<path d="M711.936 57.9924L707.766 46.4327L720.211 42.549L717.617 35.3814L705.172 39.255L700.991 27.6953L693.264 30.1048L697.445 41.6645L685 45.5482L687.594 52.726L700.039 48.8423L704.22 60.4019L711.936 57.9924Z" fill="#29CF30"/>
<path d="M1010.77 415.17L1077.26 388.577L1105.9 450.335L1147.15 433.833L1118.52 372.066L1185 345.472L1167.24 307.146L1100.74 333.748L1072.11 271.99L1030.85 288.492L1059.49 350.25L993 376.853L1010.77 415.17Z" stroke="white" stroke-width="1.3615" stroke-miterlimit="10"/>
<path d="M94.3214 4.5127H84V14.1H94.3214V4.5127Z" fill="white"/>
<path d="M116.967 4.50391H106.646V14.0912H116.967V4.50391Z" fill="white"/>
<path d="M139.612 4.48438H129.291V14.0717H139.612V4.48438Z" fill="white"/>
<path d="M162.259 4.47363H151.938V14.0609H162.259V4.47363Z" fill="white"/>
<path d="M94.3429 25.0107H84.0215V34.598H94.3429V25.0107Z" fill="white"/>
<path d="M116.989 25H106.668V34.5873H116.989V25Z" fill="white"/>
<path d="M139.635 24.9902H129.313V34.5775H139.635V24.9902Z" fill="white"/>
<path d="M162.28 24.9805H151.959V34.5677H162.28V24.9805Z" fill="white"/>
<path d="M94.3546 45.5166H84.0332V55.1039H94.3546V45.5166Z" fill="white"/>
<path d="M117 45.5068H106.679V55.0941H117V45.5068Z" fill="white"/>
<path d="M139.646 45.4971H129.324V55.0844H139.646V45.4971Z" fill="white"/>
<path d="M162.291 45.4766H151.97V55.0638H162.291V45.4766Z" fill="white"/>
<path d="M94.3653 66.0234H84.0439V75.6107H94.3653V66.0234Z" fill="white"/>
<path d="M117.011 66.0029H106.689V75.5902H117.011V66.0029Z" fill="white"/>
<path d="M139.656 65.9932H129.335V75.5805H139.656V65.9932Z" fill="white"/>
<path d="M162.302 65.9824H151.98V75.5697H162.302V65.9824Z" fill="white"/>
<path d="M152.441 254.342H-23V417.305H152.441V254.342Z" stroke="white" stroke-width="1.3615" stroke-miterlimit="10"/>
<path d="M140.709 689.812L135.672 691.795C120.782 697.674 104.316 697.812 89.312 692.184C74.3075 686.556 62.5545 675.839 56.2401 662.004C49.9107 648.173 49.7614 632.879 55.8206 618.941C61.8799 605.004 73.4176 594.087 88.317 588.213L93.3537 586.23L80.1295 557.302L75.0927 559.285C51.8854 568.44 33.893 585.452 24.4526 607.167C15.0068 628.891 15.2414 652.731 25.0975 674.288C33.2017 691.994 46.9895 706.432 64.6108 715.882C68.4497 717.941 72.4608 719.763 76.6456 721.326C100.033 730.1 125.698 729.882 148.906 720.727L153.942 718.744L140.709 689.812Z" fill="#29CF30"/>
<path d="M1196.52 88.0285L1201.86 86.87C1217.66 83.4284 1233.81 85.9077 1247.33 93.8514C1260.85 101.795 1270.13 114.249 1273.45 128.918C1276.78 143.586 1273.75 158.717 1264.93 171.522C1256.11 184.326 1242.55 193.277 1226.75 196.712L1221.41 197.87L1228.35 228.546L1233.7 227.388C1258.31 222.032 1279.46 208.087 1293.2 188.136C1306.95 168.178 1311.66 144.592 1306.48 121.732C1302.22 102.955 1291.72 86.5022 1276.42 74.3677C1273.09 71.724 1269.54 69.2866 1265.77 67.0774C1244.69 54.6944 1219.52 50.8317 1194.9 56.1876L1189.56 57.3462L1196.52 88.0285Z" fill="#29CF30"/>
<path d="M126.9 743.116L117.728 734.373L127.13 725.863L121.449 720.444L112.048 728.954L102.875 720.221L97.0416 725.507L106.214 734.241L96.8008 742.75L102.492 748.169L111.894 739.66L121.055 748.393L126.9 743.116Z" fill="white"/>
<path d="M448.441 71.762C453.861 66.7276 453.861 58.5653 448.441 53.5309C443.021 48.4965 434.233 48.4965 428.814 53.5309C423.394 58.5653 423.394 66.7277 428.814 71.7621C434.233 76.7965 443.021 76.7964 448.441 71.762Z" stroke="white" stroke-width="1.3615" stroke-miterlimit="10"/>
<path d="M1312.23 186.938C1316.49 180.926 1314.81 172.934 1308.46 169.088C1302.11 165.242 1293.51 166.998 1289.24 173.011C1284.98 179.023 1286.66 187.015 1293.01 190.861C1299.36 194.707 1307.96 192.951 1312.23 186.938Z" stroke="white" stroke-width="1.3615" stroke-miterlimit="10"/>
<path d="M172.108 1016.58C177.095 1011.17 176.419 1003.03 170.598 998.4C164.777 993.768 156.016 994.396 151.029 999.803C146.043 1005.21 146.719 1013.35 152.539 1017.98C158.36 1022.61 167.121 1021.98 172.108 1016.58Z" stroke="white" stroke-width="1.3615" stroke-miterlimit="10"/>
<path d="M130.788 374.673C132.559 367.746 127.948 360.796 120.49 359.152C113.032 357.507 105.551 361.79 103.78 368.717C102.01 375.645 106.62 382.594 114.078 384.239C121.536 385.883 129.017 381.601 130.788 374.673Z" stroke="white" stroke-width="1.3615" stroke-miterlimit="10"/>
<path d="M335.126 40.9343C337.405 40.9343 339.253 39.2183 339.253 37.1014C339.253 34.9846 337.405 33.2686 335.126 33.2686C332.847 33.2686 331 34.9846 331 37.1014C331 39.2183 332.847 40.9343 335.126 40.9343Z" fill="#29CF30"/>
<path d="M410.786 7.89236C413.065 7.89236 414.913 6.17631 414.913 4.05946C414.913 1.94261 413.065 0.226562 410.786 0.226562C408.508 0.226562 406.66 1.94261 406.66 4.05946C406.66 6.17631 408.508 7.89236 410.786 7.89236Z" fill="#29CF30"/>
<path d="M1170.57 77.5258C1172.8 77.0703 1174.26 75.0208 1173.82 72.9481C1173.38 70.8754 1171.22 69.5645 1168.99 70.02C1166.76 70.4755 1165.3 72.525 1165.74 74.5976C1166.18 76.6703 1168.34 77.9813 1170.57 77.5258Z" fill="#29CF30"/>
<path d="M1266.6 620.94C1268.87 620.94 1270.72 619.224 1270.72 617.107C1270.72 614.99 1268.87 613.274 1266.6 613.274C1264.32 613.274 1262.47 614.99 1262.47 617.107C1262.47 619.224 1264.32 620.94 1266.6 620.94Z" fill="#29CF30"/>
<path d="M68.8523 320.66C68.8523 322.775 67.0026 324.493 64.726 324.493C62.4494 324.493 60.5996 322.775 60.5996 320.66C60.5996 318.545 62.4494 316.827 64.726 316.827C67.0026 316.827 68.8523 318.545 68.8523 320.66Z" fill="#29CF30"/>
<path d="M1305.25 372.427C1305.25 374.541 1303.4 376.26 1301.13 376.26C1298.85 376.26 1297 374.541 1297 372.427C1297 370.312 1298.85 368.594 1301.13 368.594C1303.4 368.594 1305.25 370.312 1305.25 372.427Z" fill="#29CF30"/>
<path d="M70.7504 694.63C73.0293 694.63 74.8767 692.914 74.8767 690.797C74.8767 688.68 73.0293 686.964 70.7504 686.964C68.4715 686.964 66.624 688.68 66.624 690.797C66.624 692.914 68.4715 694.63 70.7504 694.63Z" fill="#29CF30"/>
</svg>
