<svg width="443" height="491" viewBox="0 0 443 491" fill="none" xmlns="http://www.w3.org/2000/svg">
<path d="M66.9652 154.858L147.376 153.837L148.481 228.535L198.373 227.899L197.281 153.196L277.691 152.176L277.013 105.822L196.589 106.848L195.493 32.1533L145.592 32.7851L146.697 107.483L66.2733 108.509L66.9652 154.858Z" stroke="#E6E6E6" stroke-width="2" stroke-miterlimit="10"/>
<path d="M44.056 273.13L71.4083 245.564L101.09 270.97L118.06 253.866L88.3812 228.453L115.734 200.887L97.3173 185.118L69.9623 212.69L40.2857 187.282L23.3106 204.388L52.992 229.795L25.6371 257.367L44.056 273.13Z" stroke="#E6E6E6" stroke-width="2" stroke-miterlimit="10"/>
<path d="M300.878 309.293H294V315.682H300.878V309.293Z" fill="#29CF30"/>
<path d="M339.551 309.276H332.672V315.665H339.551V309.276Z" fill="#29CF30"/>
<path d="M378.223 309.258H371.345V315.647H378.223V309.258Z" fill="#29CF30"/>
<path d="M416.896 309.239H410.017V315.628H416.896V309.239Z" fill="#29CF30"/>
<path d="M300.897 344.311H294.019V350.7H300.897V344.311Z" fill="#29CF30"/>
<path d="M339.569 344.294H332.691V350.683H339.569V344.294Z" fill="#29CF30"/>
<path d="M378.242 344.26H371.363V350.648H378.242V344.26Z" fill="#29CF30"/>
<path d="M416.914 344.242H410.036V350.631H416.914V344.242Z" fill="#29CF30"/>
<path d="M300.916 379.313H294.038V385.702H300.916V379.313Z" fill="#29CF30"/>
<path d="M339.588 379.296H332.71V385.685H339.588V379.296Z" fill="#29CF30"/>
<path d="M378.26 379.278H371.382V385.667H378.26V379.278Z" fill="#29CF30"/>
<path d="M416.932 379.261H410.054V385.65H416.932V379.261Z" fill="#29CF30"/>
<path d="M300.935 414.332H294.056V420.722H300.935V414.332Z" fill="#29CF30"/>
<path d="M339.607 414.314H332.729V420.704H339.607V414.314Z" fill="#29CF30"/>
<path d="M378.279 414.297H371.401V420.687H378.279V414.297Z" fill="#29CF30"/>
<path d="M416.952 414.263H410.073V420.652H416.952V414.263Z" fill="#29CF30"/>
<path d="M300.953 449.35H294.075V455.739H300.953V449.35Z" fill="#29CF30"/>
<path d="M339.626 449.316H332.747V455.706H339.626V449.316Z" fill="#29CF30"/>
<path d="M378.297 449.299H371.419V455.688H378.297V449.299Z" fill="#29CF30"/>
<path d="M416.97 449.282H410.092V455.671H416.97V449.282Z" fill="#29CF30"/>
<path d="M300.972 484.353H294.094V490.742H300.972V484.353Z" fill="#29CF30"/>
<path d="M339.644 484.335H332.766V490.724H339.644V484.335Z" fill="#29CF30"/>
<path d="M378.316 484.318H371.438V490.707H378.316V484.318Z" fill="#29CF30"/>
<path d="M416.989 484.3H410.11V490.69H416.989V484.3Z" fill="#29CF30"/>
</svg>
