<svg width="1415" height="441" viewBox="0 0 1415 441" fill="none" xmlns="http://www.w3.org/2000/svg">
<path d="M26.895 0.0908203H20.0166V6.85596H26.895V0.0908203Z" fill="#29CF30"/>
<path d="M65.5678 0.0546875H58.6895V6.81885H65.5678V0.0546875Z" fill="#29CF30"/>
<path d="M104.24 0.0361328H97.3613V6.80078H104.24V0.0361328Z" fill="#29CF30"/>
<path d="M26.9145 37.1514H20.0361V43.9165H26.9145V37.1514Z" fill="#29CF30"/>
<path d="M65.5864 37.1328H58.708V43.8979H65.5864V37.1328Z" fill="#29CF30"/>
<path d="M104.258 37.1147H97.3799V43.8794H104.258V37.1147Z" fill="#29CF30"/>
<path d="M26.9331 74.23H20.0547V80.9951H26.9331V74.23Z" fill="#29CF30"/>
<path d="M65.6049 74.2109H58.7266V80.9761H65.6049V74.2109Z" fill="#29CF30"/>
<path d="M104.277 74.1743H97.3984V80.9395H104.277V74.1743Z" fill="#29CF30"/>
<path d="M26.9516 111.29H20.0732V118.055H26.9516V111.29Z" fill="#29CF30"/>
<path d="M65.6235 111.271H58.7451V118.037H65.6235V111.271Z" fill="#29CF30"/>
<path d="M104.295 111.253H97.417V118.018H104.295V111.253Z" fill="#29CF30"/>
<path d="M26.9703 148.368H20.0918V155.133H26.9703V148.368Z" fill="#29CF30"/>
<path d="M65.642 148.35H58.7637V155.114H65.642V148.35Z" fill="#29CF30"/>
<path d="M104.314 148.332H97.4355V155.096H104.314V148.332Z" fill="#29CF30"/>
<path d="M26.9887 185.447H20.1104V192.212H26.9887V185.447Z" fill="#29CF30"/>
<path d="M65.6606 185.428H58.7822V192.192H65.6606V185.428Z" fill="#29CF30"/>
<path d="M104.333 185.391H97.4551V192.156H104.333V185.391Z" fill="#29CF30"/>
<path d="M1374.11 362.959C1379.09 357.552 1378.42 349.415 1372.6 344.783C1366.78 340.151 1358.02 340.778 1353.03 346.185C1348.04 351.592 1348.72 359.73 1354.54 364.362C1360.36 368.994 1369.12 368.366 1374.11 362.959Z" stroke="white" stroke-width="1.3615" stroke-miterlimit="10"/>
<path d="M1381.62 405.677C1399.62 386.171 1397.18 356.811 1376.18 340.099C1355.18 323.387 1323.57 325.653 1305.58 345.159C1287.58 364.666 1290.02 394.026 1311.02 410.738C1332.02 427.449 1363.63 425.184 1381.62 405.677Z" stroke="white" stroke-width="1.3615" stroke-miterlimit="10"/>
</svg>
