<svg width="1435" height="610" viewBox="0 0 1435 610" fill="none" xmlns="http://www.w3.org/2000/svg">
<g clip-path="url(#clip0)">
<rect width="1435" height="610" fill="white"/>
<rect x="-5" y="-8.27051" width="1440" height="619" fill="#F3F3F3"/>
<path d="M1445.75 637.394L1427.93 615.187L1404.02 631.741L1392.96 617.961L1416.87 601.403L1399.05 579.196L1413.89 568.922L1431.71 591.134L1455.62 574.578L1466.68 588.36L1442.77 604.913L1460.59 627.125L1445.75 637.394Z" stroke="white" stroke-width="2" stroke-miterlimit="10"/>
<path d="M1363.56 565.332L1363.56 635.738L1287.76 635.738L1287.76 565.332L1363.56 565.332Z" stroke="white" stroke-width="2" stroke-miterlimit="10"/>
<path d="M1400.99 311.199L1430.7 313.583L1433.27 285.985L1451.7 287.465L1449.14 315.065L1478.85 317.448L1477.26 334.574L1447.55 332.188L1444.98 359.785L1426.54 358.306L1429.11 330.709L1399.4 328.323L1400.99 311.199Z" stroke="white" stroke-width="2" stroke-miterlimit="10"/>
<path d="M1389.14 334.356C1388.25 341.885 1380.97 347.322 1372.86 346.5C1364.75 345.677 1358.9 338.907 1359.79 331.377C1360.67 323.847 1367.96 318.41 1376.07 319.233C1384.17 320.055 1390.03 326.826 1389.14 334.356Z" stroke="white" stroke-width="2" stroke-miterlimit="10"/>
<path d="M1494.41 277.891L1433.19 255.795L1456.98 198.931L1518.2 221.026L1494.41 277.891Z" stroke="white" stroke-width="2" stroke-miterlimit="10"/>
<path d="M1458.96 157.431L1419.22 157.281L1419.38 120.364L1459.13 120.514L1458.96 157.431Z" stroke="white" stroke-width="2" stroke-miterlimit="10"/>
<path d="M995.729 229.364L1020.7 214.22L1004.39 191.025L1019.89 181.63L1036.19 204.824L1061.16 189.68L1071.28 204.072L1046.31 219.217L1062.61 242.409L1047.12 251.807L1030.82 228.612L1005.84 243.757L995.729 229.364Z" stroke="white" stroke-width="2" stroke-miterlimit="10"/>
<path d="M1195.99 343.887L1201.18 316.612L1171.82 311.785L1175.04 294.862L1204.41 299.685L1209.6 272.409L1227.83 275.402L1222.63 302.681L1251.99 307.505L1248.77 324.431L1219.41 319.605L1214.21 346.884L1195.99 343.887Z" stroke="white" stroke-width="2" stroke-miterlimit="10"/>
<path d="M1043.66 350.907L1073 345.919L1067.63 318.671L1085.83 315.577L1091.2 342.826L1120.53 337.839L1123.87 354.747L1094.53 359.734L1099.9 386.98L1081.7 390.076L1076.33 362.828L1046.99 367.814L1043.66 350.907Z" stroke="white" stroke-width="2" stroke-miterlimit="10"/>
<path d="M1329.91 262.931L1354.59 247.385L1337.85 224.458L1353.16 214.813L1369.91 237.738L1394.59 222.192L1404.97 236.418L1380.29 251.965L1397.03 274.889L1381.71 284.537L1364.98 261.611L1340.29 277.158L1329.91 262.931Z" stroke="white" stroke-width="2" stroke-miterlimit="10"/>
<path d="M1268.49 202.237L1281.85 167.425L1244.37 155.007L1252.67 133.408L1290.15 145.82L1303.51 111.008L1326.77 118.711L1313.4 153.528L1350.88 165.941L1342.59 187.546L1305.11 175.128L1291.74 209.945L1268.49 202.237Z" stroke="white" stroke-width="2" stroke-miterlimit="10"/>
<path d="M1265.04 349.013C1273.04 350.501 1278.22 357.727 1276.62 365.154C1275.02 372.581 1267.24 377.395 1259.24 375.907C1251.25 374.419 1246.06 367.193 1247.66 359.766C1249.27 352.339 1257.05 347.525 1265.04 349.013Z" stroke="white" stroke-width="2" stroke-miterlimit="10"/>
<path d="M1062.36 440.846C1070.36 442.334 1075.54 449.561 1073.94 456.987C1072.34 464.414 1064.56 469.229 1056.56 467.741C1048.57 466.253 1043.39 459.026 1044.99 451.6C1046.59 444.173 1054.37 439.359 1062.36 440.846Z" stroke="white" stroke-width="2" stroke-miterlimit="10"/>
<path d="M1215.42 163.889C1233.9 167.328 1245.88 184.031 1242.18 201.197C1238.47 218.362 1220.49 229.49 1202.01 226.051C1183.53 222.612 1171.55 205.909 1175.25 188.744C1178.95 171.578 1196.94 160.45 1215.42 163.889Z" stroke="white" stroke-width="2" stroke-miterlimit="10"/>
<path d="M1397.39 164.12C1409.65 166.401 1417.59 177.477 1415.14 188.859C1412.68 200.242 1400.76 207.621 1388.5 205.341C1376.25 203.06 1368.3 191.984 1370.76 180.602C1373.21 169.219 1385.14 161.84 1397.39 164.12Z" stroke="white" stroke-width="2" stroke-miterlimit="10"/>
<path d="M1113.12 406.564C1123.15 408.429 1129.64 417.487 1127.63 426.795C1125.63 436.104 1115.88 442.138 1105.85 440.273C1095.83 438.409 1089.34 429.351 1091.34 420.042C1093.35 410.734 1103.1 404.699 1113.12 406.564Z" stroke="white" stroke-width="2" stroke-miterlimit="10"/>
<path d="M1033.13 268.053C1045.38 270.334 1053.32 281.41 1050.87 292.792C1048.41 304.175 1036.49 311.554 1024.24 309.273C1011.98 306.993 1004.04 295.917 1006.49 284.535C1008.95 273.152 1020.87 265.773 1033.13 268.053Z" stroke="white" stroke-width="2" stroke-miterlimit="10"/>
<path d="M1168.57 254.501L1139.44 309.18L1080.57 282.123L1109.7 227.444L1168.57 254.501Z" stroke="white" stroke-width="2" stroke-miterlimit="10"/>
<path d="M1159.41 200.263L1093.74 201.099L1092.84 140.099L1158.51 139.264L1159.41 200.263Z" stroke="white" stroke-width="2" stroke-miterlimit="10"/>
<path d="M1310.42 293.487L1244.75 294.322L1243.85 233.322L1309.52 232.487L1310.42 293.487Z" stroke="white" stroke-width="2" stroke-miterlimit="10"/>
<path d="M1215.86 386.947L1161.2 420.771L1124.79 370L1179.45 336.176L1215.86 386.947Z" stroke="white" stroke-width="2" stroke-miterlimit="10"/>
<path d="M1439.53 48.9785L1412.8 36.6988L1426.02 11.8684L1409.44 4.24997L1396.21 29.0799L1369.49 16.8002L1361.28 32.2076L1388.01 44.4877L1374.79 69.3154L1391.38 76.9366L1404.6 52.1062L1431.33 64.3863L1439.53 48.9785Z" stroke="white" stroke-width="2" stroke-miterlimit="10"/>
<path d="M1276.15 32.472L1247.59 24.5029L1256.17 -2.02687L1238.45 -6.97063L1229.87 19.5596L1201.31 11.5905L1195.98 28.0529L1224.55 36.0215L1215.97 62.549L1233.69 67.495L1242.27 40.9653L1270.83 48.9339L1276.15 32.472Z" stroke="white" stroke-width="2" stroke-miterlimit="10"/>
<path d="M1404.39 80.5392C1400.94 87.4027 1404.14 95.5634 1411.53 98.7667C1418.92 101.97 1427.7 99.0029 1431.15 92.1394C1434.6 85.2759 1431.4 77.1151 1424.02 73.9118C1416.63 70.7085 1407.84 73.6757 1404.39 80.5392Z" stroke="white" stroke-width="2" stroke-miterlimit="10"/>
<path d="M1366.8 109.678C1363.36 116.542 1366.55 124.703 1373.94 127.906C1381.33 131.109 1390.11 128.142 1393.56 121.279C1397.01 114.415 1393.82 106.254 1386.43 103.051C1379.04 99.8476 1370.25 102.815 1366.8 109.678Z" stroke="white" stroke-width="2" stroke-miterlimit="10"/>
<path d="M1171.35 97.1552C1166.06 107.675 1170.96 120.183 1182.28 125.093C1193.61 130.002 1207.08 125.455 1212.36 114.935C1217.65 104.415 1212.75 91.9071 1201.43 86.9974C1190.1 82.0876 1176.64 86.6355 1171.35 97.1552Z" stroke="white" stroke-width="2" stroke-miterlimit="10"/>
<path d="M1328.01 104.719L1367.66 56.083L1315.3 19.2573L1275.65 67.8935L1328.01 104.719Z" stroke="white" stroke-width="2" stroke-miterlimit="10"/>
<path d="M1298.29 320.392L1337.89 317.213L1341.31 353.994L1301.71 357.172L1298.29 320.392Z" stroke="white" stroke-width="2" stroke-miterlimit="10"/>
<path d="M1377.43 425.783L1405.24 435.775L1394.49 461.611L1411.74 467.81L1422.5 441.974L1450.31 451.966L1456.99 435.934L1429.17 425.942L1439.93 400.108L1422.67 393.907L1411.92 419.743L1384.1 409.751L1377.43 425.783Z" stroke="white" stroke-width="2" stroke-miterlimit="10"/>
<path d="M1308.28 539.769L1323.59 523.721L1340.87 537.944L1350.37 527.986L1333.09 513.76L1348.4 497.712L1337.68 488.885L1322.37 504.936L1305.09 490.713L1295.59 500.671L1312.87 514.894L1297.56 530.945L1308.28 539.769Z" stroke="white" stroke-width="2" stroke-miterlimit="10"/>
<path d="M1396.44 379.476C1399.21 372.352 1395.24 364.492 1387.57 361.92C1379.9 359.349 1371.44 363.039 1368.67 370.164C1365.9 377.288 1369.87 385.148 1377.54 387.72C1385.21 390.291 1393.67 386.601 1396.44 379.476Z" stroke="white" stroke-width="2" stroke-miterlimit="10"/>
<path d="M1244.4 429.777C1247.87 420.847 1242.89 410.996 1233.28 407.772C1223.66 404.549 1213.06 409.175 1209.59 418.105C1206.12 427.034 1211.1 436.886 1220.71 440.109C1230.32 443.332 1240.93 438.707 1244.4 429.777Z" stroke="white" stroke-width="2" stroke-miterlimit="10"/>
<path d="M1445.57 493.85L1380.12 488.694L1374.57 549.482L1440.01 554.638L1445.57 493.85Z" stroke="white" stroke-width="2" stroke-miterlimit="10"/>
<path d="M1348.06 387.699L1288.61 413.628L1316.52 468.85L1375.97 442.921L1348.06 387.699Z" stroke="white" stroke-width="2" stroke-miterlimit="10"/>
<path d="M1014.19 57.235L1014.44 84.9325L1044.26 84.7065L1044.41 101.892L1014.59 102.123L1014.83 129.82L996.328 129.963L996.084 102.261L966.265 102.49L966.112 85.3014L995.933 85.0754L995.689 57.3732L1014.19 57.235Z" stroke="white" stroke-width="2" stroke-miterlimit="10"/>
<path d="M1088.44 45.8123L1106.26 68.0196L1130.17 51.4662L1141.23 65.2455L1117.32 81.8039L1135.14 104.011L1120.3 114.286L1102.48 92.0734L1078.57 108.629L1067.51 94.8475L1091.42 78.294L1073.6 56.0819L1088.44 45.8123Z" stroke="white" stroke-width="2" stroke-miterlimit="10"/>
<path d="M1058.8 159.403C1049.97 167.612 1035.64 167.612 1026.8 159.403C1017.97 151.194 1017.97 137.885 1026.8 129.676C1035.64 121.468 1049.97 121.467 1058.8 129.676C1067.64 137.885 1067.64 151.194 1058.8 159.403Z" stroke="white" stroke-width="2" stroke-miterlimit="10"/>
<path d="M997.619 25.2292L1033.28 -26L1088.43 7.12574L1052.77 58.355L997.619 25.2292Z" stroke="white" stroke-width="2" stroke-miterlimit="10"/>
<path d="M1222.6 553.726L1194.04 545.757L1202.62 519.227L1184.9 514.283L1176.31 540.814L1147.76 532.845L1142.43 549.307L1170.99 557.276L1162.41 583.803L1180.14 588.749L1188.71 562.219L1217.28 570.188L1222.6 553.726Z" stroke="white" stroke-width="2" stroke-miterlimit="10"/>
<path d="M1218.39 478.088C1210.41 493.952 1217.8 512.815 1234.88 520.219C1251.96 527.623 1272.26 520.765 1280.23 504.9C1288.21 489.036 1280.82 470.173 1263.74 462.769C1246.66 455.365 1226.36 462.223 1218.39 478.088Z" stroke="white" stroke-width="2" stroke-miterlimit="10"/>
<path d="M1117.8 618.41C1112.51 628.929 1117.41 641.437 1128.73 646.346C1140.06 651.256 1153.52 646.708 1158.81 636.189C1164.09 625.669 1159.2 613.162 1147.87 608.252C1136.55 603.342 1123.08 607.89 1117.8 618.41Z" stroke="white" stroke-width="2" stroke-miterlimit="10"/>
<path d="M962.356 430.082L983.913 449.219L1004.52 429.194L1017.89 441.069L997.29 461.098L1018.85 480.235L1006.06 492.663L984.503 473.521L963.901 493.547L950.523 481.671L971.128 461.647L949.569 442.505L962.356 430.082Z" stroke="white" stroke-width="2" stroke-miterlimit="10"/>
<path d="M1034.89 567.068L1052.71 589.275L1076.62 572.722L1087.67 586.501L1063.76 603.059L1081.59 625.266L1066.75 635.541L1048.93 613.329L1025.02 629.884L1013.96 616.103L1037.87 599.55L1020.05 577.338L1034.89 567.068Z" stroke="white" stroke-width="2" stroke-miterlimit="10"/>
<path d="M1112.85 544.898C1099.53 557.278 1077.92 557.278 1064.59 544.898C1051.27 532.519 1051.27 512.448 1064.59 500.068C1077.92 487.689 1099.53 487.689 1112.85 500.068C1126.18 512.448 1126.18 532.519 1112.85 544.898Z" stroke="white" stroke-width="2" stroke-miterlimit="10"/>
<path d="M1111.32 481.434L1146.98 430.206L1202.13 463.331L1166.47 514.559L1111.32 481.434Z" stroke="white" stroke-width="2" stroke-miterlimit="10"/>
<path d="M904.945 625.972L904.699 598.275L874.879 598.501L874.727 581.315L904.549 581.085L904.304 553.387L922.809 553.244L923.052 580.946L952.871 580.717L953.025 597.906L923.204 598.132L923.448 625.834L904.945 625.972Z" stroke="white" stroke-width="2" stroke-miterlimit="10"/>
<path d="M830.699 637.394L812.877 615.187L788.966 631.741L777.91 617.961L801.819 601.403L783.998 579.196L798.834 568.922L816.657 591.134L840.565 574.578L851.625 588.36L827.714 604.913L845.537 627.125L830.699 637.394Z" stroke="white" stroke-width="2" stroke-miterlimit="10"/>
<path d="M860.333 523.803C869.17 515.594 883.498 515.594 892.335 523.803C901.173 532.012 901.173 545.321 892.335 553.529C883.498 561.738 869.17 561.738 860.333 553.529C851.495 545.321 851.495 532.012 860.333 523.803Z" stroke="white" stroke-width="2" stroke-miterlimit="10"/>
<path d="M748.502 565.332L748.502 635.738L672.704 635.738L672.704 565.332L748.502 565.332Z" stroke="white" stroke-width="2" stroke-miterlimit="10"/>
<path d="M785.941 311.199L815.649 313.583L818.218 285.985L836.651 287.465L834.087 315.065L863.796 317.448L862.205 334.574L832.491 332.188L829.926 359.785L811.49 358.306L814.058 330.709L784.345 328.323L785.941 311.199Z" stroke="white" stroke-width="2" stroke-miterlimit="10"/>
<path d="M884.641 427.914L903.503 449.367L926.602 431.847L938.304 445.159L915.207 462.683L934.068 484.136L919.736 495.011L900.873 473.553L877.777 491.074L866.071 477.761L889.17 460.241L870.307 438.784L884.641 427.914Z" stroke="white" stroke-width="2" stroke-miterlimit="10"/>
<path d="M934.832 375.825L963.697 382.776L971.183 355.962L989.092 360.275L981.611 387.092L1010.48 394.042L1005.83 410.682L976.964 403.729L969.482 430.542L951.569 426.23L959.055 399.416L930.185 392.463L934.832 375.825Z" stroke="white" stroke-width="2" stroke-miterlimit="10"/>
<path d="M774.087 334.356C773.201 341.885 765.912 347.322 757.806 346.5C749.7 345.677 743.847 338.907 744.733 331.377C745.618 323.847 752.907 318.41 761.013 319.233C769.119 320.055 774.972 326.826 774.087 334.356Z" stroke="white" stroke-width="2" stroke-miterlimit="10"/>
<path d="M980.681 313.194C978.635 330.597 961.787 343.164 943.051 341.263C924.315 339.362 910.785 323.712 912.832 306.309C914.879 288.905 931.727 276.338 950.463 278.239C969.199 280.14 982.728 295.79 980.681 313.194Z" stroke="white" stroke-width="2" stroke-miterlimit="10"/>
<path d="M972.613 536.784C971.256 548.324 960.084 556.657 947.661 555.397C935.237 554.136 926.265 543.759 927.623 532.219C928.98 520.678 940.152 512.345 952.575 513.606C964.999 514.867 973.971 525.244 972.613 536.784Z" stroke="white" stroke-width="2" stroke-miterlimit="10"/>
<path d="M879.355 277.891L818.137 255.795L841.924 198.931L903.142 221.026L879.355 277.891Z" stroke="white" stroke-width="2" stroke-miterlimit="10"/>
<path d="M843.911 157.431L804.167 157.281L804.329 120.364L844.073 120.514L843.911 157.431Z" stroke="white" stroke-width="2" stroke-miterlimit="10"/>
<path d="M936.703 264.605L929.977 203.92L995.308 197.672L1002.03 258.357L936.703 264.605Z" stroke="white" stroke-width="2" stroke-miterlimit="10"/>
<path d="M850.145 412.598L843.419 351.914L908.751 345.666L915.477 406.351L850.145 412.598Z" stroke="white" stroke-width="2" stroke-miterlimit="10"/>
<path d="M380.675 229.364L405.643 214.22L389.34 191.025L404.832 181.63L421.14 204.824L446.107 189.68L456.226 204.072L431.254 219.217L447.558 242.409L432.064 251.807L415.762 228.612L390.789 243.757L380.675 229.364Z" stroke="white" stroke-width="2" stroke-miterlimit="10"/>
<path d="M580.936 343.887L586.129 316.612L556.764 311.785L559.987 294.862L589.355 299.685L594.549 272.409L612.772 275.402L607.576 302.681L636.94 307.505L633.718 324.431L604.353 319.605L599.156 346.884L580.936 343.887Z" stroke="white" stroke-width="2" stroke-miterlimit="10"/>
<path d="M428.611 350.907L457.943 345.919L452.575 318.671L470.775 315.577L476.148 342.826L505.479 337.839L508.813 354.747L479.476 359.734L484.846 386.98L466.644 390.076L461.276 362.828L431.94 367.814L428.611 350.907Z" stroke="white" stroke-width="2" stroke-miterlimit="10"/>
<path d="M714.854 262.931L739.533 247.385L722.797 224.458L738.11 214.813L754.851 237.738L779.53 222.192L789.918 236.418L765.234 251.965L781.972 274.889L766.657 284.537L749.921 261.611L725.237 277.158L714.854 262.931Z" stroke="white" stroke-width="2" stroke-miterlimit="10"/>
<path d="M653.434 202.237L666.798 167.425L629.318 155.007L637.612 133.408L675.096 145.82L688.461 111.008L711.72 118.711L698.351 153.528L735.83 165.941L727.537 187.546L690.057 175.128L676.688 209.945L653.434 202.237Z" stroke="white" stroke-width="2" stroke-miterlimit="10"/>
<path d="M649.988 349.013C657.983 350.501 663.166 357.727 661.565 365.154C659.963 372.581 652.183 377.395 644.188 375.907C636.192 374.419 631.009 367.193 632.611 359.766C634.213 352.339 641.993 347.525 649.988 349.013Z" stroke="white" stroke-width="2" stroke-miterlimit="10"/>
<path d="M447.311 440.846C455.307 442.334 460.49 449.561 458.888 456.987C457.286 464.414 449.506 469.229 441.511 467.741C433.516 466.253 428.333 459.026 429.934 451.6C431.536 444.173 439.316 439.359 447.311 440.846Z" stroke="white" stroke-width="2" stroke-miterlimit="10"/>
<path d="M351.746 170.607C370.227 174.046 382.207 190.749 378.505 207.915C374.802 225.081 356.82 236.209 338.34 232.771C319.859 229.332 307.879 212.628 311.581 195.462C315.283 178.296 333.266 167.168 351.746 170.607Z" stroke="white" stroke-width="2" stroke-miterlimit="10"/>
<path d="M600.364 163.889C618.844 167.328 630.824 184.031 627.122 201.197C623.42 218.362 605.437 229.49 586.957 226.051C568.476 222.612 556.496 205.909 560.198 188.744C563.901 171.578 581.883 160.45 600.364 163.889Z" stroke="white" stroke-width="2" stroke-miterlimit="10"/>
<path d="M782.338 164.12C794.592 166.401 802.536 177.477 800.082 188.859C797.627 200.242 785.702 207.621 773.448 205.341C761.194 203.06 753.25 191.984 755.705 180.602C758.16 169.219 770.084 161.84 782.338 164.12Z" stroke="white" stroke-width="2" stroke-miterlimit="10"/>
<path d="M498.07 406.564C508.091 408.429 514.588 417.487 512.58 426.795C510.573 436.104 500.821 442.138 490.8 440.273C480.779 438.409 474.283 429.351 476.29 420.042C478.298 410.734 488.049 404.699 498.07 406.564Z" stroke="white" stroke-width="2" stroke-miterlimit="10"/>
<path d="M418.072 268.053C430.326 270.334 438.27 281.41 435.815 292.792C433.36 304.175 421.436 311.554 409.182 309.273C396.927 306.993 388.983 295.917 391.438 284.535C393.893 273.152 405.817 265.773 418.072 268.053Z" stroke="white" stroke-width="2" stroke-miterlimit="10"/>
<path d="M553.511 254.501L524.383 309.18L465.519 282.123L494.647 227.444L553.511 254.501Z" stroke="white" stroke-width="2" stroke-miterlimit="10"/>
<path d="M544.356 200.263L478.686 201.099L477.786 140.099L543.457 139.264L544.356 200.263Z" stroke="white" stroke-width="2" stroke-miterlimit="10"/>
<path d="M695.367 293.487L629.696 294.322L628.797 233.322L694.468 232.487L695.367 293.487Z" stroke="white" stroke-width="2" stroke-miterlimit="10"/>
<path d="M600.809 386.947L546.15 420.771L509.737 370L564.395 336.176L600.809 386.947Z" stroke="white" stroke-width="2" stroke-miterlimit="10"/>
<path d="M410.707 367.735L356.049 401.559L319.635 350.788L374.293 316.964L410.707 367.735Z" stroke="white" stroke-width="2" stroke-miterlimit="10"/>
<path d="M824.477 48.9785L797.749 36.6988L810.968 11.8684L794.383 4.24997L781.159 29.0799L754.431 16.8002L746.225 32.2076L772.959 44.4877L759.738 69.3154L776.324 76.9366L789.543 52.1062L816.277 64.3863L824.477 48.9785Z" stroke="white" stroke-width="2" stroke-miterlimit="10"/>
<path d="M968.924 138.701L936.975 126.89L949.689 97.21L929.865 89.8827L917.145 119.563L885.197 107.752L877.304 126.169L909.259 137.98L896.543 167.657L916.369 174.987L929.083 145.307L961.038 157.118L968.924 138.701Z" stroke="white" stroke-width="2" stroke-miterlimit="10"/>
<path d="M661.097 32.472L632.539 24.5029L641.117 -2.02687L623.397 -6.97063L614.814 19.5596L586.256 11.5905L580.93 28.0529L609.494 36.0215L600.913 62.549L618.636 67.495L627.213 40.9653L655.777 48.9339L661.097 32.472Z" stroke="white" stroke-width="2" stroke-miterlimit="10"/>
<path d="M789.339 80.5392C785.89 87.4027 789.084 95.5634 796.473 98.7667C803.862 101.97 812.648 99.0029 816.097 92.1394C819.545 85.2759 816.351 77.1151 808.962 73.9118C801.573 70.7085 792.787 73.6757 789.339 80.5392Z" stroke="white" stroke-width="2" stroke-miterlimit="10"/>
<path d="M751.751 109.678C748.302 116.542 751.497 124.703 758.886 127.906C766.275 131.109 775.06 128.142 778.509 121.279C781.957 114.415 778.763 106.254 771.374 103.051C763.985 99.8476 755.199 102.815 751.751 109.678Z" stroke="white" stroke-width="2" stroke-miterlimit="10"/>
<path d="M556.295 97.1552C551.009 107.675 555.905 120.183 567.23 125.093C578.555 130.002 592.021 125.455 597.307 114.935C602.592 104.415 597.696 91.9071 586.371 86.9974C575.046 82.0876 561.58 86.6355 556.295 97.1552Z" stroke="white" stroke-width="2" stroke-miterlimit="10"/>
<path d="M927.939 24.1292C923.617 32.7318 927.621 42.9604 936.882 46.9754C946.143 50.9904 957.155 47.2714 961.477 38.6687C965.8 30.0661 961.796 19.8375 952.535 15.8225C943.273 11.8075 932.262 15.5266 927.939 24.1292Z" stroke="white" stroke-width="2" stroke-miterlimit="10"/>
<path d="M712.956 104.719L752.602 56.083L700.241 19.2573L660.595 67.8935L712.956 104.719Z" stroke="white" stroke-width="2" stroke-miterlimit="10"/>
<path d="M850.038 89.3661L911.762 68.52L889.32 11.186L827.596 32.0321L850.038 89.3661Z" stroke="white" stroke-width="2" stroke-miterlimit="10"/>
<path d="M683.238 320.392L722.835 317.213L726.256 353.994L686.66 357.172L683.238 320.392Z" stroke="white" stroke-width="2" stroke-miterlimit="10"/>
<path d="M762.376 425.783L790.187 435.775L779.432 461.611L796.688 467.81L807.449 441.974L835.26 451.966L841.937 435.934L814.121 425.942L824.879 400.108L807.62 393.907L796.864 419.743L769.048 409.751L762.376 425.783Z" stroke="white" stroke-width="2" stroke-miterlimit="10"/>
<path d="M693.224 539.769L708.536 523.721L725.815 537.944L735.315 527.986L718.037 513.76L733.349 497.712L722.627 488.885L707.314 504.936L690.038 490.713L680.535 500.671L697.815 514.894L682.501 530.945L693.224 539.769Z" stroke="white" stroke-width="2" stroke-miterlimit="10"/>
<path d="M781.388 379.476C784.157 372.352 780.183 364.492 772.514 361.92C764.844 359.349 756.382 363.039 753.613 370.164C750.845 377.288 754.818 385.148 762.488 387.72C770.158 390.291 778.62 386.601 781.388 379.476Z" stroke="white" stroke-width="2" stroke-miterlimit="10"/>
<path d="M629.346 429.777C632.817 420.847 627.836 410.996 618.223 407.772C608.61 404.549 598.004 409.175 594.534 418.105C591.064 427.034 596.044 436.886 605.657 440.109C615.27 443.332 625.876 438.707 629.346 429.777Z" stroke="white" stroke-width="2" stroke-miterlimit="10"/>
<path d="M830.511 493.85L765.069 488.694L759.519 549.482L824.961 554.638L830.511 493.85Z" stroke="white" stroke-width="2" stroke-miterlimit="10"/>
<path d="M733 387.699L673.551 413.628L701.465 468.85L760.915 442.921L733 387.699Z" stroke="white" stroke-width="2" stroke-miterlimit="10"/>
<path d="M408.637 57.235L408.883 84.9325L438.703 84.7065L438.855 101.892L409.033 102.123L409.278 129.82L390.773 129.963L390.53 102.261L360.711 102.49L360.557 85.3014L390.378 85.0754L390.134 57.3732L408.637 57.235Z" stroke="white" stroke-width="2" stroke-miterlimit="10"/>
<path d="M473.385 45.8123L491.207 68.0196L515.118 51.4662L526.174 65.2455L502.265 81.8039L520.086 104.011L505.25 114.286L487.427 92.0734L463.519 108.629L452.459 94.8475L476.37 78.294L458.547 56.0819L473.385 45.8123Z" stroke="white" stroke-width="2" stroke-miterlimit="10"/>
<path d="M443.751 159.403C434.914 167.612 420.586 167.612 411.749 159.403C402.911 151.194 402.911 137.885 411.749 129.676C420.586 121.468 434.914 121.467 443.751 129.676C452.589 137.885 452.588 151.194 443.751 159.403Z" stroke="white" stroke-width="2" stroke-miterlimit="10"/>
<path d="M382.566 25.2292L418.228 -26L473.379 7.12574L437.717 58.355L382.566 25.2292Z" stroke="white" stroke-width="2" stroke-miterlimit="10"/>
<path d="M607.544 553.726L578.986 545.757L587.564 519.227L569.844 514.283L561.261 540.814L532.703 532.845L527.378 549.307L555.941 557.276L547.361 583.803L565.083 588.749L573.661 562.219L602.224 570.188L607.544 553.726Z" stroke="white" stroke-width="2" stroke-miterlimit="10"/>
<path d="M603.332 478.088C595.361 493.952 602.744 512.815 619.823 520.219C636.902 527.623 657.209 520.765 665.18 504.9C673.151 489.036 665.768 470.173 648.689 462.769C631.61 455.365 611.303 462.223 603.332 478.088Z" stroke="white" stroke-width="2" stroke-miterlimit="10"/>
<path d="M502.742 618.41C497.457 628.929 502.353 641.437 513.678 646.346C525.003 651.256 538.468 646.708 543.754 636.189C549.039 625.669 544.143 613.162 532.818 608.252C521.493 603.342 508.028 607.89 502.742 618.41Z" stroke="white" stroke-width="2" stroke-miterlimit="10"/>
<path d="M590.318 598.339C585.033 608.859 589.929 621.367 601.254 626.277C612.579 631.186 626.044 626.639 631.33 616.119C636.616 605.599 631.72 593.091 620.395 588.181C609.07 583.272 595.604 587.82 590.318 598.339Z" stroke="white" stroke-width="2" stroke-miterlimit="10"/>
<path d="M347.302 430.082L368.859 449.219L389.465 429.194L402.84 441.069L382.237 461.098L403.794 480.235L391.009 492.663L369.45 473.521L348.848 493.547L335.469 481.671L356.075 461.647L334.515 442.505L347.302 430.082Z" stroke="white" stroke-width="2" stroke-miterlimit="10"/>
<path d="M345.586 578.491L345.831 606.188L375.652 605.962L375.803 623.148L345.981 623.378L346.227 651.076L327.722 651.219L327.478 623.516L297.659 623.746L297.506 606.557L327.326 606.331L327.082 578.629L345.586 578.491Z" stroke="white" stroke-width="2" stroke-miterlimit="10"/>
<path d="M419.831 567.068L437.653 589.275L461.564 572.722L472.621 586.501L448.711 603.059L466.532 625.266L451.696 635.541L433.873 613.329L409.966 629.884L398.905 616.103L422.816 599.55L404.994 577.338L419.831 567.068Z" stroke="white" stroke-width="2" stroke-miterlimit="10"/>
<path d="M497.801 544.898C484.474 557.278 462.866 557.278 449.539 544.898C436.212 532.519 436.212 512.448 449.539 500.068C462.866 487.689 484.474 487.689 497.801 500.068C511.128 512.448 511.128 532.519 497.801 544.898Z" stroke="white" stroke-width="2" stroke-miterlimit="10"/>
<path d="M496.262 481.434L531.924 430.206L587.075 463.331L551.413 514.559L496.262 481.434Z" stroke="white" stroke-width="2" stroke-miterlimit="10"/>
<path d="M329.012 546.485L364.674 495.255L419.825 528.381L384.163 579.61L329.012 546.485Z" stroke="white" stroke-width="2" stroke-miterlimit="10"/>
<path d="M265.438 420.284L241.94 437.337L260.299 459.166L245.719 469.746L227.355 447.919L203.858 464.972L192.463 451.427L215.966 434.373L197.606 412.546L212.187 401.963L230.546 423.792L254.048 406.738L265.438 420.284Z" stroke="white" stroke-width="2" stroke-miterlimit="10"/>
<path d="M55.4565 321.923L52.768 349.509L82.4678 352.009L80.7988 369.125L51.0966 366.629L48.4081 394.215L29.9776 392.666L32.6685 365.076L2.96992 362.58L4.6377 345.461L34.3375 347.96L37.0284 320.37L55.4565 321.923Z" stroke="white" stroke-width="2" stroke-miterlimit="10"/>
<path d="M206.594 302.947L177.822 310.223L185.654 336.951L167.802 341.465L159.965 314.737L131.193 322.013L126.33 305.428L155.107 298.152L147.272 271.426L165.127 266.91L172.959 293.638L201.736 286.362L206.594 302.947Z" stroke="white" stroke-width="2" stroke-miterlimit="10"/>
<path d="M-3.86744 468.765L-14.0107 504.503L24.4664 513.929L18.1717 536.103L-20.3096 526.683L-30.4529 562.421L-54.3309 556.575L-44.1833 520.832L-82.6596 511.411L-76.3657 489.232L-37.8887 498.658L-27.7411 462.914L-3.86744 468.765Z" stroke="white" stroke-width="2" stroke-miterlimit="10"/>
<path d="M-13.8146 322.247C-21.9169 321.393 -27.74 314.6 -26.8211 307.074C-25.9021 299.548 -18.589 294.139 -10.4868 294.993C-2.38457 295.847 3.43863 302.639 2.51967 310.165C1.6007 317.691 -5.71243 323.1 -13.8146 322.247Z" stroke="white" stroke-width="2" stroke-miterlimit="10"/>
<path d="M179.763 214.801C171.661 213.947 165.838 207.154 166.757 199.628C167.676 192.102 174.989 186.693 183.091 187.547C191.194 188.4 197.017 195.193 196.098 202.719C195.179 210.245 187.866 215.654 179.763 214.801Z" stroke="white" stroke-width="2" stroke-miterlimit="10"/>
<path d="M219.486 127.394C211.384 126.541 205.561 119.748 206.48 112.222C207.399 104.696 214.712 99.2868 222.814 100.14C230.916 100.994 236.739 107.787 235.82 115.313C234.901 122.839 227.588 128.248 219.486 127.394Z" stroke="white" stroke-width="2" stroke-miterlimit="10"/>
<path d="M299.618 476.555C280.89 474.582 267.43 458.88 269.555 441.485C271.679 424.09 288.582 411.587 307.31 413.56C326.037 415.533 339.497 431.235 337.373 448.63C335.249 466.025 318.345 478.528 299.618 476.555Z" stroke="white" stroke-width="2" stroke-miterlimit="10"/>
<path d="M52.5063 502.804C33.7788 500.831 20.3191 485.129 22.4432 467.734C24.5673 450.338 41.4708 437.835 60.1983 439.808C78.9258 441.781 92.3855 457.483 90.2614 474.879C88.1373 492.274 71.2337 504.777 52.5063 502.804Z" stroke="white" stroke-width="2" stroke-miterlimit="10"/>
<path d="M132.31 252.953C122.155 251.883 114.857 243.369 116.008 233.936C117.16 224.503 126.326 217.723 136.481 218.793C146.637 219.863 153.935 228.377 152.784 237.81C151.632 247.243 142.466 254.023 132.31 252.953Z" stroke="white" stroke-width="2" stroke-miterlimit="10"/>
<path d="M224.649 384.673C212.231 383.365 203.305 372.953 204.714 361.418C206.122 349.884 217.331 341.593 229.749 342.902C242.167 344.21 251.093 354.621 249.684 366.156C248.276 377.691 237.067 385.981 224.649 384.673Z" stroke="white" stroke-width="2" stroke-miterlimit="10"/>
<path d="M90.931 408.829L114.971 352.057L176.09 374.387L152.05 431.159L90.931 408.829Z" stroke="white" stroke-width="2" stroke-miterlimit="10"/>
<path d="M104.997 462.152L170.355 456.155L176.812 516.865L111.453 522.862L104.997 462.152Z" stroke="white" stroke-width="2" stroke-miterlimit="10"/>
<path d="M-53.9693 381.141L11.3896 375.144L17.8461 435.854L-47.5128 441.852L-53.9693 381.141Z" stroke="white" stroke-width="2" stroke-miterlimit="10"/>
<path d="M31.7308 280.58L83.1094 242.578L124.02 290.303L72.6418 328.304L31.7308 280.58Z" stroke="white" stroke-width="2" stroke-miterlimit="10"/>
<path d="M222.901 284.771L274.279 246.77L315.19 294.495L263.812 332.496L222.901 284.771Z" stroke="white" stroke-width="2" stroke-miterlimit="10"/>
<path d="M102.5 565.831C106.807 554.933 100.789 542.855 89.0569 538.854C77.3249 534.853 64.3223 540.443 60.0146 551.341C55.7069 562.238 61.7254 574.316 73.4574 578.317C85.1893 582.319 98.192 576.728 102.5 565.831Z" stroke="white" stroke-width="2" stroke-miterlimit="10"/>
<path d="M-54.2874 570.613L-89.3574 622.194L-33.8276 654.77L1.24247 603.189L-54.2874 570.613Z" stroke="white" stroke-width="2" stroke-miterlimit="10"/>
<path d="M-0.608411 240.146C-3.252 249.317 2.60818 258.741 12.4807 261.197C22.3532 263.652 32.4995 258.209 35.143 249.039C37.7866 239.869 31.9265 230.444 22.054 227.988C12.1815 225.533 2.03518 230.976 -0.608411 240.146Z" stroke="white" stroke-width="2" stroke-miterlimit="10"/>
<path d="M262.731 593.245L259.961 565.667L230.268 568.237L228.551 551.126L258.245 548.55L255.475 520.972L273.901 519.374L276.669 546.957L306.36 544.384L308.079 561.498L278.387 564.069L281.155 591.652L262.731 593.245Z" stroke="white" stroke-width="2" stroke-miterlimit="10"/>
<path d="M189.793 610.468L170.012 589.742L147.695 608.116L135.422 595.256L157.737 576.877L137.955 556.151L151.801 544.746L171.585 565.477L193.898 547.101L206.174 559.962L183.858 578.337L203.642 599.068L189.793 610.468Z" stroke="white" stroke-width="2" stroke-miterlimit="10"/>
<path d="M208.965 494.953C217.023 486.078 231.299 484.951 240.853 492.436C250.407 499.92 251.62 513.181 243.563 522.056C235.505 530.93 221.229 532.057 211.675 524.573C202.121 517.088 200.908 503.827 208.965 494.953Z" stroke="white" stroke-width="2" stroke-miterlimit="10"/>
<path d="M9.81519 114.929L38.9972 120.623L32.8687 147.733L50.9753 151.265L57.1091 124.155L86.2911 129.849L90.0969 113.027L60.9096 107.334L67.0412 80.2263L48.9314 76.6919L42.803 103.801L13.6157 98.1077L9.81519 114.929Z" stroke="white" stroke-width="2" stroke-miterlimit="10"/>
<path d="M20.9083 189.966C27.4046 173.532 18.3282 155.318 0.635626 149.283C-17.057 143.249 -36.6659 151.68 -43.1622 168.114C-49.6585 184.548 -40.5821 202.763 -22.8896 208.797C-5.19696 214.831 14.412 206.4 20.9083 189.966Z" stroke="white" stroke-width="2" stroke-miterlimit="10"/>
<path d="M29.631 59.5906C36.1273 43.1561 27.0509 24.9416 9.35829 18.9073C-8.33431 12.8729 -27.9432 21.3039 -34.4395 37.7383C-40.9358 54.1728 -31.8595 72.3874 -14.1669 78.4217C3.5257 84.4561 23.1347 76.025 29.631 59.5906Z" stroke="white" stroke-width="2" stroke-miterlimit="10"/>
<path d="M108.345 42.2354C112.653 31.3379 106.634 19.2601 94.9026 15.2588C83.1706 11.2575 70.168 16.848 65.8603 27.7454C61.5526 38.6429 67.5711 50.7207 79.3031 54.722C91.035 58.7233 104.038 53.1328 108.345 42.2354Z" stroke="white" stroke-width="2" stroke-miterlimit="10"/>
<path d="M271.003 220.805L247.779 203.432L229.072 225.006L214.663 214.226L233.367 192.648L210.142 175.275L221.748 161.886L244.975 179.264L263.678 157.689L278.091 168.47L259.385 190.043L282.612 207.421L271.003 220.805Z" stroke="white" stroke-width="2" stroke-miterlimit="10"/>
<path d="M268.576 69.6515L265.807 42.0729L236.114 44.6435L234.396 27.5319L264.091 24.9565L261.321 -2.62212L279.747 -4.21995L282.515 23.3635L312.206 20.7897L313.925 37.9045L284.232 40.4751L287 68.0585L268.576 69.6515Z" stroke="white" stroke-width="2" stroke-miterlimit="10"/>
<path d="M195.638 86.8727L175.856 66.147L153.54 84.5215L141.267 71.6613L163.581 53.2821L143.8 32.5564L157.646 21.1521L177.43 41.8825L199.742 23.5065L212.019 36.3682L189.703 54.7427L209.486 75.4731L195.638 86.8727Z" stroke="white" stroke-width="2" stroke-miterlimit="10"/>
<path d="M119.97 115.094C132.121 101.711 153.651 100.012 168.059 111.299C182.467 122.585 184.297 142.584 172.146 155.967C159.995 169.35 138.465 171.05 124.057 159.763C109.649 148.476 107.82 128.477 119.97 115.094Z" stroke="white" stroke-width="2" stroke-miterlimit="10"/>
<path d="M127.288 178.209L96.4238 232.059L38.4507 203.39L69.3148 149.54L127.288 178.209Z" stroke="white" stroke-width="2" stroke-miterlimit="10"/>
<path d="M349.567 102.953L318.703 156.802L260.73 128.134L291.594 74.2842L349.567 102.953Z" stroke="white" stroke-width="2" stroke-miterlimit="10"/>
</g>
<defs>
<clipPath id="clip0">
<rect width="1435" height="610" fill="white"/>
</clipPath>
</defs>
</svg>
